<svg width="142" height="143" viewBox="0 0 142 143" fill="none" xmlns="http://www.w3.org/2000/svg">
<path d="M112.515 116.702C112.374 116.702 112.233 116.667 112.101 116.594C105.711 113.021 93.8174 106.369 88.4164 101.217C79.9934 93.1815 14.6473 30.0674 13.9883 29.4304C13.2603 28.8224 -4.76864 13.4753 1.76136 2.46334C1.83336 2.34134 1.93636 2.23849 2.05836 2.16549C13.0724 -4.36151 28.4154 13.6645 29.0644 14.4365C29.6614 15.0515 92.7764 80.3985 100.812 88.8215C105.698 93.9435 111.674 104.618 115.628 111.681L115.868 112.112C116.097 112.521 115.952 113.04 115.542 113.268C115.134 113.499 114.614 113.35 114.386 112.941L114.145 112.511C110.233 105.523 104.32 94.9604 99.5823 89.9943C91.5503 81.5743 28.4394 16.2324 27.8024 15.5734C27.6144 15.3534 12.8924 -1.94948 3.11439 3.51852C-2.35161 13.2985 14.9484 28.0194 15.1244 28.1674C15.8274 28.8434 81.1694 91.9536 89.5894 99.9856C94.8334 104.99 106.606 111.572 112.93 115.108C113.339 115.337 113.486 115.855 113.257 116.265C113.102 116.545 112.812 116.702 112.515 116.702Z" fill="black"/>
<path d="M38.8719 142.136C38.6099 142.136 38.3579 142.015 38.1959 141.802L30.9979 132.355C30.8749 132.193 30.8129 131.993 30.8259 131.79L35.6769 50.9094C35.7049 50.4414 36.1119 50.0776 36.5759 50.1116C37.0449 50.1396 37.402 50.5425 37.374 51.0105L32.5409 131.575L38.5389 139.447L58.8519 72.0984C58.9869 71.6484 59.4639 71.3885 59.9109 71.5305C60.3609 71.6655 60.6149 72.1396 60.4789 72.5896L39.6859 141.532C39.5939 141.838 39.3379 142.066 39.0229 142.123C38.9729 142.133 38.9219 142.136 38.8719 142.136Z" fill="black"/>
<path d="M23.2287 84.2122C22.6667 84.2122 22.3187 83.9814 22.1247 83.7874C20.9977 82.6604 22.2837 80.3653 24.0577 78.5923C25.1967 77.4523 26.8697 76.2354 28.1497 76.2354C28.7117 76.2354 29.0597 76.4662 29.2537 76.6602C30.3807 77.7872 29.0947 80.0822 27.3207 81.8552C26.1827 82.9942 24.5087 84.2122 23.2287 84.2122ZM27.9527 77.9683C27.3997 78.1053 26.3677 78.6862 25.2607 79.7932C24.0917 80.9622 23.5457 81.9942 23.4257 82.4832C23.9567 82.3552 24.9997 81.7733 26.1197 80.6533C27.2827 79.4883 27.8297 78.4603 27.9527 77.9683Z" fill="black"/>
<path d="M33.6487 92.0445C33.5857 92.0445 33.5227 92.0365 33.4587 92.0235C28.2317 90.8305 22.3307 84.0315 22.0827 83.7425C21.7767 83.3875 21.8167 82.8495 22.1717 82.5445C22.5277 82.2355 23.0637 82.2766 23.3707 82.6336C23.4277 82.6996 29.1567 89.2975 33.8367 90.3655C34.2947 90.4695 34.5807 90.9266 34.4767 91.3846C34.3867 91.7766 34.0367 92.0445 33.6487 92.0445Z" fill="black"/>
<path d="M34.0117 83.4682C33.7937 83.4682 33.5767 83.3852 33.4107 83.2192L28.0517 77.8613C27.7197 77.5303 27.7197 76.9911 28.0517 76.6601C28.3837 76.3281 28.9217 76.3281 29.2537 76.6601L34.6127 82.0183C34.9447 82.3493 34.9447 82.8882 34.6127 83.2192C34.4467 83.3852 34.2297 83.4682 34.0117 83.4682Z" fill="black"/>
<path d="M22.8391 111.31C22.2771 111.31 21.9291 111.08 21.7351 110.885C20.6081 109.759 21.8941 107.464 23.6681 105.69C24.8081 104.55 26.4811 103.334 27.7611 103.334C28.3221 103.334 28.6701 103.563 28.8641 103.757C29.9911 104.885 28.7061 107.18 26.9321 108.953C25.7931 110.092 24.1191 111.31 22.8391 111.31ZM27.5631 105.066C27.0091 105.203 25.9781 105.784 24.8701 106.891C23.7021 108.059 23.156 109.091 23.035 109.58C23.566 109.452 24.6091 108.87 25.7291 107.75C26.8931 106.587 27.4401 105.559 27.5631 105.066Z" fill="black"/>
<path d="M32.5657 117.799C32.5337 117.799 32.5006 117.798 32.4676 117.794C26.5026 117.109 21.8547 111.055 21.6587 110.798C21.3757 110.424 21.4487 109.891 21.8227 109.608C22.1967 109.325 22.7287 109.398 23.0137 109.771C23.0567 109.829 27.4246 115.504 32.6606 116.105C33.1266 116.159 33.4617 116.581 33.4087 117.046C33.3597 117.48 32.9917 117.799 32.5657 117.799Z" fill="black"/>
<path d="M32.8091 109.753C32.5911 109.753 32.374 109.67 32.208 109.504L27.6631 104.958C27.3311 104.626 27.3311 104.088 27.6631 103.757C27.9951 103.425 28.533 103.425 28.865 103.757L33.41 108.303C33.742 108.634 33.742 109.173 33.41 109.504C33.244 109.67 33.0261 109.753 32.8091 109.753Z" fill="black"/>
<path d="M53.9885 76.7955C53.9125 76.7955 53.8335 76.7846 53.7565 76.7626C53.3045 76.6336 53.0426 76.1635 53.1716 75.7125L55.1995 68.5917C55.3285 68.1397 55.8026 67.8717 56.2496 68.0067C56.7016 68.1357 56.9635 68.6055 56.8345 69.0565L54.8066 76.1776C54.6996 76.5516 54.3585 76.7955 53.9885 76.7955Z" fill="black"/>
<path d="M36.3236 138.793C36.2466 138.793 36.1676 138.782 36.0906 138.76C35.6386 138.631 35.3776 138.161 35.5066 137.709L50.2896 85.8266C50.4176 85.3756 50.8856 85.1116 51.3406 85.2426C51.7916 85.3716 52.0536 85.8416 51.9246 86.2936L37.1416 138.176C37.0346 138.549 36.6936 138.793 36.3236 138.793Z" fill="black"/>
<path d="M71.9406 60.9208C71.5756 60.9208 71.2376 60.6839 71.1276 60.3159C70.9916 59.8669 71.2456 59.392 71.6956 59.257L139.044 38.944L131.173 32.947L50.6076 37.779C50.1426 37.802 49.7366 37.4499 49.7086 36.9809C49.6806 36.5119 50.0375 36.11 50.5065 36.082L131.387 31.2309C131.588 31.2149 131.791 31.28 131.952 31.404L141.399 38.601C141.654 38.794 141.778 39.1139 141.72 39.4279C141.663 39.7419 141.435 39.998 141.129 40.09L72.1865 60.884C72.1045 60.909 72.0216 60.9208 71.9406 60.9208Z" fill="black"/>
<path d="M77.3581 30.0825C76.7961 30.0825 76.4482 29.8515 76.2552 29.6575C75.1272 28.5305 76.4132 26.2354 78.1882 24.4624C79.3272 23.3224 81.0002 22.1055 82.2802 22.1055C82.8422 22.1055 83.1901 22.3355 83.3841 22.5305C84.5121 23.6575 83.2262 25.9526 81.4512 27.7256C80.3122 28.8646 78.6381 30.0825 77.3581 30.0825ZM82.0821 23.8384C81.5291 23.9754 80.4971 24.5566 79.3891 25.6636C78.2211 26.8326 77.6752 27.8645 77.5552 28.3545C78.0852 28.2255 79.1282 27.6434 80.2492 26.5234C81.4132 25.3584 81.9591 24.3304 82.0821 23.8384Z" fill="black"/>
<path d="M90.7879 34.9016C90.3999 34.9016 90.0509 34.6337 89.9599 34.2407C88.8909 29.5527 82.2939 23.8316 82.2279 23.7746C81.8729 23.4676 81.8319 22.9306 82.1379 22.5756C82.4449 22.2206 82.9829 22.1818 83.3369 22.4858C83.6259 22.7348 90.4249 28.6358 91.6179 33.8618C91.7219 34.3198 91.4349 34.7756 90.9779 34.8806C90.9149 34.8946 90.8509 34.9016 90.7879 34.9016Z" fill="black"/>
<path d="M82.2138 35.2658C81.9958 35.2658 81.7778 35.1831 81.6128 35.0171L76.2549 29.6589C75.9229 29.3279 75.9229 28.789 76.2549 28.458C76.5849 28.126 77.1258 28.126 77.4558 28.458L82.8139 33.8159C83.1459 34.1469 83.1459 34.6861 82.8139 35.0171C82.6489 35.1831 82.4318 35.2658 82.2138 35.2658Z" fill="black"/>
<path d="M104.456 29.6938C103.894 29.6938 103.546 29.4628 103.352 29.2688C102.224 28.1418 103.51 25.8467 105.285 24.0737C106.424 22.9337 108.097 21.7168 109.377 21.7168C109.939 21.7168 110.287 21.9468 110.48 22.1418C111.608 23.2688 110.322 25.5637 108.547 27.3367C107.409 28.4767 105.735 29.6938 104.456 29.6938ZM109.18 23.4497C108.627 23.5867 107.595 24.1677 106.487 25.2747C105.319 26.4437 104.773 27.4758 104.653 27.9658C105.183 27.8368 106.226 27.2548 107.347 26.1348C108.511 24.9708 109.057 23.9417 109.18 23.4497Z" fill="black"/>
<path d="M116.543 33.8191C116.117 33.8191 115.749 33.4999 115.699 33.0659C115.098 27.8309 109.423 23.4619 109.365 23.4189C108.991 23.1359 108.918 22.603 109.202 22.229C109.485 21.855 110.015 21.7819 110.392 22.0649C110.649 22.2599 116.702 26.909 117.388 32.874C117.442 33.34 117.107 33.7619 116.64 33.8149C116.608 33.8179 116.575 33.8191 116.543 33.8191Z" fill="black"/>
<path d="M108.499 34.0622C108.281 34.0622 108.064 33.9792 107.898 33.8142L103.352 29.2692C103.02 28.9372 103.02 28.3991 103.351 28.0671C103.683 27.7351 104.221 27.7361 104.553 28.0661L109.099 32.6113C109.431 32.9433 109.431 33.4812 109.1 33.8132C108.935 33.9792 108.717 34.0622 108.499 34.0622Z" fill="black"/>
<path d="M68.4192 57.2712C68.0492 57.2712 67.7082 57.0273 67.6022 56.6533C67.4732 56.2023 67.7352 55.7322 68.1872 55.6032L75.3072 53.5752C75.7562 53.4452 76.2292 53.7091 76.3572 54.1601C76.4862 54.6111 76.2242 55.0812 75.7722 55.2102L68.6522 57.2382C68.5742 57.2612 68.4962 57.2712 68.4192 57.2712Z" fill="black"/>
<path d="M85.6546 52.3609C85.2846 52.3609 84.9436 52.1168 84.8376 51.7428C84.7086 51.2918 84.9706 50.8217 85.4216 50.6927L137.306 35.9107C137.754 35.7817 138.227 36.0449 138.356 36.4959C138.485 36.9469 138.223 37.4167 137.772 37.5457L85.8876 52.3277C85.8106 52.3507 85.7326 52.3609 85.6546 52.3609Z" fill="black"/>
<path d="M105.139 139.297C104.914 139.297 104.699 139.209 104.538 139.049L100.155 134.667C99.978 134.49 99.888 134.245 99.908 133.996L101.836 110.397C101.875 109.928 102.288 109.59 102.753 109.619C103.221 109.658 103.569 110.068 103.531 110.536L101.635 133.742L104.989 137.095L116.446 118.98C116.698 118.584 117.223 118.466 117.619 118.715C118.016 118.966 118.135 119.491 117.884 119.888L105.859 138.902C105.72 139.121 105.491 139.264 105.234 139.293C105.201 139.296 105.17 139.297 105.139 139.297Z" fill="black"/>
<path d="M119.159 118.094C118.874 118.094 118.596 117.95 118.435 117.691C118.188 117.293 118.311 116.768 118.71 116.521L136.683 105.387L133.337 102.04L110.131 103.936C109.671 103.953 109.253 103.625 109.214 103.158C109.176 102.69 109.524 102.28 109.992 102.241L133.591 100.313C133.841 100.308 134.085 100.384 134.262 100.56L138.644 104.943C138.827 105.127 138.916 105.383 138.887 105.641C138.857 105.899 138.71 106.129 138.49 106.266L119.605 117.965C119.467 118.052 119.312 118.094 119.159 118.094Z" fill="black"/>
<path d="M122.585 123.899C122.431 123.899 122.274 123.857 122.137 123.771C102.251 111.419 97.843 99.6516 97.665 99.1566C97.552 98.8416 97.635 98.4875 97.877 98.2555C98.119 98.0245 98.476 97.9546 98.787 98.0836C112.227 103.588 122.875 121.851 123.321 122.625C123.515 122.963 123.456 123.39 123.175 123.66C123.013 123.818 122.8 123.899 122.585 123.899ZM100.282 100.658C102.277 104.239 107.614 111.982 119.78 120.219C116.333 115.08 108.934 105.211 100.282 100.658Z" fill="black"/>
<path d="M8.42048 17.1146C8.13048 17.1146 7.8555 16.9667 7.6985 16.7147L5.36653 12.9635C5.22653 12.7375 5.19953 12.4615 5.29353 12.2135C7.15353 7.29647 11.2735 6.16254 11.4485 6.11654C11.6725 6.05754 11.9145 6.09362 12.1135 6.21762L15.8635 8.54867C16.1395 8.71967 16.2935 9.03351 16.2605 9.35751C16.2275 9.68151 16.0125 9.95769 15.7075 10.0687C10.1415 12.1097 9.2635 16.3826 9.2555 16.4256C9.1895 16.7696 8.91951 17.0367 8.57551 17.1017C8.52351 17.1107 8.47148 17.1146 8.42048 17.1146ZM7.03749 12.4315L8.22547 14.3416C8.96447 12.8316 10.4995 10.6687 13.5845 9.13266L11.5555 7.87167C10.6925 8.20167 8.35049 9.34949 7.03749 12.4315Z" fill="black"/>
</svg>
