<svg width="146" height="156" viewBox="0 0 146 156" fill="none" xmlns="http://www.w3.org/2000/svg">
<g id="caribbean">
<g id="Group">
<path id="Vector" d="M108.708 105.107C108.156 105.107 107.708 104.66 107.708 104.107V84.8857C107.708 84.3327 108.156 83.8857 108.708 83.8857C109.26 83.8857 109.708 84.3327 109.708 84.8857V104.107C109.708 104.659 109.261 105.107 108.708 105.107Z" fill="currentColor"/>
</g>
<g id="Group_2">
<path id="Vector_2" d="M108.707 155.681H93.6064C93.0544 155.681 92.6064 155.234 92.6064 154.681C92.6064 154.128 93.0544 153.681 93.6064 153.681H107.707V109.109C107.707 108.556 108.155 108.109 108.707 108.109C109.259 108.109 109.707 108.556 109.707 109.109V154.681C109.707 155.234 109.26 155.681 108.707 155.681Z" fill="currentColor"/>
</g>
<g id="Group_3">
<path id="Vector_3" d="M89.0055 155.682H74.9365C74.3845 155.682 73.9365 155.235 73.9365 154.682C73.9365 154.129 74.3845 153.682 74.9365 153.682H89.0055C89.5575 153.682 90.0055 154.129 90.0055 154.682C90.0055 155.235 89.5585 155.682 89.0055 155.682Z" fill="currentColor"/>
</g>
<g id="Group_4">
<path id="Vector_4" d="M70.7697 155.682H14.9277C14.3757 155.682 13.9277 155.235 13.9277 154.682C13.9277 154.129 14.3757 153.682 14.9277 153.682H70.7697C71.3217 153.682 71.7697 154.129 71.7697 154.682C71.7697 155.235 71.3217 155.682 70.7697 155.682Z" fill="currentColor"/>
</g>
<g id="Group_5">
<path id="Vector_5" d="M9.51697 155.682H1.00098C0.448977 155.682 0.000976562 155.235 0.000976562 154.682V136.997C0.000976562 136.444 0.448977 135.997 1.00098 135.997C1.55298 135.997 2.00098 136.444 2.00098 136.997V153.682H9.51697C10.069 153.682 10.517 154.129 10.517 154.682C10.517 155.235 10.069 155.682 9.51697 155.682Z" fill="currentColor"/>
</g>
<g id="Group_6">
<path id="Vector_6" d="M1 129.834C0.448 129.834 0 129.387 0 128.834V52.7054C0 52.5754 0.0240002 52.4524 0.0690002 52.3394C0.645 39.6494 5.651 27.4853 14.186 18.0553C14.557 17.6473 15.189 17.6134 15.598 17.9854C16.008 18.3554 16.039 18.9883 15.668 19.3973C7.374 28.5613 2.53901 40.4054 2.05301 52.7454C2.04901 52.8464 2.03101 52.9423 1.99901 53.0333V128.835C2.00001 129.387 1.553 129.834 1 129.834Z" fill="currentColor"/>
</g>
<g id="Group_7">
<path id="Vector_7" d="M108.708 81.6748C108.156 81.6748 107.708 81.2278 107.708 80.6748V53.0178C107.677 52.9308 107.658 52.8399 107.655 52.7449C106.535 24.2919 83.3422 2.00391 54.8542 2.00391C41.7862 2.00391 29.2432 6.81175 19.5362 15.5417C19.1242 15.9107 18.4932 15.8778 18.1232 15.4678C17.7542 15.0568 17.7882 14.4249 18.1982 14.0559C28.2732 4.99391 41.2912 0.00390625 54.8542 0.00390625C84.3172 0.00390625 108.323 22.9778 109.64 52.3608C109.683 52.4678 109.708 52.5848 109.708 52.7058V80.6758C109.708 81.2278 109.261 81.6748 108.708 81.6748Z" fill="currentColor"/>
</g>
<g id="Group_8">
<path id="Vector_8" d="M75.5618 119.432H72.5618C72.0098 119.432 71.5618 118.985 71.5618 118.432C71.5618 117.879 72.0098 117.432 72.5618 117.432H75.5618C76.1138 117.432 76.5618 117.879 76.5618 118.432C76.5618 118.985 76.1138 119.432 75.5618 119.432ZM68.5618 119.432H65.5618C65.0098 119.432 64.5618 118.985 64.5618 118.432C64.5618 117.879 65.0098 117.432 65.5618 117.432H68.5618C69.1138 117.432 69.5618 117.879 69.5618 118.432C69.5618 118.985 69.1138 119.432 68.5618 119.432ZM61.5618 119.432H58.5618C58.0098 119.432 57.5618 118.985 57.5618 118.432C57.5618 117.879 58.0098 117.432 58.5618 117.432H61.5618C62.1138 117.432 62.5618 117.879 62.5618 118.432C62.5618 118.985 62.1138 119.432 61.5618 119.432ZM54.5618 119.432H51.5618C51.0098 119.432 50.5618 118.985 50.5618 118.432C50.5618 117.879 51.0098 117.432 51.5618 117.432H54.5618C55.1138 117.432 55.5618 117.879 55.5618 118.432C55.5618 118.985 55.1138 119.432 54.5618 119.432ZM47.5618 119.432H44.5618C44.0098 119.432 43.5618 118.985 43.5618 118.432C43.5618 117.879 44.0098 117.432 44.5618 117.432H47.5618C48.1138 117.432 48.5618 117.879 48.5618 118.432C48.5618 118.985 48.1138 119.432 47.5618 119.432ZM40.5618 119.432H37.5618C37.0098 119.432 36.5618 118.985 36.5618 118.432C36.5618 117.879 37.0098 117.432 37.5618 117.432H40.5618C41.1138 117.432 41.5618 117.879 41.5618 118.432C41.5618 118.985 41.1138 119.432 40.5618 119.432ZM33.5618 119.432H30.5618C30.0098 119.432 29.5618 118.985 29.5618 118.432C29.5618 117.879 30.0098 117.432 30.5618 117.432H33.5618C34.1138 117.432 34.5618 117.879 34.5618 118.432C34.5618 118.985 34.1138 119.432 33.5618 119.432ZM26.5618 119.432H23.5618C23.0098 119.432 22.5618 118.985 22.5618 118.432C22.5618 117.879 23.0098 117.432 23.5618 117.432H26.5618C27.1138 117.432 27.5618 117.879 27.5618 118.432C27.5618 118.985 27.1138 119.432 26.5618 119.432ZM19.5618 119.432H16.5618C16.0098 119.432 15.5618 118.985 15.5618 118.432C15.5618 117.879 16.0098 117.432 16.5618 117.432H19.5618C20.1138 117.432 20.5618 117.879 20.5618 118.432C20.5618 118.985 20.1138 119.432 19.5618 119.432ZM12.5618 119.432H9.56178C9.00978 119.432 8.56178 118.985 8.56178 118.432C8.56178 117.879 9.00978 117.432 9.56178 117.432H12.5618C13.1138 117.432 13.5618 117.879 13.5618 118.432C13.5618 118.985 13.1138 119.432 12.5618 119.432ZM6.25879 118.735C5.70679 118.735 5.25879 118.288 5.25879 117.735V114.735C5.25879 114.182 5.70679 113.735 6.25879 113.735C6.81079 113.735 7.25879 114.182 7.25879 114.735V117.735C7.25879 118.287 6.81079 118.735 6.25879 118.735ZM6.25879 111.735C5.70679 111.735 5.25879 111.288 5.25879 110.735V107.735C5.25879 107.182 5.70679 106.735 6.25879 106.735C6.81079 106.735 7.25879 107.182 7.25879 107.735V110.735C7.25879 111.287 6.81079 111.735 6.25879 111.735ZM6.25879 104.735C5.70679 104.735 5.25879 104.288 5.25879 103.735V100.735C5.25879 100.182 5.70679 99.7346 6.25879 99.7346C6.81079 99.7346 7.25879 100.182 7.25879 100.735V103.735C7.25879 104.287 6.81079 104.735 6.25879 104.735ZM6.25879 97.7346C5.70679 97.7346 5.25879 97.2876 5.25879 96.7346V93.7346C5.25879 93.1816 5.70679 92.7346 6.25879 92.7346C6.81079 92.7346 7.25879 93.1816 7.25879 93.7346V96.7346C7.25879 97.2866 6.81079 97.7346 6.25879 97.7346ZM6.25879 90.7346C5.70679 90.7346 5.25879 90.2876 5.25879 89.7346V86.7346C5.25879 86.1816 5.70679 85.7346 6.25879 85.7346C6.81079 85.7346 7.25879 86.1816 7.25879 86.7346V89.7346C7.25879 90.2866 6.81079 90.7346 6.25879 90.7346ZM6.25879 83.7346C5.70679 83.7346 5.25879 83.2876 5.25879 82.7346V79.7346C5.25879 79.1816 5.70679 78.7346 6.25879 78.7346C6.81079 78.7346 7.25879 79.1816 7.25879 79.7346V82.7346C7.25879 83.2866 6.81079 83.7346 6.25879 83.7346ZM6.25879 76.7346C5.70679 76.7346 5.25879 76.2876 5.25879 75.7346V72.7346C5.25879 72.1816 5.70679 71.7346 6.25879 71.7346C6.81079 71.7346 7.25879 72.1816 7.25879 72.7346V75.7346C7.25879 76.2866 6.81079 76.7346 6.25879 76.7346ZM6.25879 69.7346C5.70679 69.7346 5.25879 69.2876 5.25879 68.7346V65.7346C5.25879 65.1816 5.70679 64.7346 6.25879 64.7346C6.81079 64.7346 7.25879 65.1816 7.25879 65.7346V68.7346C7.25879 69.2866 6.81079 69.7346 6.25879 69.7346ZM103.45 67.1726C102.898 67.1726 102.45 66.7256 102.45 66.1726V63.1726C102.45 62.6196 102.898 62.1726 103.45 62.1726C104.002 62.1726 104.45 62.6196 104.45 63.1726V66.1726C104.45 66.7256 104.002 67.1726 103.45 67.1726ZM6.25879 62.7356C5.70679 62.7356 5.25879 62.2886 5.25879 61.7356V58.7356C5.25879 58.1826 5.70679 57.7356 6.25879 57.7356C6.81079 57.7356 7.25879 58.1826 7.25879 58.7356V61.7356C7.25879 62.2876 6.81079 62.7356 6.25879 62.7356ZM103.45 60.1726C102.898 60.1726 102.45 59.7256 102.45 59.1726V56.1726C102.45 55.6196 102.898 55.1726 103.45 55.1726C104.002 55.1726 104.45 55.6196 104.45 56.1726V59.1726C104.45 59.7256 104.002 60.1726 103.45 60.1726ZM6.25879 55.7356C5.70679 55.7356 5.25879 55.2886 5.25879 54.7356V53.9175L5.31079 52.8616C5.32579 52.4706 5.34678 52.0735 5.37178 51.6755C5.40678 51.1235 5.87679 50.7195 6.43279 50.7395C6.98379 50.7735 7.40279 51.2495 7.36879 51.8005C7.34479 52.1825 7.32578 52.5664 7.30978 52.9504L7.25879 53.9666L7.25978 54.7356C7.25878 55.2876 6.81079 55.7356 6.25879 55.7356ZM103.364 53.1746C102.837 53.1746 102.395 52.7615 102.366 52.2285C102.314 51.2565 102.23 50.2715 102.119 49.3005C102.056 48.7515 102.45 48.2556 102.999 48.1936C103.55 48.1246 104.044 48.5235 104.106 49.0725C104.222 50.0835 104.308 51.1086 104.363 52.1216C104.393 52.6736 103.97 53.1436 103.418 53.1746C103.401 53.1746 103.382 53.1746 103.364 53.1746ZM6.78279 48.7615C6.73479 48.7615 6.68679 48.7585 6.63779 48.7505C6.09079 48.6715 5.71179 48.1647 5.79079 47.6177C5.93579 46.6167 6.11379 45.6025 6.32079 44.6055C6.43279 44.0635 6.96179 43.7206 7.50279 43.8296C8.04379 43.9416 8.39079 44.4715 8.27879 45.0125C8.08079 45.9705 7.90879 46.9435 7.76979 47.9055C7.69879 48.4035 7.27079 48.7615 6.78279 48.7615ZM102.494 46.2366C102.027 46.2366 101.609 45.9076 101.514 45.4316C101.324 44.4726 101.101 43.5096 100.854 42.5706C100.713 42.0366 101.032 41.4896 101.566 41.3486C102.102 41.2076 102.647 41.5275 102.788 42.0605C103.046 43.0395 103.278 44.0425 103.476 45.0405C103.583 45.5825 103.232 46.1086 102.69 46.2166C102.624 46.2306 102.559 46.2366 102.494 46.2366ZM8.27478 41.9316C8.18078 41.9316 8.08578 41.9186 7.99078 41.8906C7.46178 41.7346 7.15878 41.1774 7.31578 40.6484C7.60278 39.6764 7.92479 38.6995 8.27379 37.7415C8.46279 37.2225 9.03779 36.9575 9.55579 37.1445C10.0748 37.3325 10.3418 37.9075 10.1528 38.4265C9.81879 39.3455 9.5088 40.2826 9.2338 41.2146C9.1048 41.6506 8.70678 41.9316 8.27478 41.9316ZM100.643 39.4946C100.231 39.4946 99.8458 39.2386 99.7008 38.8286C99.3758 37.9116 99.0168 36.9915 98.6348 36.0925C98.4188 35.5835 98.6558 34.9965 99.1638 34.7805C99.6728 34.5615 100.26 34.8006 100.476 35.3086C100.874 36.2456 101.248 37.2046 101.586 38.1606C101.771 38.6816 101.498 39.2525 100.978 39.4365C100.867 39.4765 100.754 39.4946 100.643 39.4946ZM10.7368 35.3855C10.5968 35.3855 10.4538 35.3565 10.3188 35.2935C9.81779 35.0625 9.59879 34.4676 9.82979 33.9666C10.2568 33.0406 10.7188 32.1176 11.2008 31.2246C11.4638 30.7406 12.0708 30.5556 12.5558 30.8206C13.0418 31.0836 13.2228 31.6895 12.9608 32.1755C12.4988 33.0315 12.0558 33.9164 11.6468 34.8044C11.4768 35.1704 11.1148 35.3855 10.7368 35.3855ZM97.8398 33.0925C97.4808 33.0925 97.1338 32.8996 96.9548 32.5596C96.4998 31.6986 96.0128 30.8395 95.5058 30.0085C95.2188 29.5365 95.3678 28.9215 95.8388 28.6345C96.3108 28.3445 96.9258 28.4965 97.2138 28.9675C97.7418 29.8335 98.2498 30.7285 98.7228 31.6255C98.9808 32.1135 98.7938 32.7195 98.3058 32.9775C98.1568 33.0555 97.9968 33.0925 97.8398 33.0925ZM14.1218 29.2615C13.9348 29.2615 13.7458 29.2086 13.5768 29.0996C13.1148 28.7986 12.9838 28.1786 13.2848 27.7156C13.8388 26.8646 14.4278 26.0197 15.0358 25.2017C15.3648 24.7607 15.9918 24.6676 16.4348 24.9956C16.8778 25.3256 16.9698 25.9515 16.6408 26.3945C16.0578 27.1785 15.4928 27.9906 14.9608 28.8066C14.7688 29.1016 14.4488 29.2615 14.1218 29.2615ZM94.1418 27.1636C93.8328 27.1636 93.5288 27.0207 93.3328 26.7537C92.7568 25.9637 92.1498 25.1845 91.5298 24.4375C91.1768 24.0115 91.2368 23.3815 91.6618 23.0295C92.0858 22.6765 92.7168 22.7356 93.0698 23.1606C93.7158 23.9396 94.3478 24.7525 94.9478 25.5745C95.2738 26.0205 95.1758 26.6464 94.7298 26.9714C94.5528 27.1014 94.3458 27.1636 94.1418 27.1636ZM18.3538 23.6926C18.1198 23.6926 17.8838 23.6106 17.6938 23.4436C17.2788 23.0786 17.2388 22.4465 17.6038 22.0315C18.2728 21.2715 18.9778 20.5196 19.6978 19.7986C20.0878 19.4056 20.7198 19.4066 21.1118 19.7966C21.5028 20.1866 21.5038 20.8194 21.1138 21.2104C20.4228 21.9034 19.7468 22.6245 19.1048 23.3545C18.9078 23.5775 18.6318 23.6926 18.3538 23.6926ZM89.6248 21.8276C89.3648 21.8276 89.1058 21.7266 88.9098 21.5266C88.2248 20.8266 87.5128 20.1415 86.7918 19.4915C86.3818 19.1215 86.3498 18.4896 86.7198 18.0796C87.0888 17.6686 87.7218 17.6366 88.1318 18.0076C88.8828 18.6856 89.6258 19.3997 90.3398 20.1287C90.7258 20.5237 90.7188 21.1565 90.3238 21.5425C90.1298 21.7335 89.8768 21.8276 89.6248 21.8276ZM23.3438 18.7915C23.0608 18.7915 22.7788 18.6715 22.5808 18.4385C22.2238 18.0175 22.2748 17.3866 22.6958 17.0286C23.4748 16.3686 24.2788 15.7256 25.0868 15.1206C25.5298 14.7886 26.1558 14.8815 26.4868 15.3215C26.8178 15.7635 26.7278 16.3904 26.2858 16.7214C25.5098 17.3014 24.7378 17.9185 23.9908 18.5535C23.8028 18.7135 23.5728 18.7915 23.3438 18.7915ZM84.3858 17.1956C84.1748 17.1956 83.9608 17.1295 83.7798 16.9905C83.0088 16.4015 82.2048 15.8265 81.3898 15.2805C80.9308 14.9725 80.8078 14.3516 81.1158 13.8926C81.4238 13.4336 82.0448 13.3117 82.5028 13.6187C83.3518 14.1877 84.1898 14.7876 84.9938 15.4006C85.4328 15.7356 85.5168 16.3635 85.1818 16.8015C84.9848 17.0595 84.6868 17.1956 84.3858 17.1956ZM28.9828 14.6597C28.6498 14.6597 28.3238 14.4937 28.1348 14.1907C27.8418 13.7217 27.9828 13.1055 28.4508 12.8115C29.3198 12.2675 30.2078 11.7486 31.0908 11.2686C31.5758 11.0046 32.1828 11.1857 32.4468 11.6697C32.7108 12.1547 32.5298 12.7626 32.0448 13.0256C31.1978 13.4856 30.3458 13.9836 29.5118 14.5056C29.3478 14.6116 29.1638 14.6597 28.9828 14.6597ZM78.5338 13.3645C78.3688 13.3645 78.2018 13.3235 78.0478 13.2385C77.1988 12.7645 76.3208 12.3116 75.4368 11.8896C74.9378 11.6526 74.7268 11.0556 74.9638 10.5566C75.2018 10.0576 75.7988 9.84747 76.2968 10.0845C77.2188 10.5235 78.1358 10.9965 79.0218 11.4895C79.5038 11.7595 79.6778 12.3676 79.4088 12.8496C79.2258 13.1806 78.8848 13.3645 78.5338 13.3645ZM35.1558 11.3835C34.7718 11.3835 34.4058 11.1606 34.2398 10.7866C34.0168 10.2806 34.2458 9.69051 34.7518 9.46851C35.6708 9.06351 36.6238 8.67751 37.5838 8.32251C38.1038 8.12851 38.6778 8.39457 38.8688 8.91357C39.0598 9.43157 38.7958 10.0065 38.2778 10.1975C37.3558 10.5395 36.4408 10.9096 35.5588 11.2986C35.4278 11.3566 35.2908 11.3835 35.1558 11.3835ZM72.1878 10.4155C72.0698 10.4155 71.9498 10.3946 71.8328 10.3506C70.9208 10.0046 69.9858 9.68255 69.0518 9.39355C68.5238 9.23055 68.2288 8.67058 68.3918 8.14258C68.5558 7.61558 69.1168 7.31964 69.6428 7.48364C70.6168 7.78464 71.5918 8.12045 72.5428 8.48145C73.0598 8.67745 73.3188 9.25448 73.1228 9.77148C72.9718 10.1705 72.5918 10.4155 72.1878 10.4155ZM41.7348 9.03467C41.2968 9.03467 40.8938 8.74451 40.7718 8.30151C40.6248 7.76951 40.9368 7.21853 41.4688 7.07153C42.4478 6.80053 43.4478 6.55646 44.4418 6.34546C44.9788 6.23146 45.5128 6.57546 45.6278 7.11646C45.7418 7.65646 45.3968 8.18749 44.8568 8.30249C43.9028 8.50449 42.9428 8.73854 42.0028 8.99854C41.9128 9.02354 41.8228 9.03467 41.7348 9.03467ZM65.4838 8.41553C65.4118 8.41553 65.3388 8.40758 65.2658 8.39258C64.3248 8.18358 63.3548 7.99844 62.3808 7.84644C61.8348 7.76044 61.4628 7.24764 61.5478 6.70264C61.6338 6.15664 62.1518 5.78863 62.6908 5.86963C63.7058 6.02963 64.7178 6.22148 65.6988 6.43848C66.2378 6.55848 66.5778 7.09259 66.4578 7.63159C66.3558 8.09859 65.9428 8.41553 65.4838 8.41553ZM48.5878 7.65552C48.0918 7.65552 47.6618 7.28747 47.5978 6.78247C47.5278 6.23447 47.9148 5.73357 48.4628 5.66357C49.4748 5.53457 50.4998 5.43563 51.5088 5.36963C52.0428 5.34963 52.5348 5.75149 52.5718 6.30249C52.6078 6.85449 52.1898 7.32948 51.6388 7.36548C50.6708 7.42848 49.6868 7.52346 48.7168 7.64746C48.6738 7.65346 48.6308 7.65552 48.5878 7.65552ZM58.5668 7.39844C58.5418 7.39844 58.5168 7.39751 58.4918 7.39551C57.5148 7.32351 56.5268 7.27963 55.5558 7.26562C55.0038 7.25762 54.5628 6.80349 54.5708 6.25049C54.5788 5.70349 55.0248 5.26562 55.5708 5.26562C55.5758 5.26562 55.5808 5.26562 55.5858 5.26562C56.5968 5.28062 57.6238 5.32661 58.6398 5.40161C59.1908 5.44261 59.6038 5.92266 59.5628 6.47266C59.5248 6.99766 59.0858 7.39844 58.5668 7.39844Z" fill="currentColor"/>
</g>
<g id="Group_9">
<path id="Vector_9" d="M103.449 119.432H102.734C102.182 119.432 101.734 118.985 101.734 118.432C101.734 117.979 102.035 117.596 102.449 117.473V116.146C102.449 115.593 102.897 115.146 103.449 115.146C104.001 115.146 104.449 115.593 104.449 116.146V118.432C104.449 118.985 104.001 119.432 103.449 119.432ZM98.7344 119.432H95.7344C95.1824 119.432 94.7344 118.985 94.7344 118.432C94.7344 117.879 95.1824 117.432 95.7344 117.432H98.7344C99.2864 117.432 99.7344 117.879 99.7344 118.432C99.7344 118.985 99.2874 119.432 98.7344 119.432ZM91.7344 119.432H90.7754C90.2234 119.432 89.7754 118.985 89.7754 118.432C89.7754 117.879 90.2234 117.432 90.7754 117.432H91.7344C92.2864 117.432 92.7344 117.879 92.7344 118.432C92.7344 118.985 92.2874 119.432 91.7344 119.432ZM103.449 113.146C102.897 113.146 102.449 112.699 102.449 112.146V109.146C102.449 108.593 102.897 108.146 103.449 108.146C104.001 108.146 104.449 108.593 104.449 109.146V112.146C104.449 112.698 104.001 113.146 103.449 113.146ZM103.449 106.146C102.897 106.146 102.449 105.699 102.449 105.146V102.146C102.449 101.593 102.897 101.146 103.449 101.146C104.001 101.146 104.449 101.593 104.449 102.146V105.146C104.449 105.698 104.001 106.146 103.449 106.146ZM103.449 99.1465C102.897 99.1465 102.449 98.6995 102.449 98.1465V95.1465C102.449 94.5935 102.897 94.1465 103.449 94.1465C104.001 94.1465 104.449 94.5935 104.449 95.1465V98.1465C104.449 98.6985 104.001 99.1465 103.449 99.1465ZM103.449 92.1465C102.897 92.1465 102.449 91.6995 102.449 91.1465V88.1465C102.449 87.5935 102.897 87.1465 103.449 87.1465C104.001 87.1465 104.449 87.5935 104.449 88.1465V91.1465C104.449 91.6985 104.001 92.1465 103.449 92.1465ZM103.449 85.1465C102.897 85.1465 102.449 84.6995 102.449 84.1465V81.1465C102.449 80.5935 102.897 80.1465 103.449 80.1465C104.001 80.1465 104.449 80.5935 104.449 81.1465V84.1465C104.449 84.6985 104.001 85.1465 103.449 85.1465ZM103.449 78.1465C102.897 78.1465 102.449 77.6995 102.449 77.1465V74.1465C102.449 73.5935 102.897 73.1465 103.449 73.1465C104.001 73.1465 104.449 73.5935 104.449 74.1465V77.1465C104.449 77.6985 104.001 78.1465 103.449 78.1465Z" fill="currentColor"/>
</g>
<g id="Group_10">
<g id="Group_11">
<g id="Group_12">
<path id="Vector_10" d="M74.977 108.904H61.441C61.096 108.904 60.775 108.726 60.593 108.433C60.411 108.14 60.391 107.775 60.543 107.464L61.1531 106.224C61.5451 105.429 61.927 104.654 62.299 103.874C65.308 97.5625 67.323 91.1445 68.287 84.7935C69.797 74.8495 68.814 66.0046 65.281 57.7546C65.116 57.3676 64.9441 56.9846 64.7651 56.5876L64.495 55.9836C64.343 55.6416 64.394 55.2424 64.629 54.9504C64.864 54.6594 65.243 54.5227 65.609 54.5977C69.512 55.3977 76.287 58.3545 81.124 63.4885C80.566 61.6885 79.579 59.5315 78.207 57.8345C76.108 55.2415 73.446 53.1847 70.07 51.5447C69.718 51.3737 69.498 51.0136 69.507 50.6216C69.516 50.2306 69.752 49.8806 70.112 49.7256C73.662 48.2016 77.054 47.4295 80.389 47.3965C78.431 46.3865 76.379 45.7864 74.271 45.6064C74.045 45.5884 73.849 45.5326 73.69 45.4866L73.6661 45.4795H71.523C71.365 45.5335 71.21 45.5785 71.03 45.5925C69.026 45.7535 67.103 46.2256 65.148 47.0366C64.637 47.2486 64.053 47.0066 63.841 46.4966C63.63 45.9856 63.871 45.4005 64.382 45.1885C66.503 44.3085 68.685 43.7736 70.867 43.5986L71.0711 43.5205C71.1641 43.4925 71.26 43.4785 71.358 43.4785H73.801C73.883 43.4785 73.964 43.4886 74.043 43.5076L74.247 43.5645C74.309 43.5825 74.371 43.6065 74.434 43.6125C77.221 43.8495 79.909 44.7356 82.431 46.2446C82.928 46.5426 83.404 46.8736 83.881 47.2056C84.093 47.3536 84.306 47.5025 84.521 47.6465C84.915 47.9125 85.068 48.4186 84.886 48.8586C84.885 48.8616 84.8231 49.0185 84.8211 49.0215C84.6471 49.4505 84.201 49.7025 83.742 49.6335C80.222 49.0955 76.657 49.4695 72.902 50.7815C75.643 52.3665 77.9 54.2745 79.762 56.5745C82.412 59.8515 84.015 65.0114 83.575 67.0964C83.492 67.4884 83.1841 67.7926 82.7911 67.8706C82.3961 67.9536 81.998 67.7846 81.771 67.4556C77.705 61.5176 71.019 58.3475 67.175 57.0935C70.814 65.6585 71.8251 74.8196 70.2651 85.0916C69.2721 91.6366 67.199 98.2437 64.105 104.733C63.761 105.453 63.409 106.17 63.048 106.901H74.978C75.53 106.901 75.978 107.348 75.978 107.901C75.978 108.454 75.53 108.904 74.977 108.904Z" fill="currentColor"/>
</g>
<g id="Group_13">
<path id="Vector_11" d="M41.3834 109.546H27.6634C27.1114 109.546 26.6634 109.099 26.6634 108.546C26.6634 107.993 27.1114 107.546 27.6634 107.546H39.5494C34.9464 100.051 33.0404 91.7037 33.8694 82.6807C30.1564 85.5187 27.6814 88.8856 26.3314 92.9226C26.1874 93.3536 25.7714 93.6325 25.3174 93.6035C24.8634 93.5735 24.4874 93.2427 24.4004 92.7957C23.3764 87.5177 24.6794 82.7006 28.2734 78.4546C25.1144 78.1646 22.2514 78.6226 19.3844 79.8506C18.9674 80.0276 18.4864 79.9055 18.2064 79.5525C17.9264 79.1985 17.9174 78.7007 18.1854 78.3377C20.2574 75.5267 22.7224 73.6465 25.7204 72.5855C29.1134 71.3855 32.7144 71.3207 36.4224 72.3997C36.8444 72.5227 37.1784 72.5205 37.5754 72.3975C42.6414 70.7975 47.3354 71.1266 51.5334 73.3706C48.8544 67.2526 49.2664 61.2706 52.7914 55.1716C46.9474 55.5956 42.5514 57.1975 38.7194 60.2705C38.3644 60.5555 37.8624 60.5655 37.4964 60.2915C37.1314 60.0205 36.9964 59.5365 37.1664 59.1145C37.8854 57.3385 38.8194 55.7826 40.0224 54.3596C43.0604 50.7576 47.0984 48.4835 52.3654 47.4085C53.8624 47.1015 55.4334 46.9335 57.1694 46.8965C57.7174 46.8935 58.1794 47.3235 58.1904 47.8755C58.2014 48.4275 57.7644 48.8855 57.2114 48.8965C55.5974 48.9305 54.1434 49.0847 52.7654 49.3677C47.9554 50.3497 44.2874 52.4047 41.5494 55.6497C41.3504 55.8857 41.1604 56.1235 40.9794 56.3645C44.7764 54.2925 49.2084 53.2347 54.6194 53.0777C54.9914 53.0967 55.3414 53.2665 55.5234 53.5935C55.7044 53.9205 55.6884 54.3226 55.4804 54.6326C52.0344 59.7976 51.0214 64.8356 52.4254 69.9326C53.5464 64.6366 56.5024 59.8795 61.5254 55.2105C61.7604 54.9915 62.0874 54.9007 62.4014 54.9627C62.7164 55.0247 62.9824 55.2356 63.1154 55.5276L63.2594 55.8386C63.3534 56.0386 63.4314 56.2065 63.5004 56.3775C66.5444 63.9385 67.2244 72.1215 65.5184 80.6995C63.6894 89.8985 59.4714 98.6035 52.9814 106.574C52.4934 107.172 51.6874 107.365 51.3634 107.42C50.9164 107.495 50.4634 107.534 50.0104 107.571C49.6474 107.602 49.2834 107.632 48.9244 107.686C48.0994 107.815 47.4384 107.567 46.8524 106.911C41.0184 100.37 37.5284 92.6006 36.4804 83.8186C36.3834 83.0046 36.3364 82.1906 36.2874 81.3286C36.2634 80.9106 36.2384 80.4775 36.2064 80.0225C36.1814 79.6615 36.3524 79.3145 36.6564 79.1155C36.9594 78.9165 37.3464 78.8997 37.6674 79.0657C42.6064 81.6477 46.0244 84.7616 48.1784 88.6926C48.0084 84.6936 46.2174 81.1586 42.7634 77.9656C42.4864 77.7096 42.3764 77.3196 42.4804 76.9556C42.5844 76.5936 42.8834 76.3196 43.2544 76.2486C46.5514 75.6176 49.5474 75.6116 52.3154 76.2376C51.8654 75.8936 51.3974 75.5856 50.9114 75.3106C47.0704 73.1406 42.9034 72.8115 38.1754 74.3035C37.4004 74.5485 36.6634 74.5546 35.8594 74.3186C32.5644 73.3596 29.3764 73.4115 26.3844 74.4685C24.8744 75.0025 23.5164 75.7815 22.2854 76.8225C24.8934 76.2575 27.6034 76.2285 30.4794 76.7305C30.8474 76.7945 31.1484 77.0585 31.2614 77.4155C31.3734 77.7705 31.2784 78.1606 31.0144 78.4246C27.9154 81.5186 26.2814 84.8505 26.0754 88.5305C27.9674 85.1165 30.7724 82.2157 34.5694 79.7327C34.8984 79.5187 35.3214 79.5156 35.6524 79.7246C35.9844 79.9356 36.1614 80.3195 36.1074 80.7075C34.7024 90.7285 36.7544 99.9045 42.2084 107.981C42.4154 108.288 42.4364 108.684 42.2634 109.011C42.0934 109.342 41.7534 109.546 41.3834 109.546ZM48.5004 105.717C48.5004 105.717 48.5344 105.725 48.6264 105.71C49.0304 105.648 49.4394 105.614 49.8484 105.58C50.2454 105.547 50.6434 105.515 51.0354 105.448C51.2474 105.413 51.4104 105.332 51.4504 105.296C57.8054 97.4897 61.7714 89.3116 63.5604 80.3106C65.1484 72.3256 64.5764 64.7096 61.8614 57.6646C56.7064 62.7846 54.1774 68.0186 53.9294 74.0386C53.9184 74.3036 53.8044 74.5445 53.6234 74.7185C54.6354 75.5015 55.5604 76.4285 56.3864 77.4905C56.5644 77.7205 56.6814 77.9685 56.7554 78.2705C56.8474 78.6465 56.7134 79.0416 56.4124 79.2866C56.1104 79.5296 55.6954 79.5755 55.3474 79.4075C52.3854 77.9695 49.2284 77.4847 45.5394 77.9197C49.4974 82.2587 50.9394 87.3207 49.8264 92.9937C49.7384 93.4417 49.3574 93.7736 48.9014 93.7996C48.4484 93.8296 48.0294 93.5395 47.8914 93.1035C46.3764 88.3225 43.3144 84.6686 38.3164 81.7136C38.3554 82.3606 38.3984 82.9825 38.4704 83.5835C39.4684 91.9505 42.7924 99.3516 48.3474 105.58C48.4544 105.698 48.5004 105.717 48.5004 105.717Z" fill="currentColor"/>
</g>
</g>
<g id="Group_14">
<path id="Vector_12" d="M57.1498 48.6927C56.7708 48.6927 56.4079 48.4758 56.2399 48.1078C55.8309 47.2118 53.4869 42.6727 47.4859 41.3097C47.0579 41.2117 46.7429 40.8468 46.7109 40.4098C46.6779 39.9718 46.9349 39.5627 47.3429 39.4037C47.6239 39.2947 54.2698 36.7475 59.7748 39.2315C62.4668 40.4485 64.4059 42.6458 65.5399 45.7638C65.7279 46.2838 65.4609 46.8568 64.9419 47.0448C64.4219 47.2348 63.8489 46.9656 63.6599 46.4466C62.7179 43.8536 61.1329 42.0396 58.9509 41.0536C56.3349 39.8706 53.3138 40.0495 51.1198 40.4505C55.7168 42.6175 57.6629 46.4077 58.0589 47.2757C58.2879 47.7777 58.0668 48.3717 57.5638 48.6007C57.4308 48.6627 57.2898 48.6927 57.1498 48.6927Z" fill="currentColor"/>
</g>
<g id="Group_15">
<path id="Vector_13" d="M57.233 48.8901C56.835 48.8901 56.4591 48.651 56.3041 48.258L56.238 48.1059C56.01 47.6039 56.232 47.0109 56.735 46.7829C57.237 46.5509 57.83 46.7759 58.059 47.2799C58.131 47.4389 58.166 47.529 58.166 47.529C58.364 48.043 58.109 48.6229 57.595 48.8229C57.477 48.8679 57.353 48.8901 57.233 48.8901Z" fill="currentColor"/>
</g>
</g>
<path id="islands" d="M13.9233 142.004C14.1307 142.004 14.3063 141.93 14.4502 141.782C14.5983 141.638 14.6724 141.462 14.6724 141.255V133.682C14.6724 133.475 14.5983 133.299 14.4502 133.155C14.3063 133.007 14.1307 132.933 13.9233 132.933C13.716 132.933 13.5404 133.007 13.3965 133.155C13.2484 133.299 13.1743 133.475 13.1743 133.682V141.255C13.1743 141.462 13.2484 141.638 13.3965 141.782C13.5404 141.93 13.716 142.004 13.9233 142.004ZM28.2894 139.293C28.319 138.65 28.1074 138.09 27.6546 137.611C27.1045 137.027 26.311 136.727 25.2742 136.71H25.2425C24.6246 136.701 24.1845 136.56 23.9222 136.285C23.7571 136.107 23.6788 135.908 23.6873 135.688C23.7042 135.328 23.8545 135.024 24.138 134.774C24.4257 134.524 24.7685 134.399 25.1663 134.399C25.5556 134.399 25.9005 134.469 26.201 134.609C26.5437 134.77 26.7532 134.992 26.8294 135.275C26.8802 135.474 26.9944 135.627 27.1722 135.732C27.3499 135.834 27.5382 135.859 27.7371 135.809C27.936 135.758 28.0862 135.644 28.1878 135.466C28.2936 135.288 28.3211 135.1 28.2703 134.901C28.0926 134.224 27.6757 133.708 27.0198 133.352C26.4739 133.056 25.8561 132.908 25.1663 132.908C24.3665 132.908 23.681 133.17 23.1097 133.695C22.5384 134.22 22.2358 134.863 22.202 135.625C22.1723 136.264 22.3839 136.824 22.8367 137.307C23.3868 137.886 24.1803 138.185 25.2171 138.202C25.2213 138.202 25.2256 138.202 25.2298 138.202C25.2213 138.202 25.2256 138.202 25.2425 138.202H25.2488C25.8667 138.21 26.3068 138.354 26.5691 138.633C26.7342 138.807 26.8125 139.004 26.804 139.224C26.7871 139.588 26.6347 139.892 26.347 140.138C26.0634 140.387 25.7228 140.512 25.325 140.512C24.9357 140.512 24.5887 140.442 24.284 140.303C23.9454 140.142 23.7381 139.92 23.6619 139.636C23.6111 139.437 23.4969 139.285 23.3191 139.179C23.1414 139.078 22.9531 139.052 22.7542 139.103C22.5553 139.154 22.403 139.268 22.2972 139.446C22.1956 139.624 22.1702 139.812 22.221 140.011C22.3987 140.688 22.8156 141.204 23.4715 141.56C24.0174 141.856 24.6352 142.004 25.325 142.004C26.1206 142.004 26.8061 141.742 27.3816 141.217C27.9529 140.692 28.2555 140.051 28.2894 139.293ZM36.6378 132.901C36.4304 132.901 36.2548 132.975 36.1109 133.124C35.9628 133.267 35.8888 133.443 35.8888 133.65V141.255C35.8888 141.462 35.9628 141.638 36.1109 141.782C36.2548 141.93 36.4304 142.004 36.6378 142.004H40.7447C40.9521 142.004 41.1298 141.93 41.2779 141.782C41.4218 141.638 41.4937 141.462 41.4937 141.255C41.4937 141.048 41.4218 140.872 41.2779 140.728C41.1298 140.58 40.9521 140.506 40.7447 140.506H37.3868V133.65C37.3868 133.443 37.3128 133.267 37.1646 133.124C37.0208 132.975 36.8451 132.901 36.6378 132.901ZM50.4008 138.576L51.6195 135.631L52.8446 138.576H50.4008ZM48.1981 141.947C48.2912 141.985 48.3865 142.004 48.4838 142.004C48.8181 142.004 49.0487 141.849 49.1757 141.541L49.7851 140.068H53.4604L54.0697 141.541C54.1967 141.849 54.4273 142.004 54.7616 142.004C54.859 142.004 54.9542 141.985 55.0473 141.947C55.2377 141.866 55.3731 141.731 55.4535 141.541C55.5297 141.35 55.5297 141.16 55.4535 140.969L54.6474 139.033C54.6474 139.033 54.6474 139.031 54.6474 139.027L52.3114 133.39C52.303 133.369 52.2924 133.348 52.2797 133.327C52.2797 133.322 52.2733 133.312 52.2606 133.295C52.2479 133.278 52.2416 133.267 52.2416 133.263C52.2416 133.259 52.2331 133.248 52.2162 133.231L52.1972 133.206C52.1972 133.202 52.1887 133.191 52.1718 133.174C52.1591 133.162 52.1527 133.153 52.1527 133.149C52.1443 133.145 52.1337 133.136 52.121 133.124C52.1083 133.111 52.0998 133.104 52.0956 133.104C52.0914 133.1 52.0808 133.092 52.0639 133.079C52.0469 133.066 52.0385 133.06 52.0385 133.06C52.0342 133.056 52.0215 133.047 52.0004 133.035C51.9792 133.022 51.9708 133.018 51.975 133.022C51.9327 132.997 51.8861 132.978 51.8354 132.965C51.8438 132.965 51.8354 132.963 51.81 132.958C51.7888 132.95 51.774 132.946 51.7655 132.946C51.7655 132.946 51.7549 132.944 51.7338 132.939C51.7084 132.935 51.6957 132.933 51.6957 132.933C51.6957 132.933 51.683 132.933 51.6576 132.933C51.6407 132.933 51.628 132.933 51.6195 132.933C51.6153 132.933 51.6047 132.933 51.5878 132.933C51.5666 132.933 51.5539 132.933 51.5497 132.933C51.5497 132.933 51.5391 132.935 51.518 132.939C51.4968 132.944 51.482 132.946 51.4735 132.946L51.4481 132.952C51.4228 132.961 51.4079 132.965 51.4037 132.965C51.3952 132.969 51.3804 132.973 51.3593 132.978C51.3339 132.99 51.3254 132.994 51.3339 132.99C51.3423 132.986 51.336 132.99 51.3148 133.003C51.2937 133.011 51.2789 133.018 51.2704 133.022C51.2662 133.022 51.2535 133.028 51.2323 133.041C51.2154 133.054 51.2069 133.06 51.2069 133.06C51.2027 133.064 51.1921 133.073 51.1752 133.085C51.154 133.098 51.1456 133.104 51.1498 133.104C51.1456 133.104 51.135 133.113 51.1181 133.13C51.1054 133.138 51.0969 133.145 51.0927 133.149C51.0927 133.153 51.0842 133.164 51.0673 133.181C51.0546 133.193 51.0482 133.202 51.0482 133.206C51.044 133.21 51.0355 133.219 51.0229 133.231C51.0102 133.248 51.0038 133.259 51.0038 133.263C50.9996 133.267 50.9911 133.278 50.9784 133.295C50.97 133.316 50.9657 133.327 50.9657 133.327C50.953 133.348 50.9424 133.369 50.934 133.39L48.598 139.027C48.598 139.031 48.598 139.033 48.598 139.033L47.7919 140.969C47.7157 141.16 47.7157 141.35 47.7919 141.541C47.8723 141.731 48.0077 141.866 48.1981 141.947ZM68.5563 141.718C68.569 141.735 68.5839 141.752 68.6008 141.769C68.6008 141.773 68.6008 141.775 68.6008 141.775C68.605 141.78 68.6071 141.782 68.6071 141.782C68.6241 141.799 68.6431 141.816 68.6643 141.833C68.6685 141.837 68.677 141.843 68.6896 141.852C68.7066 141.864 68.7214 141.875 68.7341 141.883C68.7383 141.888 68.7468 141.894 68.7595 141.902C68.7722 141.907 68.787 141.913 68.8039 141.921C68.8124 141.93 68.8208 141.934 68.8293 141.934C68.842 141.943 68.8589 141.949 68.8801 141.953C68.8928 141.962 68.9012 141.966 68.9055 141.966C68.9182 141.97 68.9351 141.974 68.9562 141.979C68.9774 141.987 68.9859 141.989 68.9816 141.985C68.9986 141.989 69.0197 141.993 69.0451 141.998C69.062 142.002 69.0663 142.002 69.0578 141.998C69.0874 142.002 69.1149 142.004 69.1403 142.004C69.1742 142.004 69.2102 142.002 69.2482 141.998C69.2609 141.993 69.2673 141.991 69.2673 141.991C69.3054 141.987 69.3413 141.979 69.3752 141.966C69.3667 141.97 69.371 141.968 69.3879 141.959C69.4217 141.947 69.4556 141.932 69.4895 141.915C69.4895 141.915 69.4916 141.915 69.4958 141.915C69.5254 141.898 69.5572 141.877 69.591 141.852C69.5952 141.847 69.5974 141.845 69.5974 141.845C69.6143 141.833 69.6164 141.83 69.6037 141.839C69.6122 141.835 69.6228 141.826 69.6354 141.813C69.6524 141.801 69.6608 141.792 69.6608 141.788C69.6651 141.788 69.6735 141.78 69.6862 141.763C69.6989 141.75 69.7074 141.742 69.7116 141.737C69.7116 141.737 69.718 141.729 69.7307 141.712C69.7434 141.695 69.7518 141.682 69.7561 141.674L69.7751 141.655C69.7836 141.638 69.7899 141.625 69.7941 141.617C69.7941 141.617 69.8005 141.606 69.8132 141.585C69.8216 141.564 69.8259 141.553 69.8259 141.553C69.8301 141.545 69.8343 141.532 69.8386 141.515C69.847 141.498 69.8513 141.488 69.8513 141.483C69.8555 141.479 69.8597 141.466 69.864 141.445C69.8682 141.424 69.8703 141.414 69.8703 141.414C69.8745 141.405 69.8767 141.392 69.8767 141.375C69.8809 141.359 69.883 141.346 69.883 141.337C69.883 141.333 69.883 141.323 69.883 141.306C69.8872 141.289 69.8894 141.276 69.8894 141.268V133.65C69.8894 133.443 69.8153 133.267 69.6672 133.124C69.5233 132.975 69.3477 132.901 69.1403 132.901C68.933 132.901 68.7552 132.975 68.6071 133.124C68.4632 133.267 68.3913 133.443 68.3913 133.65V139.071L63.8273 133.193C63.73 133.066 63.6052 132.98 63.4528 132.933C63.2963 132.887 63.1439 132.891 62.9958 132.946C62.8435 132.997 62.7207 133.088 62.6276 133.219C62.5345 133.346 62.488 133.49 62.488 133.65V141.255C62.488 141.462 62.562 141.638 62.7102 141.782C62.854 141.93 63.0297 142.004 63.237 142.004C63.4444 142.004 63.62 141.93 63.7639 141.782C63.912 141.638 63.986 141.462 63.986 141.255V135.84L68.55 141.712C68.55 141.716 68.55 141.718 68.55 141.718C68.55 141.718 68.5521 141.718 68.5563 141.718ZM79.3359 134.406H80.5039C81.3418 134.406 82.057 134.704 82.6494 135.301C83.2419 135.893 83.5381 136.606 83.5381 137.44C83.5381 138.278 83.2419 138.993 82.6494 139.585C82.057 140.178 81.3397 140.474 80.4976 140.474L79.3359 140.493V134.406ZM78.5933 142.004L80.5039 141.979C81.7565 141.979 82.8271 141.534 83.7158 140.646C84.6003 139.761 85.0425 138.693 85.0425 137.44C85.0425 136.192 84.6003 135.123 83.7158 134.234C82.8271 133.35 81.7565 132.908 80.5039 132.908H78.5806C78.3732 132.908 78.1976 132.98 78.0537 133.124C77.9056 133.272 77.8315 133.449 77.8315 133.657V141.255C77.8315 141.462 77.9056 141.64 78.0537 141.788C78.2018 141.932 78.3774 142.004 78.5806 142.004H78.5933ZM98.1644 139.293C98.194 138.65 97.9824 138.09 97.5296 137.611C96.9795 137.027 96.186 136.727 95.1492 136.71H95.1175C94.4996 136.701 94.0595 136.56 93.7972 136.285C93.6321 136.107 93.5538 135.908 93.5623 135.688C93.5792 135.328 93.7295 135.024 94.013 134.774C94.3007 134.524 94.6435 134.399 95.0413 134.399C95.4306 134.399 95.7755 134.469 96.076 134.609C96.4187 134.77 96.6282 134.992 96.7044 135.275C96.7552 135.474 96.8694 135.627 97.0472 135.732C97.2249 135.834 97.4132 135.859 97.6121 135.809C97.811 135.758 97.9612 135.644 98.0628 135.466C98.1686 135.288 98.1961 135.1 98.1453 134.901C97.9676 134.224 97.5507 133.708 96.8948 133.352C96.3489 133.056 95.7311 132.908 95.0413 132.908C94.2415 132.908 93.556 133.17 92.9847 133.695C92.4134 134.22 92.1108 134.863 92.077 135.625C92.0473 136.264 92.2589 136.824 92.7117 137.307C93.2618 137.886 94.0553 138.185 95.0921 138.202C95.0963 138.202 95.1006 138.202 95.1048 138.202C95.0963 138.202 95.1006 138.202 95.1175 138.202H95.1238C95.7417 138.21 96.1818 138.354 96.4441 138.633C96.6092 138.807 96.6875 139.004 96.679 139.224C96.6621 139.588 96.5097 139.892 96.222 140.138C95.9384 140.387 95.5978 140.512 95.2 140.512C94.8107 140.512 94.4637 140.442 94.159 140.303C93.8204 140.142 93.6131 139.92 93.5369 139.636C93.4861 139.437 93.3719 139.285 93.1941 139.179C93.0164 139.078 92.8281 139.052 92.6292 139.103C92.4303 139.154 92.278 139.268 92.1722 139.446C92.0706 139.624 92.0452 139.812 92.096 140.011C92.2737 140.688 92.6906 141.204 93.3465 141.56C93.8924 141.856 94.5102 142.004 95.2 142.004C95.9956 142.004 96.6811 141.742 97.2566 141.217C97.8279 140.692 98.1305 140.051 98.1644 139.293Z" fill="currentColor"/>
<g id="Vector_14">
<path d="M27.3644 44.2424C27.7678 43.2384 27.7818 42.2294 27.4062 41.2154C27.339 41.0369 27.2181 40.9083 27.0434 40.8297C26.8687 40.7511 26.6921 40.7454 26.5135 40.8125C26.3314 40.8782 26.201 40.9985 26.1223 41.1731C26.0437 41.3478 26.038 41.5245 26.1052 41.703C26.3565 42.3765 26.3468 43.0504 26.0758 43.7246C25.7889 44.4386 25.2898 44.9474 24.5784 45.2509C23.8671 45.5544 23.1544 45.5627 22.4403 45.2758C21.7227 44.9874 21.2121 44.4875 20.9086 43.7762C20.605 43.0648 20.5968 42.3521 20.8837 41.6381C21.1211 41.0473 21.5124 40.592 22.0577 40.2723C22.2196 40.1732 22.3254 40.0304 22.375 39.8441C22.4232 39.6614 22.3984 39.4872 22.3008 39.3217C22.2031 39.1562 22.0611 39.0486 21.8748 38.999C21.6906 38.9544 21.5165 38.9792 21.3524 39.0732C20.5348 39.5572 19.9491 40.2395 19.5952 41.1203C19.1655 42.1895 19.1783 43.2577 19.6336 44.3247C20.0867 45.3866 20.8497 46.1332 21.9225 46.5643C22.9918 46.994 24.0592 46.983 25.1248 46.5313C26.1882 46.0746 26.9347 45.3116 27.3644 44.2424Z" fill="currentColor"/>
<path d="M28.7497 34.7985L27.4112 32.1783L30.2136 33.0821L28.7497 34.7985ZM29.7976 38.3645C29.8801 38.3219 29.9505 38.2665 30.0088 38.1981C30.2091 37.9633 30.2388 37.7088 30.0978 37.4346L29.4286 36.1245L31.6301 33.5432L33.0294 33.9974C33.3224 34.0933 33.569 34.0238 33.7693 33.789C33.8276 33.7206 33.8713 33.6424 33.9003 33.5542C33.9579 33.3723 33.9439 33.196 33.8583 33.0255C33.7702 32.8579 33.6364 32.7439 33.4571 32.6833L31.6144 32.0898C31.6144 32.0898 31.613 32.0885 31.61 32.086L26.2519 30.3502C26.232 30.3434 26.2108 30.3382 26.1883 30.3344C26.1854 30.3319 26.1741 30.33 26.1546 30.3288C26.1351 30.3276 26.1239 30.3257 26.1209 30.3231C26.118 30.3206 26.1055 30.3202 26.0834 30.322L26.0542 30.3201C26.0512 30.3176 26.0387 30.3172 26.0167 30.319C26.0002 30.3203 25.9904 30.3197 25.9875 30.3171C25.9794 30.3205 25.9671 30.3229 25.9506 30.3242C25.9341 30.3255 25.9246 30.3277 25.922 30.3306C25.9165 30.3311 25.9042 30.3334 25.8852 30.3377C25.8661 30.342 25.8566 30.3441 25.8566 30.3441C25.8511 30.3446 25.8375 30.3484 25.816 30.3557C25.7944 30.3629 25.7863 30.3663 25.7918 30.3659C25.7486 30.3804 25.7074 30.4017 25.6681 30.4298C25.6731 30.4238 25.6666 30.4285 25.6484 30.4438C25.6298 30.4536 25.6179 30.4614 25.6129 30.4674C25.6129 30.4674 25.605 30.4736 25.5894 30.4859C25.5712 30.5012 25.5621 30.5088 25.5621 30.5088C25.5621 30.5088 25.5545 30.5177 25.5393 30.5356C25.5292 30.5475 25.5216 30.5564 25.5165 30.5623C25.514 30.5653 25.5076 30.5727 25.4975 30.5846C25.4848 30.5995 25.4772 30.6084 25.4747 30.6114C25.4747 30.6114 25.4698 30.6201 25.4601 30.6375C25.4504 30.6549 25.443 30.6665 25.438 30.6725L25.4272 30.6941C25.4179 30.717 25.412 30.7299 25.4095 30.7329C25.4074 30.7414 25.4015 30.7543 25.3918 30.7717C25.3855 30.7972 25.3834 30.8056 25.3855 30.7972C25.3876 30.7887 25.3868 30.7957 25.383 30.8181C25.3763 30.8381 25.3719 30.8523 25.3698 30.8608C25.3672 30.8637 25.3641 30.8764 25.3603 30.8989C25.3591 30.9184 25.3585 30.9281 25.3585 30.9281C25.3589 30.9337 25.3585 30.9462 25.3573 30.9656C25.3536 30.9881 25.353 30.9979 25.3555 30.9949C25.353 30.9979 25.3526 31.0104 25.3543 31.0324C25.3527 31.0464 25.352 31.0561 25.3525 31.0616C25.3554 31.0642 25.3578 31.0764 25.3596 31.0985C25.3609 31.115 25.363 31.1245 25.366 31.1271C25.3664 31.1326 25.3673 31.1436 25.3686 31.1601C25.3729 31.1791 25.3765 31.1899 25.3795 31.1925C25.3799 31.198 25.3823 31.2103 25.3866 31.2293C25.3964 31.2479 25.4013 31.2573 25.4013 31.2573C25.4085 31.2788 25.417 31.2989 25.4268 31.3176L27.9864 36.3346C27.9894 36.3371 27.9909 36.3384 27.9909 36.3384L28.8677 38.0643C28.9558 38.2318 29.0896 38.3459 29.2689 38.4065C29.4509 38.4641 29.6271 38.4501 29.7976 38.3645Z" fill="currentColor"/>
<path d="M35.0035 26.0672L33.898 24.2502L35.3796 23.3487C35.6699 23.172 35.9723 23.1092 36.2869 23.1601C36.6014 23.2111 36.8358 23.3634 36.9901 23.617C37.1383 23.8606 37.1678 24.1308 37.0785 24.4274C36.9839 24.7228 36.7995 24.9608 36.5252 25.1413L35.0035 26.0672ZM38.1664 22.9013C37.8151 22.324 37.2971 21.9648 36.6122 21.8236C35.9307 21.6805 35.2812 21.7967 34.6639 22.1723L32.5915 23.4333C32.4314 23.5307 32.3284 23.6734 32.2827 23.8613C32.2383 24.0438 32.2658 24.2168 32.3653 24.3803L35.9958 30.3469C36.0932 30.5071 36.2342 30.6111 36.4188 30.6589C36.6046 30.7012 36.7776 30.6737 36.9378 30.5762C37.1013 30.4768 37.2053 30.3358 37.2497 30.1533C37.2954 29.9654 37.2695 29.7914 37.1721 29.6312L35.7193 27.2435L36.7354 26.6253L39.6975 28.5061C39.9382 28.6614 40.1804 28.6649 40.4241 28.5167C40.5142 28.4619 40.5887 28.3891 40.6478 28.2983C40.75 28.1355 40.7794 27.9621 40.736 27.7782C40.696 27.5922 40.5973 27.4488 40.4399 27.3479L37.9026 25.7367C38.2417 25.3246 38.4355 24.8615 38.4839 24.3474C38.5403 23.8238 38.4344 23.3418 38.1664 22.9013Z" fill="currentColor"/>
<path d="M45.7892 25.9662C45.9729 25.9126 46.1095 25.8017 46.1987 25.6333C46.2928 25.4675 46.3131 25.2927 46.2596 25.109L44.304 18.3978C44.2505 18.2141 44.1395 18.0776 43.9711 17.9883C43.8053 17.8942 43.6305 17.8739 43.4468 17.9275C43.263 17.981 43.1265 18.092 43.0372 18.2604C42.9431 18.4262 42.9228 18.6009 42.9764 18.7847L44.932 25.4958C44.9855 25.6796 45.0965 25.8161 45.2649 25.9054C45.4307 25.9995 45.6054 26.0197 45.7892 25.9662Z" fill="currentColor"/>
<path d="M52.1839 20.8668L53.9532 20.8356C53.9844 20.8351 54.0157 20.8345 54.0469 20.834C54.0625 20.8337 54.0801 20.8334 54.0996 20.833C54.4433 20.827 54.7361 20.9234 54.9779 21.1223C55.2197 21.3173 55.3431 21.5593 55.3482 21.8483C55.3534 22.1451 55.2368 22.3992 54.9982 22.6105C54.7598 22.8256 54.4687 22.9362 54.125 22.9423L52.2211 22.9758L52.1839 20.8668ZM52.1221 17.3575L53.8912 17.3147C54.2349 17.3086 54.5276 17.405 54.7695 17.6039C55.0112 17.7989 55.1347 18.0429 55.1398 18.3358C55.145 18.6326 55.0285 18.8925 54.7902 19.1155C54.5479 19.3347 54.2608 19.4472 53.9288 19.453L52.1596 19.4842L52.1221 17.3575ZM54.1494 24.3249C54.8719 24.3122 55.4848 24.0611 55.988 23.5717C56.4951 23.0822 56.7427 22.4997 56.7308 21.824C56.7179 21.0936 56.4183 20.4953 55.8318 20.029C56.3038 19.5401 56.534 18.9676 56.5224 18.3115C56.5105 17.6319 56.2484 17.0622 55.7364 16.6024C55.2204 16.1426 54.5952 15.9192 53.861 15.9322L51.4006 15.9872C51.2132 15.9944 51.0523 16.0656 50.918 16.2008C50.7876 16.3398 50.7241 16.5031 50.7274 16.6906L50.8506 23.6914C50.854 23.8828 50.9252 24.0437 51.0642 24.1741C51.1994 24.3084 51.3627 24.3739 51.5541 24.3706L54.1494 24.3249Z" fill="currentColor"/>
<path d="M63.1323 21.4847L64.82 22.0165C64.8498 22.0259 64.8796 22.0353 64.9094 22.0447C64.9243 22.0494 64.9411 22.0546 64.9597 22.0605C65.2876 22.1638 65.5346 22.3481 65.7009 22.6135C65.8683 22.8751 65.9085 23.1438 65.8217 23.4195C65.7324 23.7026 65.5412 23.9065 65.248 24.0312C64.9536 24.1596 64.6425 24.1722 64.3146 24.0689L62.4984 23.4966L63.1323 21.4847ZM64.1871 18.1372L65.8783 18.6578C66.2062 18.7611 66.4532 18.9454 66.6194 19.2108C66.7868 19.4724 66.8265 19.7429 66.7385 20.0223C66.6493 20.3055 66.4563 20.515 66.1595 20.6508C65.8603 20.7818 65.5523 20.7974 65.2356 20.6976L63.5479 20.1658L64.1871 18.1372ZM63.8991 25.3877C64.5883 25.6049 65.2492 25.5613 65.8816 25.2568C66.5178 24.9535 66.9374 24.4796 67.1405 23.835C67.3601 23.1383 67.2657 22.4758 66.8576 21.8476C67.4602 21.5337 67.8601 21.0638 68.0574 20.4379C68.2616 19.7896 68.1939 19.1662 67.8541 18.5677C67.5107 17.968 66.9887 17.5578 66.2883 17.3371L63.9376 16.6087C63.7576 16.5561 63.5824 16.5726 63.4121 16.6582C63.2444 16.7487 63.1323 16.8833 63.076 17.0622L60.9717 23.7404C60.9142 23.923 60.9307 24.0982 61.0211 24.2659C61.1067 24.4362 61.2408 24.5501 61.4234 24.6077L63.8991 25.3877Z" fill="currentColor"/>
<path d="M71.9717 27.2318L73.1958 25.4924L75.285 26.9625C75.4416 27.0727 75.614 27.1128 75.8022 27.0828C75.9927 27.0497 76.143 26.9549 76.2532 26.7983C76.3633 26.6418 76.4018 26.4683 76.3687 26.2778C76.3333 26.0905 76.2373 25.9418 76.0808 25.8316L73.9915 24.3615L75.2155 22.622L78.1031 24.6682L78.1079 24.6716C78.2644 24.7817 78.4363 24.8191 78.6236 24.7837C78.8119 24.7538 78.9611 24.6606 79.0712 24.504C79.1814 24.3475 79.2215 24.1751 79.1915 23.9869C79.1584 23.7964 79.0636 23.646 78.907 23.5359L75.4492 21.0884L75.4444 21.0851C75.2879 20.9749 75.116 20.9375 74.9287 20.9729C74.7404 21.0028 74.5901 21.0977 74.4777 21.2574L70.4348 27.0029C70.3247 27.1595 70.2873 27.3314 70.3227 27.5187C70.3526 27.7069 70.4458 27.8561 70.6024 27.9663L74.0717 30.4075C74.2283 30.5177 74.4002 30.555 74.5875 30.5197C74.7757 30.4897 74.9249 30.3965 75.0351 30.24C75.1452 30.0834 75.1837 29.9099 75.1506 29.7194C75.1206 29.5312 75.0274 29.382 74.8709 29.2718L71.9717 27.2318Z" fill="currentColor"/>
<path d="M80.8629 32.3088L83.7066 31.5533L82.2318 34.1019L80.8629 32.3088ZM77.1561 32.5807C77.1803 32.6703 77.2197 32.7509 77.2742 32.8223C77.4615 33.0676 77.704 33.1503 78.0017 33.0704L79.4236 32.6926L81.4822 35.3892L80.743 36.6612C80.5875 36.9273 80.6033 37.1831 80.7906 37.4284C80.8451 37.4998 80.9124 37.559 80.9925 37.6059C81.1582 37.7006 81.3334 37.7241 81.5181 37.6765C81.7005 37.6257 81.8402 37.519 81.9373 37.3565L82.9062 35.6806C82.9062 35.6806 82.9078 35.6794 82.9109 35.677L85.7382 30.8058C85.7489 30.7878 85.7585 30.7681 85.767 30.747C85.7701 30.7446 85.7743 30.734 85.7796 30.7152C85.7849 30.6964 85.7891 30.6858 85.7922 30.6835C85.7953 30.6811 85.7983 30.669 85.8013 30.6471L85.8092 30.6189C85.8123 30.6165 85.8153 30.6044 85.8183 30.5825C85.8205 30.566 85.8231 30.5566 85.8262 30.5543C85.8246 30.5457 85.8249 30.5332 85.8271 30.5168C85.8293 30.5003 85.8292 30.4906 85.8269 30.4875C85.8276 30.482 85.8279 30.4695 85.8277 30.45C85.8275 30.4304 85.8274 30.4207 85.8274 30.4207C85.8282 30.4152 85.8273 30.4011 85.8247 30.3785C85.8222 30.3559 85.8206 30.3473 85.8198 30.3528C85.8148 30.3075 85.8027 30.2627 85.7835 30.2183C85.7883 30.2245 85.7851 30.2171 85.774 30.1961C85.7683 30.1758 85.7631 30.1626 85.7584 30.1564C85.7584 30.1564 85.754 30.1475 85.7453 30.1296C85.7342 30.1086 85.7286 30.0981 85.7286 30.0981C85.7286 30.0981 85.7215 30.0887 85.7073 30.0701C85.6978 30.0577 85.6907 30.0484 85.6859 30.0422C85.6836 30.0391 85.6776 30.0313 85.6682 30.0189C85.6563 30.0034 85.6492 29.994 85.6468 29.9909C85.6468 29.9909 85.6393 29.9844 85.6244 29.9712C85.6094 29.9581 85.5996 29.9484 85.5948 29.9422L85.576 29.9271C85.5555 29.9132 85.5441 29.9047 85.5418 29.9016C85.5339 29.8978 85.5225 29.8893 85.5076 29.8761C85.484 29.8646 85.4762 29.8608 85.484 29.8646C85.4919 29.8684 85.4852 29.8661 85.464 29.8577C85.446 29.8469 85.433 29.8396 85.4252 29.8358C85.4228 29.8327 85.411 29.8269 85.3899 29.8185C85.3711 29.8132 85.3617 29.8106 85.3617 29.8106C85.3562 29.8098 85.3441 29.8068 85.3253 29.8015C85.3041 29.7931 85.2947 29.7904 85.2971 29.7935C85.2947 29.7904 85.2826 29.7874 85.2607 29.7845C85.2473 29.7799 85.238 29.7772 85.2325 29.7765C85.2294 29.7789 85.2169 29.7786 85.195 29.7756C85.1785 29.7734 85.1688 29.7735 85.1657 29.7759C85.1602 29.7752 85.1492 29.7737 85.1328 29.7715C85.1133 29.7717 85.102 29.7729 85.0989 29.7753C85.0934 29.7746 85.0809 29.7743 85.0614 29.7744C85.0411 29.7801 85.031 29.7829 85.031 29.7829C85.0083 29.7854 84.9869 29.7895 84.9666 29.7952L79.5225 31.2386C79.5194 31.2409 79.5178 31.2421 79.5178 31.2421L77.6458 31.7351C77.4634 31.7859 77.3237 31.8925 77.2266 32.0551C77.132 32.2207 77.1084 32.3959 77.1561 32.5807Z" fill="currentColor"/>
<path d="M85.0368 45.753C85.0256 45.769 85.015 45.7869 85.005 45.8066C85.0013 45.8078 84.9995 45.8084 84.9995 45.8084C84.997 45.8133 84.9957 45.8158 84.9957 45.8158C84.9857 45.8355 84.9764 45.8571 84.9676 45.8805C84.9651 45.8854 84.962 45.8947 84.9582 45.9083C84.9519 45.9268 84.9469 45.9428 84.9431 45.9564C84.9406 45.9613 84.9375 45.9705 84.9337 45.9841C84.9337 45.9965 84.9324 46.0113 84.9298 46.0286C84.9248 46.0384 84.9235 46.0471 84.926 46.0545C84.9222 46.068 84.9215 46.0847 84.9239 46.1045C84.9201 46.1181 84.9188 46.1267 84.92 46.1304C84.92 46.1428 84.9211 46.1588 84.9235 46.1786C84.9221 46.1996 84.9227 46.2076 84.9252 46.2027C84.9264 46.2188 84.9287 46.2385 84.9323 46.262C84.9335 46.2781 84.9347 46.2818 84.936 46.2732C84.9408 46.3004 84.9468 46.3251 84.9541 46.3474C84.9639 46.3771 84.9761 46.408 84.9907 46.4402C84.9981 46.4501 85.0018 46.4551 85.0018 46.4551C85.0164 46.4873 85.0342 46.5164 85.0551 46.5424C85.0489 46.5362 85.052 46.5393 85.0643 46.5518C85.0851 46.5778 85.1079 46.6032 85.1324 46.6281C85.1324 46.6281 85.1331 46.6299 85.1343 46.6336C85.1576 46.6548 85.1853 46.6765 85.2173 46.6989C85.2223 46.7014 85.2247 46.7027 85.2247 46.7027C85.2407 46.7139 85.2432 46.7151 85.2321 46.7064C85.2383 46.7126 85.2487 46.7195 85.2635 46.7269C85.2795 46.7381 85.2894 46.7431 85.2931 46.7419C85.2943 46.7456 85.3041 46.7506 85.3226 46.7569C85.3374 46.7644 85.3473 46.7694 85.3522 46.7719C85.3522 46.7719 85.3615 46.775 85.38 46.7813C85.3985 46.7875 85.412 46.7913 85.4207 46.7926L85.4428 46.8038C85.4601 46.8064 85.4731 46.8083 85.4817 46.8096C85.4817 46.8096 85.4928 46.8121 85.515 46.8172C85.536 46.8185 85.5465 46.8192 85.5465 46.8192C85.5552 46.8204 85.5675 46.8205 85.5836 46.8193C85.6009 46.8219 85.6114 46.8226 85.6151 46.8214C85.62 46.8239 85.6324 46.8239 85.6521 46.8216C85.6719 46.8192 85.6818 46.818 85.6818 46.818C85.6904 46.8193 85.7022 46.8175 85.717 46.8126C85.7331 46.8115 85.7448 46.8097 85.7523 46.8072C85.756 46.806 85.7653 46.803 85.7801 46.7981C85.7962 46.797 85.8079 46.7952 85.8153 46.7927L92.4969 44.603C92.6788 44.5434 92.8116 44.4279 92.8952 44.2567C92.9838 44.0879 92.9982 43.9125 92.9386 43.7306C92.879 43.5488 92.763 43.4141 92.5905 43.3268C92.4229 43.242 92.2482 43.2293 92.0663 43.2889L87.3112 44.8473L91.1552 39.1542C91.2385 39.0323 91.2787 38.8979 91.2758 38.7509C91.2716 38.6001 91.2241 38.4677 91.1333 38.3536C91.0449 38.2346 90.9298 38.1531 90.788 38.1091C90.6499 38.064 90.5103 38.0645 90.3692 38.1107L83.6988 40.2968C83.5169 40.3564 83.3841 40.4719 83.3005 40.6431C83.2119 40.8119 83.1975 40.9873 83.2571 41.1692C83.3167 41.351 83.4321 41.4838 83.6034 41.5674C83.7722 41.656 83.9475 41.6705 84.1294 41.6109L88.8789 40.0543L85.0406 45.7456C85.0368 45.7468 85.035 45.7474 85.035 45.7474C85.035 45.7474 85.0356 45.7493 85.0368 45.753Z" fill="currentColor"/>
</g>
<path id="06 12" d="M86.9512 84.3594C86.9512 84.6768 86.839 84.9476 86.6147 85.1719C86.3862 85.3962 86.1133 85.5083 85.7959 85.5083C85.4785 85.5083 85.2077 85.3962 84.9834 85.1719C84.7591 84.9476 84.647 84.6768 84.647 84.3594V80.5635C84.647 80.2461 84.7591 79.9731 84.9834 79.7446C85.2077 79.5203 85.4785 79.4082 85.7959 79.4082C86.1133 79.4082 86.3862 79.5203 86.6147 79.7446C86.839 79.9731 86.9512 80.2461 86.9512 80.5635V84.3594ZM85.7959 77.9165C85.068 77.9165 84.446 78.1746 83.9297 78.6909C83.4134 79.2072 83.1553 79.8314 83.1553 80.5635V84.3594C83.1553 85.0872 83.4134 85.7093 83.9297 86.2256C84.446 86.7419 85.068 87 85.7959 87C86.528 87 87.1522 86.7419 87.6685 86.2256C88.1847 85.7093 88.4429 85.0872 88.4429 84.3594V80.5635C88.4429 79.8314 88.1847 79.2072 87.6685 78.6909C87.1522 78.1746 86.528 77.9165 85.7959 77.9165ZM93.3623 85.502C93.0449 85.502 92.772 85.3898 92.5435 85.1655C92.3192 84.937 92.207 84.6641 92.207 84.3467C92.207 84.0293 92.3192 83.7563 92.5435 83.5278C92.772 83.3035 93.0449 83.1914 93.3623 83.1914C93.6797 83.1914 93.9526 83.3035 94.1812 83.5278C94.4054 83.7563 94.5176 84.0293 94.5176 84.3467C94.5176 84.6641 94.4054 84.937 94.1812 85.1655C93.9526 85.3898 93.6797 85.502 93.3623 85.502ZM93.3623 81.6934C93.265 81.6934 93.1676 81.6997 93.0703 81.7124L94.0669 78.894C94.1346 78.6951 94.124 78.5026 94.0352 78.3164C93.9463 78.1302 93.8045 78.0033 93.6099 77.9355C93.4152 77.8678 93.2248 77.8784 93.0386 77.9673C92.8524 78.0562 92.7254 78.1979 92.6577 78.3926L90.874 83.4263C90.874 83.4305 90.8698 83.4411 90.8613 83.458L90.855 83.4834C90.855 83.4792 90.8529 83.4834 90.8486 83.4961C90.7555 83.7712 90.709 84.0547 90.709 84.3467C90.709 85.0788 90.9692 85.703 91.4897 86.2192C92.006 86.7397 92.6302 87 93.3623 87C94.0944 87 94.7186 86.7397 95.2349 86.2192C95.7554 85.703 96.0156 85.0788 96.0156 84.3467C96.0156 83.6146 95.7554 82.9904 95.2349 82.4741C94.7186 81.9536 94.0944 81.6934 93.3623 81.6934ZM85.5039 94.7446V101.251C85.5039 101.458 85.578 101.634 85.7261 101.778C85.87 101.926 86.0456 102 86.2529 102C86.4603 102 86.638 101.926 86.7861 101.778C86.93 101.634 87.002 101.458 87.002 101.251V93.6782C87.002 93.4201 86.8962 93.217 86.6846 93.0688C86.473 92.9207 86.2445 92.889 85.999 92.9736L84.0439 93.6846C83.8493 93.7565 83.7075 93.8856 83.6187 94.0718C83.534 94.258 83.5256 94.4484 83.5933 94.6431C83.6652 94.8377 83.7943 94.9795 83.9805 95.0684C84.1667 95.153 84.3571 95.1615 84.5518 95.0938L85.5039 94.7446ZM96.0537 101.251C96.0537 101.044 95.9797 100.866 95.8315 100.718C95.6877 100.574 95.512 100.502 95.3047 100.502H92.9053L95.5269 96.6934C95.5522 96.6553 95.5734 96.6151 95.5903 96.5728C95.7427 96.2342 95.8188 95.8787 95.8188 95.5063C95.8188 94.7827 95.5628 94.1649 95.0508 93.6528C94.5387 93.1408 93.9209 92.8848 93.1973 92.8848C92.4779 92.8848 91.8621 93.1408 91.3501 93.6528C90.8381 94.1649 90.582 94.7827 90.582 95.5063C90.582 95.5614 90.5841 95.6185 90.5884 95.6777C90.6011 95.8851 90.6857 96.0565 90.8423 96.1919C90.9946 96.3273 91.1745 96.3887 91.3818 96.376C91.5892 96.3633 91.7606 96.2786 91.896 96.1221C92.0356 95.9697 92.0991 95.7899 92.0864 95.5825C92.0822 95.5571 92.0801 95.5317 92.0801 95.5063C92.0801 95.1974 92.1901 94.9329 92.4102 94.7129C92.6302 94.4971 92.8926 94.3892 93.1973 94.3892C93.5062 94.3892 93.7707 94.4971 93.9907 94.7129C94.2108 94.9329 94.3208 95.1974 94.3208 95.5063C94.3208 95.646 94.2954 95.7793 94.2446 95.9062L90.8613 100.826C90.6921 101.075 90.6772 101.333 90.8169 101.6C90.9565 101.867 91.1766 102 91.4771 102H95.3047C95.512 102 95.6877 101.926 95.8315 101.778C95.9797 101.634 96.0537 101.458 96.0537 101.251Z" fill="currentColor"/>
</g>
</svg>
