<svg width="132" height="178" viewBox="0 0 132 178" fill="none" xmlns="http://www.w3.org/2000/svg">
<path d="M69.5257 122.684C69.4407 122.684 69.3547 122.673 69.2707 122.651C68.9667 122.571 68.7187 122.353 68.5997 122.063L67.2197 118.69C67.0377 118.246 67.1987 117.734 67.6007 117.473L67.7638 117.364C67.9318 117.25 68.1157 117.126 68.3077 117.02C69.5807 116.318 70.2868 115.639 70.3528 115.058C70.4158 114.489 69.8967 113.697 68.8507 112.769L68.6068 112.551C67.6398 111.69 66.6417 110.799 65.5747 110.35C64.9737 110.097 64.1748 109.927 63.5828 109.927C63.1868 109.927 62.9998 110 62.9608 110.029C62.8638 110.2 62.8657 111.044 62.8667 111.548C62.8677 112.021 62.8687 112.509 62.8147 112.965L62.7617 113.445C62.6837 114.184 62.6037 114.947 62.3287 115.695C62.0207 116.54 60.8827 116.764 60.3227 116.764C60.1537 116.764 59.9957 116.745 59.8507 116.71C59.1637 116.537 58.1497 115.66 58.1827 114.729C58.2027 114.146 58.1507 113.531 58.0957 112.879C57.9477 111.105 57.7677 108.97 59.2927 107.213C58.8607 107.188 58.4608 107.205 58.1968 107.293L57.8667 107.403C55.7147 108.122 54.8767 108.308 53.3917 107.726C53.2087 110.53 50.6527 111.581 48.8607 112.317C47.7567 112.772 47.4288 113.424 47.6118 114.809C47.7948 116.195 47.2187 117.847 46.0737 119.227C44.9857 120.539 43.6088 121.332 42.2948 121.405C41.5098 121.448 40.7167 121.475 39.9227 121.475C38.1937 121.475 36.6658 121.351 35.2538 121.098C32.3678 120.578 30.7007 118.391 30.7927 115.246C30.8697 112.635 31.0248 110.294 31.2698 108.091C31.3698 107.192 32.0478 105.987 32.9718 105.611C34.9308 104.812 36.5827 104.44 38.1727 104.44C39.7997 104.44 41.3537 104.857 42.7887 105.68C43.3667 106.012 43.6758 106.117 43.8258 106.149C43.8758 106.007 43.9518 105.687 43.9768 105.008C44.0388 103.309 43.8387 101.996 43.3797 101.107C42.8087 99.9977 41.9358 99.7306 40.7268 99.3596C40.0008 99.1366 39.1798 98.8847 38.3988 98.3997C38.0108 98.1587 37.5507 97.8066 37.4277 97.2096C37.3047 96.6136 37.5797 96.1146 37.8657 95.7046C38.2027 95.2196 40.1437 93.2026 41.3557 93.0936C41.9177 93.0426 42.4807 93.1326 43.0017 93.2196C43.5007 93.3026 43.9747 93.3687 44.2617 93.2957C44.8057 93.1567 45.5428 92.6907 45.7788 92.4347C45.7998 90.5517 46.9718 89.7776 47.9198 89.1516L48.0458 89.0686C49.7168 87.9576 51.2118 86.9407 52.5718 85.7537C52.9868 85.3907 53.2567 84.3876 53.3717 83.9596C54.4187 80.0626 55.1158 79.5037 59.1138 79.3627C59.3918 79.3527 59.6708 79.3496 59.9608 79.3496L60.1448 79.3506C59.0928 76.3796 57.9137 72.7447 62.9067 70.6127C63.4097 70.3967 63.9988 70.6296 64.2178 71.1346C64.2758 71.2686 64.3467 71.4037 64.4167 71.5397C64.6287 71.9457 64.8677 72.4066 64.9387 72.9596C65.1377 74.5166 65.4868 75.0017 66.5618 75.2177C67.5318 75.4127 68.0637 76.5056 68.4857 77.5146C69.0547 78.8816 69.6757 79.0657 70.2087 79.0657C70.4077 79.0657 70.6318 79.0357 70.8738 78.9777C71.0908 78.9247 71.3217 78.9026 71.5527 78.8846C71.6767 78.8756 71.8638 78.8616 71.9208 78.8386C74.5128 77.3176 77.0737 76.8446 79.8447 77.4056L79.8328 77.2596C79.7438 76.1476 79.6637 75.1476 79.5997 74.1456C79.4697 72.1326 79.7207 70.9467 80.4387 70.1807C80.9437 69.6417 81.6537 69.3687 82.5477 69.3687C83.2537 69.3687 84.1028 69.5316 85.2168 69.8796C85.2648 69.8946 85.3128 69.9086 85.3618 69.9226C85.5318 69.2156 85.0918 68.8816 84.0668 68.2096C83.5638 67.8786 83.0437 67.5376 82.6257 67.0746C82.2867 66.6986 82.2827 66.1276 82.6167 65.7466C83.9077 64.2716 85.4678 64.1017 86.5288 64.1017C86.9618 64.1017 87.3987 64.1326 87.8337 64.1636C88.2167 64.1916 88.5967 64.2196 88.9707 64.2196C89.9327 64.2196 90.7717 65.2416 90.9697 65.9756L91.1577 66.6506C91.4987 67.8506 91.8498 69.0907 91.7578 70.3727C91.6358 72.0707 92.0787 72.9787 93.3397 73.6127C96.4177 75.1597 97.6927 77.5386 97.1257 80.6836C96.8837 82.0206 97.4268 82.8846 99.2748 84.1056C100.68 85.0336 102.004 86.0927 103.284 87.1177C103.939 87.6427 104.595 88.1677 105.262 88.6757C105.56 88.9027 105.855 89.1627 106.152 89.4257C106.748 89.9527 107.364 90.4986 107.871 90.5796C110.636 91.0236 112.065 92.5336 112.652 95.6266C112.742 96.0976 112.484 96.5667 112.038 96.7427C111.54 96.9397 111.03 97.1697 110.509 97.4047C109.19 97.9997 107.825 98.6137 106.323 98.8987C104.808 99.1857 104.048 99.9516 103.609 101.631C103.325 102.716 102.922 104.257 101.055 104.257C100.909 104.257 100.75 104.246 100.579 104.224C98.0617 103.89 97.6498 102.178 97.7478 100.801C97.7508 100.67 97.6478 100.386 97.5408 100.195C97.3698 100.277 97.0587 100.458 96.7247 100.76C96.5127 100.95 96.3118 101.36 96.3008 101.618C96.1858 104.394 94.3948 105.543 92.8478 106.234C92.5478 106.389 92.0267 107.407 92.0897 107.838C92.6117 111.382 89.7038 112.098 88.7488 112.334C87.5088 112.639 86.2428 112.776 85.0198 112.91C84.7748 112.936 84.5298 112.963 84.2858 112.991C84.1168 116.134 83.7878 118 80.7648 118C80.2488 118 79.6628 117.958 78.9418 117.894C78.5038 117.855 78.1418 117.535 78.0508 117.104C77.9018 116.395 77.7548 115.674 77.6078 114.946C77.2138 113.001 76.8067 110.99 76.2987 109.026C76.2037 108.655 75.7637 108.135 75.1527 107.669C73.3427 106.289 71.4437 104.95 69.5067 103.69C69.2327 103.511 68.8517 103.396 68.4397 103.284C68.3227 103.591 68.1838 103.979 68.2178 104.132C68.7958 106.75 69.9328 108.173 71.9048 108.746C72.5768 108.941 73.1787 109.247 73.7617 109.543L73.8998 109.613C74.9958 110.167 76.1618 110.895 76.4988 112.098C76.8298 113.282 76.2418 114.454 75.6238 115.446C74.3478 117.49 73.2568 119.193 72.0808 120.86C71.7208 121.371 71.2257 121.711 70.7467 122.039C70.5527 122.172 70.3497 122.311 70.1477 122.47C69.9667 122.61 69.7477 122.684 69.5257 122.684ZM69.3888 118.708L69.9737 120.137C70.1767 119.988 70.3427 119.848 70.4427 119.707C71.5927 118.078 72.6657 116.403 73.9227 114.388C74.4437 113.554 74.6597 112.965 74.5687 112.638C74.4727 112.295 73.9437 111.879 72.9947 111.399L72.8537 111.328C72.3307 111.062 71.8348 110.811 71.3428 110.668C68.6588 109.888 66.9967 107.892 66.2617 104.566C66.0917 103.801 66.3717 103.077 66.6197 102.439C66.7027 102.224 66.7877 102.01 66.8447 101.801C66.9167 101.535 67.0967 101.311 67.3397 101.181C67.5827 101.052 67.8687 101.029 68.1297 101.117C68.3467 101.19 68.5717 101.25 68.7967 101.311C69.3707 101.466 70.0207 101.641 70.5957 102.016C72.5747 103.304 74.5148 104.672 76.3638 106.082C77.0668 106.619 77.9638 107.478 78.2338 108.529C78.7548 110.545 79.1678 112.582 79.5668 114.551C79.6628 115.026 79.7577 115.497 79.8537 115.965C80.1807 115.988 80.4937 116.004 80.7627 116.004C82.0097 116.004 82.1407 116.004 82.3277 112.058C82.3507 111.576 82.7157 111.179 83.1937 111.114C83.7257 111.042 84.2628 110.984 84.8008 110.926C86.0128 110.794 87.1578 110.669 88.2698 110.396C89.8578 110.005 90.3037 109.456 90.1097 108.134C89.9357 106.949 90.8048 104.96 92.0298 104.412C93.6488 103.689 94.2428 102.937 94.3008 101.539C94.3338 100.741 94.7687 99.8327 95.3817 99.2787C95.8037 98.8977 97.0357 97.9696 98.0797 98.1896C99.1227 98.4096 99.8067 100.013 99.7397 100.944C99.6757 101.863 99.8907 102.118 100.841 102.244C100.916 102.254 100.987 102.26 101.052 102.26C101.307 102.26 101.375 102.26 101.654 101.195C102.071 99.6006 102.948 97.5056 105.949 96.9366C107.218 96.6966 108.472 96.1306 109.685 95.5846C109.961 95.4596 110.234 95.3376 110.504 95.2196C109.971 93.3176 109.025 92.7946 107.551 92.5576C106.471 92.3846 105.596 91.6096 104.823 90.9266C104.564 90.6976 104.307 90.4686 104.047 90.2706C103.368 89.7526 102.699 89.2186 102.031 88.6836C100.787 87.6866 99.4997 86.6567 98.1717 85.7797C97.0117 85.0127 94.5988 83.4186 95.1548 80.3336C95.5678 78.0426 94.7557 76.5687 92.4387 75.4047C90.4587 74.4087 89.5827 72.7176 89.7607 70.2336C89.8277 69.3026 89.5248 68.2347 89.2318 67.2017C89.1658 66.9667 89.0987 66.7326 89.0367 66.5016C89.0127 66.4366 88.9107 66.3036 88.8277 66.2236C88.4307 66.2166 88.0588 66.1906 87.6868 66.1636C86.7148 66.0926 85.7437 66.0126 84.9547 66.4066C85.0227 66.4516 85.0927 66.4966 85.1627 66.5426C86.3687 67.3346 88.3867 68.6586 86.8287 71.5836C86.6107 71.9936 86.1437 72.2007 85.6897 72.0807L85.3828 72.0027C85.1308 71.9407 84.8718 71.8757 84.6178 71.7947C83.7148 71.5127 83.0368 71.3756 82.5458 71.3756C82.0648 71.3756 81.9367 71.5117 81.8957 71.5557C81.6987 71.7657 81.4867 72.3647 81.5937 74.0247C81.6567 75.0167 81.7367 76.0056 81.8247 77.1056L81.9477 78.6587C81.9727 78.9917 81.8317 79.3156 81.5697 79.5216C81.3067 79.7286 80.9587 79.7896 80.6417 79.6876C77.8967 78.7966 75.4907 79.0696 72.9117 80.5796C72.4937 80.8246 72.0567 80.8586 71.7037 80.8856C71.5817 80.8956 71.4577 80.9006 71.3437 80.9276C69.1827 81.4496 67.5788 80.5496 66.6388 78.2916C66.3218 77.5326 66.1357 77.2577 66.0467 77.1597C63.3807 76.5597 63.0927 74.3096 62.9527 73.2206C62.9397 73.1216 62.8978 73.0036 62.8428 72.8766C60.5748 74.1936 61.0467 75.9186 62.0887 78.8596C62.2307 79.2566 62.3707 79.6556 62.5007 80.0536C62.6007 80.3586 62.5487 80.6917 62.3597 80.9507C62.1717 81.2107 61.8708 81.3636 61.5498 81.3636L59.9587 81.3546C59.6927 81.3546 59.4377 81.3576 59.1827 81.3666C56.1107 81.4746 56.1107 81.4746 55.3017 84.4836C55.0197 85.5326 54.6538 86.5946 53.8848 87.2656C52.4338 88.5316 50.8817 89.5876 49.1507 90.7396L49.0207 90.8257C48.0567 91.4627 47.7528 91.7056 47.7788 92.5736C47.8208 93.9886 45.5468 95.0366 44.7578 95.2396C44.1248 95.4016 43.3537 95.3126 42.6727 95.1986C42.2547 95.1286 41.8728 95.0587 41.5358 95.0927C41.1998 95.2047 39.9718 96.2647 39.5658 96.7747C40.0978 97.0817 40.6897 97.2626 41.3137 97.4546C42.6667 97.8696 44.2007 98.3396 45.1577 100.198C45.7847 101.414 46.0527 103.014 45.9747 105.09C45.9467 105.852 45.8617 108.17 43.9287 108.17C43.3537 108.17 42.6957 107.94 41.7937 107.423C39.4757 106.095 37.1077 106.091 33.7257 107.471C33.5907 107.55 33.2897 108.013 33.2567 108.319C33.0187 110.469 32.8657 112.757 32.7917 115.314C32.7467 116.82 33.1997 118.705 35.6057 119.138C36.9007 119.371 38.3118 119.484 39.9208 119.484C40.6778 119.484 41.4347 119.459 42.1837 119.417C42.9207 119.376 43.8218 118.818 44.5338 117.959C45.3058 117.028 45.7358 115.897 45.6288 115.079C45.3268 112.79 46.1347 111.285 48.0997 110.476C50.5197 109.481 51.8588 108.799 51.2588 106.35C51.1668 105.975 51.2997 105.58 51.5997 105.336C51.8987 105.091 52.3117 105.043 52.6617 105.21C53.9977 105.849 54.5497 106.091 55.0437 106.091C55.5077 106.091 56.1198 105.886 57.2328 105.514L57.5647 105.404C58.2327 105.181 59.1177 105.195 60.0207 105.272C60.3217 105.298 60.6228 105.325 60.9158 105.328C61.3988 105.332 61.8108 105.681 61.8938 106.157L62.0138 106.851C62.0778 107.236 61.9138 107.624 61.5918 107.844C59.8698 109.02 59.8988 110.463 60.0878 112.72C60.1398 113.342 60.1928 113.984 60.1848 114.626C60.2418 114.691 60.3297 114.768 60.3807 114.792C60.4137 114.782 60.4748 114.765 60.5348 114.746C60.6598 114.292 60.7138 113.78 60.7698 113.243L60.8258 112.736C60.8658 112.4 60.8648 111.991 60.8638 111.558C60.8618 110.379 60.8588 109.161 61.7008 108.48C62.1478 108.117 62.7807 107.934 63.5797 107.934C64.4387 107.934 65.4997 108.156 66.3487 108.514C67.7217 109.092 68.8468 110.095 69.9348 111.065L70.1767 111.28C71.7737 112.697 72.4808 114.007 72.3378 115.285C72.1548 116.946 70.5998 118.028 69.3888 118.708ZM44.6538 89.8146C44.3818 89.8146 44.0998 89.7836 43.8168 89.7236C43.6788 89.6946 43.4207 89.7036 43.1837 89.7156C43.0267 89.7236 42.8697 89.7317 42.7137 89.7317C42.7127 89.7317 42.7107 89.7317 42.7097 89.7317C42.4907 89.7317 42.3117 89.7386 42.1317 89.7456C41.9257 89.7536 41.7197 89.7616 41.5167 89.7616C40.8667 89.7616 39.1397 89.7616 38.3487 87.8186C37.4097 85.5136 37.6297 83.5526 39.0227 81.8226C39.1707 81.6386 39.3348 81.2716 39.4308 80.9886C39.3828 80.9606 39.3338 80.9327 39.2838 80.9037C38.9038 80.6857 38.4307 80.4137 38.0487 79.9037C37.6547 79.3807 37.4278 78.7697 37.2078 78.1797C37.0478 77.7487 36.8957 77.3416 36.7027 77.0386C36.3947 76.5566 36.0198 76.1116 35.6228 75.6406C35.3918 75.3656 35.1588 75.0896 34.9358 74.8036C34.3628 74.0636 33.7677 73.1466 33.7097 71.9496C33.7087 71.9246 33.6887 69.2746 34.7607 68.3956C35.3777 67.8886 35.9227 67.2617 36.4997 66.5977C37.4107 65.5487 38.3538 64.4636 39.6908 63.7396C40.4418 63.3336 41.1748 63.2266 41.8318 63.4236C43.8938 64.0406 44.1647 67.1287 44.1987 68.0607C44.2197 68.6467 44.1738 69.2087 44.1288 69.7527C44.0808 70.3347 44.0357 70.8826 44.0747 71.4126C44.2457 73.7076 45.2477 75.6136 46.3087 77.6306C47.0547 79.0486 47.8268 80.5157 48.3218 82.1647L48.3628 82.3016C48.8078 83.7826 49.3627 85.6257 48.6047 86.8777C47.9407 87.9757 46.8288 89.8146 44.6538 89.8146ZM43.5477 87.7026C43.8027 87.7026 44.0267 87.7236 44.2347 87.7676C45.4657 88.0286 46.1537 87.0677 46.8957 85.8417C47.1927 85.3497 46.6907 83.6797 46.4497 82.8777L46.4077 82.7386C45.9687 81.2746 45.2747 79.9566 44.5417 78.5616C43.4317 76.4526 42.2838 74.2707 42.0828 71.5607C42.0318 70.8747 42.0857 70.2216 42.1377 69.5886C42.1797 69.0806 42.2197 68.5997 42.2027 68.1327C42.1467 66.6367 41.6618 65.4596 41.2598 65.3396C41.0768 65.3276 40.9077 65.3567 40.6457 65.4987C39.6277 66.0507 38.8427 66.9536 38.0117 67.9106C37.4067 68.6076 36.7797 69.3286 36.0317 69.9426C35.8817 70.1646 35.6838 71.3267 35.7108 71.8527C35.7398 72.4577 36.0548 72.9796 36.5188 73.5786C36.7238 73.8426 36.9398 74.0977 37.1548 74.3517C37.5768 74.8517 38.0127 75.3696 38.3917 75.9646C38.6977 76.4446 38.8947 76.9717 39.0837 77.4817C39.2617 77.9597 39.4308 78.4106 39.6498 78.7026C39.7868 78.8846 40.0047 79.0117 40.2827 79.1707C40.5407 79.3187 40.8327 79.4866 41.1167 79.7356C42.2477 80.7256 40.6007 83.0556 40.5837 83.0776C39.6497 84.2366 39.5367 85.4297 40.2027 87.0657C40.4287 87.6197 40.6988 87.7637 41.5188 87.7637C41.6978 87.7637 41.8777 87.7566 42.0587 87.7496C42.2647 87.7416 42.4697 87.7346 42.6717 87.7346C42.6727 87.7346 42.6738 87.7346 42.6748 87.7346C42.8368 87.7346 42.9577 87.7276 43.0787 87.7206C43.2347 87.7096 43.3927 87.7026 43.5477 87.7026ZM32.3807 87.4686C29.4717 87.4686 28.8078 85.2497 28.5548 83.3157C28.3628 81.8477 29.1917 78.2206 30.8297 77.1146C31.5557 76.6256 32.3858 76.5236 33.4558 76.8436C33.7138 76.9196 34.1688 77.0817 34.6078 77.2697C35.6248 77.7057 36.1228 78.0826 36.3258 78.5696C36.7898 79.6756 36.7527 80.7866 36.7207 81.7676C36.7077 82.1496 36.6948 82.5326 36.7128 82.9136C36.8728 86.1456 35.9827 87.2046 32.9007 87.4476C32.7207 87.4616 32.5467 87.4686 32.3807 87.4686ZM32.3318 78.6606C32.1798 78.6606 32.0647 78.6936 31.9487 78.7726C31.2017 79.2756 30.3957 81.9746 30.5367 83.0566C30.8307 85.2956 31.4857 85.4686 32.3807 85.4686C32.4967 85.4686 32.6177 85.4636 32.7447 85.4536C34.6807 85.3016 34.8247 85.2366 34.7147 83.0126C34.6937 82.5746 34.7068 82.1377 34.7218 81.7007C34.7488 80.8677 34.7737 80.1407 34.5327 79.4717C34.4417 79.4097 34.2348 79.2847 33.8208 79.1067C33.4398 78.9437 33.0637 78.8126 32.8867 78.7596C32.6617 78.6926 32.4798 78.6606 32.3318 78.6606ZM69.7677 76.0526C69.3327 76.0526 68.8797 75.8956 68.3407 75.5576C67.9287 75.2996 66.7127 73.4286 66.7037 72.8066C66.6697 69.5906 66.3828 67.1256 63.1598 65.2126C63.0978 65.2726 63.0358 65.3326 62.9718 65.3926C62.4368 65.9026 61.8308 66.4806 61.6278 67.0626C60.9358 69.0426 59.5378 69.4586 58.4878 69.4586C57.8518 69.4586 57.2287 69.3096 56.7027 69.1636C55.3737 68.7936 54.3988 66.9796 54.1598 65.8706C53.7168 63.8316 53.5447 61.7566 53.6617 59.8716C53.8327 57.1306 54.9417 54.7426 56.9587 52.7716C57.8977 51.8546 58.8998 50.9786 59.8688 50.1296C62.6768 47.6736 65.3288 45.3546 66.7478 42.0016C67.4118 40.4326 67.8258 38.7687 68.2638 37.0077C68.4668 36.1917 68.6698 35.3757 68.8988 34.5707C68.9448 34.4097 68.9747 34.2327 69.0057 34.0557C69.1087 33.4917 69.2347 32.7896 69.7397 32.2866C70.5947 31.4346 71.4298 30.5557 72.2648 29.6757C75.6648 26.0927 79.1818 22.3887 84.1958 20.5247C86.0478 19.8367 87.8087 19.4566 89.4317 19.3956L89.6588 19.3916C91.2528 19.3916 92.6457 20.0247 93.5847 21.1747C94.5697 22.3837 94.9357 24.0537 94.5847 25.7577C94.4817 26.2557 94.3637 26.7527 94.2447 27.2487C93.9997 28.2677 93.7688 29.2286 93.6858 30.1946C93.6368 30.7706 93.7707 31.4186 93.9137 32.1056C93.9897 32.4746 94.0658 32.8437 94.1188 33.2107L94.1687 33.5576C94.2567 34.1616 94.3477 34.7866 94.3927 35.4236C94.4537 36.3036 94.5038 37.1856 94.5548 38.0676C94.6288 39.3556 94.7028 40.6436 94.8108 41.9276C94.8678 42.6046 94.9747 43.2757 95.0887 43.9867C95.1747 44.5257 95.2617 45.0636 95.3247 45.6046L95.3387 45.7236C95.6387 48.2456 95.9477 50.8536 96.1927 53.4316C96.3477 55.0646 95.6687 56.2796 95.0117 57.4536C94.9047 57.6476 94.7938 57.8446 94.6858 58.0466C93.4988 60.2636 92.2938 62.0886 89.4208 61.9786C88.2948 63.4076 86.8568 63.5867 85.8308 63.5867C85.4328 63.5867 85.0267 63.5576 84.6217 63.5266C83.7607 63.4626 82.9117 63.4437 82.3957 63.6647C81.9047 63.8767 81.3318 63.6637 81.0978 63.1807C78.4328 57.6387 79.3478 52.3126 83.6748 48.1826C83.9628 47.9086 84.8378 47.0737 85.0248 46.3427C85.1578 45.8237 85.1498 44.9976 85.0768 44.5736C84.7298 44.4836 84.3258 44.4307 83.9558 44.4307C83.4298 44.4307 83.1747 44.5366 83.1267 44.5746C82.5807 45.1206 82.2147 45.9667 81.8277 46.8627C81.5897 47.4137 81.3437 47.9827 81.0367 48.5247C80.9337 48.7047 80.8338 48.8916 80.7318 49.0796C80.2208 50.0266 79.6428 51.1007 78.6858 51.7317C75.1308 54.0797 74.3407 57.2016 76.4027 60.7626C77.5427 62.7306 77.2858 64.6817 75.6388 66.5607C74.3998 67.9747 74.2197 68.5266 75.2987 70.7136C75.5027 71.1266 75.3988 71.6256 75.0458 71.9216C74.4568 72.4176 74.0587 72.7836 73.6947 73.1166C73.0907 73.6726 72.5677 74.1516 71.4847 74.9546C71.4427 74.9896 71.3617 75.0886 71.2757 75.1946C71.0187 75.5166 70.5817 76.0526 69.7677 76.0526ZM69.5047 73.9247C69.5717 73.9637 69.6257 73.9906 69.6677 74.0096C69.6877 73.9846 69.7067 73.9586 69.7287 73.9336C69.8627 73.7686 70.0297 73.5637 70.2667 73.3727C71.2957 72.6087 71.7597 72.1837 72.3457 71.6447C72.5937 71.4177 72.8568 71.1766 73.1798 70.8926C72.1648 68.5456 72.4327 67.1887 74.1377 65.2437C75.2287 63.9987 75.3838 62.9916 74.6748 61.7656C72.0718 57.2696 73.1328 53.0046 77.5868 50.0636C78.1238 49.7096 78.5557 48.9066 78.9737 48.1316C79.0817 47.9296 79.1907 47.7306 79.2987 47.5376C79.5527 47.0906 79.7678 46.5946 79.9938 46.0696C80.4378 45.0416 80.8978 43.9777 81.7218 43.1537C82.3188 42.5567 83.2678 42.4316 83.9578 42.4316C84.6868 42.4316 85.4908 42.5707 86.1068 42.8047C87.6728 43.3967 86.9727 46.8046 86.9637 46.8386C86.6717 47.9786 85.7917 48.9296 85.0577 49.6306C81.5547 52.9736 80.6998 57.0817 82.5598 61.5507C83.2028 61.4437 83.9937 61.4746 84.7717 61.5316C85.1267 61.5576 85.4827 61.5857 85.8327 61.5857C86.7777 61.5857 87.4828 61.3896 88.0768 60.4136C88.2818 60.0766 88.6637 59.8847 89.0577 59.9417C90.9147 60.1757 91.6367 59.5057 92.9227 57.1027C93.0367 56.8897 93.1527 56.6817 93.2667 56.4777C93.8437 55.4467 94.2987 54.6316 94.2037 53.6196C93.9607 51.0656 93.6517 48.4696 93.3537 45.9586L93.3387 45.8386C93.2777 45.3246 93.1958 44.8136 93.1138 44.3026C92.9988 43.5866 92.8807 42.8456 92.8177 42.0946C92.7077 40.7926 92.6317 39.4876 92.5577 38.1816C92.5067 37.3076 92.4567 36.4346 92.3957 35.5616C92.3567 34.9996 92.2757 34.4386 92.1887 33.8446L92.1377 33.4927C92.0907 33.1667 92.0227 32.8376 91.9537 32.5096C91.7887 31.7136 91.6187 30.8897 91.6927 30.0237C91.7877 28.9087 92.0467 27.8276 92.2977 26.7816C92.4117 26.3066 92.5268 25.8316 92.6238 25.3546C92.8528 24.2426 92.6367 23.1786 92.0317 22.4376C91.4817 21.7626 90.6377 21.3906 89.6567 21.3906L89.5047 21.3937C88.0957 21.4467 86.5427 21.7847 84.8917 22.3987C80.3127 24.1007 77.1077 27.4776 73.7137 31.0516C72.8657 31.9456 72.0188 32.8386 71.1488 33.7036C71.0848 33.7926 71.0138 34.1797 70.9728 34.4097C70.9288 34.6517 70.8828 34.8936 70.8208 35.1146C70.5978 35.8996 70.4007 36.6946 70.2037 37.4886C69.7657 39.2476 69.3137 41.0666 68.5887 42.7806C66.9897 46.5556 64.0388 49.1376 61.1858 51.6346C60.2368 52.4646 59.2558 53.3227 58.3568 54.2017C56.6808 55.8387 55.7977 57.7336 55.6577 59.9946C55.5517 61.6986 55.7097 63.5827 56.1147 65.4457C56.2877 66.2487 56.9418 67.1476 57.2378 67.2356C57.6538 67.3506 58.0928 67.4576 58.4878 67.4576C58.9148 67.4576 59.3988 67.3756 59.7388 66.4006C60.1008 65.3636 60.9267 64.5766 61.5907 63.9436C61.8217 63.7226 62.0428 63.5136 62.2178 63.3126C62.5208 62.9636 63.0228 62.8686 63.4298 63.0776C68.1588 65.5006 68.6498 68.9677 68.7008 72.6177C68.8528 72.9287 69.3007 73.6587 69.5047 73.9247ZM26.6977 53.8036C26.6967 53.8036 26.6967 53.8036 26.6977 53.8036C24.8757 53.8036 23.3957 52.5416 22.9277 50.5896L22.8807 50.3916C22.6747 49.5076 22.5858 49.3016 22.1188 49.1356C21.4968 48.9146 21.1528 48.2436 21.0038 47.8636C20.7698 47.2696 20.7557 46.7656 20.9637 46.3656C21.3957 45.5296 22.1777 44.7866 23.0017 44.4286C23.1617 44.3596 23.3357 44.3246 23.5207 44.3246C24.2617 44.3246 25.2758 44.9587 25.6488 45.6547C25.6658 45.6857 25.6797 45.7126 25.6937 45.7356C25.7527 45.7106 25.8317 45.6747 25.9377 45.6237C27.1917 45.0167 28.2458 44.6527 29.2538 44.4777C30.7468 44.2207 31.9418 44.5246 32.7748 45.3666C33.5798 46.1796 33.9767 47.4517 33.9587 49.1487C33.9567 49.3587 33.8877 49.5637 33.7627 49.7317L33.7118 49.8267C33.5228 50.1657 33.1707 50.7976 32.5637 51.1866C31.3417 51.9696 29.8807 52.8547 28.3017 53.4827C27.7687 53.6957 27.2287 53.8036 26.6977 53.8036ZM22.9547 47.3146C24.3507 47.8906 24.6267 49.0676 24.8297 49.9366L24.8738 50.1237C25.1258 51.1757 25.8078 51.8036 26.6968 51.8036C26.9728 51.8036 27.2647 51.7436 27.5627 51.6256C28.9827 51.0606 30.3408 50.2357 31.4828 49.5037C31.6638 49.3877 31.8518 49.0536 31.9578 48.8656C31.9368 47.8736 31.7287 47.1536 31.3537 46.7726C30.9967 46.4126 30.4048 46.3086 29.5968 46.4486C28.7768 46.5906 27.8908 46.9006 26.8098 47.4236C26.4278 47.6086 26.0178 47.7886 25.5608 47.7886C24.5218 47.7886 24.0427 46.8927 23.8857 46.5977C23.8457 46.5457 23.7048 46.4457 23.5828 46.3787C23.3088 46.5507 23.0398 46.8147 22.8528 47.0977C22.8788 47.1707 22.9187 47.2546 22.9547 47.3146Z" fill="currentColor"/>
<path d="M130.274 83.8245C129.721 83.8245 129.274 83.3765 129.274 82.8245V14.6846C129.274 8.06757 123.891 2.68457 117.274 2.68457H65.7441C65.1911 2.68457 64.7441 2.23657 64.7441 1.68457C64.7441 1.13257 65.1911 0.68457 65.7441 0.68457H117.274C124.994 0.68457 131.274 6.96457 131.274 14.6846V82.8245C131.274 83.3765 130.827 83.8245 130.274 83.8245Z" fill="currentColor"/>
<path d="M58.3265 2.68457H49.9805C49.4275 2.68457 48.9805 2.23657 48.9805 1.68457C48.9805 1.13257 49.4275 0.68457 49.9805 0.68457H58.3265C58.8795 0.68457 59.3265 1.13257 59.3265 1.68457C59.3265 2.23657 58.8795 2.68457 58.3265 2.68457Z" fill="currentColor"/>
<path d="M1.21387 27.4006C0.660867 27.4006 0.213867 26.9526 0.213867 26.4006V14.6836C0.213867 6.96359 6.49387 0.683594 14.2139 0.683594H44.9539C45.5069 0.683594 45.9539 1.13159 45.9539 1.68359C45.9539 2.23559 45.5069 2.68359 44.9539 2.68359H14.2139C7.59687 2.68359 2.21387 8.06659 2.21387 14.6836V26.4006C2.21387 26.9536 1.76687 27.4006 1.21387 27.4006Z" fill="currentColor"/>
<path d="M1.21387 68.2438C0.660867 68.2438 0.213867 67.7958 0.213867 67.2438V30.8838C0.213867 30.3318 0.660867 29.8838 1.21387 29.8838C1.76687 29.8838 2.21387 30.3318 2.21387 30.8838V67.2438C2.21387 67.7958 1.76687 68.2438 1.21387 68.2438Z" fill="currentColor"/>
<path d="M1.21387 89.8142C0.660867 89.8142 0.213867 89.3662 0.213867 88.8142V77.9902C0.213867 77.4382 0.660867 76.9902 1.21387 76.9902C1.76687 76.9902 2.21387 77.4382 2.21387 77.9902V88.8142C2.21387 89.3662 1.76687 89.8142 1.21387 89.8142Z" fill="currentColor"/>
<path d="M73.7289 177.339H14.2129C6.49289 177.339 0.212891 171.059 0.212891 163.339V95.9941C0.212891 95.4421 0.659891 94.9941 1.21289 94.9941C1.76589 94.9941 2.21289 95.4421 2.21289 95.9941V163.339C2.21289 169.956 7.59589 175.339 14.2129 175.339H73.7289C74.2819 175.339 74.7289 175.787 74.7289 176.339C74.7289 176.891 74.2819 177.339 73.7289 177.339Z" fill="currentColor"/>
<path d="M82.9099 177.34H77.6719C77.1189 177.34 76.6719 176.892 76.6719 176.34C76.6719 175.788 77.1189 175.34 77.6719 175.34H82.9099C83.4629 175.34 83.9099 175.788 83.9099 176.34C83.9099 176.892 83.4629 177.34 82.9099 177.34Z" fill="currentColor"/>
<path d="M117.274 177.34H89.8086C89.2556 177.34 88.8086 176.892 88.8086 176.34C88.8086 175.788 89.2556 175.34 89.8086 175.34H117.274C121.288 175.34 125.021 173.34 127.26 169.988C127.566 169.53 128.185 169.404 128.647 169.712C129.106 170.019 129.23 170.64 128.922 171.099C126.312 175.007 121.958 177.34 117.274 177.34Z" fill="currentColor"/>
<path d="M130.273 164.339C129.72 164.339 129.273 163.891 129.273 163.339V129.448C129.273 128.896 129.72 128.448 130.273 128.448C130.826 128.448 131.273 128.896 131.273 129.448V163.339C131.273 163.891 130.826 164.339 130.273 164.339Z" fill="currentColor"/>
<path d="M130.273 124.471C129.72 124.471 129.273 124.023 129.273 123.471V103.446C129.273 102.894 129.72 102.446 130.273 102.446C130.826 102.446 131.273 102.894 131.273 103.446V123.471C131.273 124.023 130.826 124.471 130.273 124.471Z" fill="currentColor"/>
<path d="M130.273 99.0673C129.72 99.0673 129.273 98.6193 129.273 98.0673V89.8203C129.273 89.2683 129.72 88.8203 130.273 88.8203C130.826 88.8203 131.273 89.2683 131.273 89.8203V98.0673C131.273 98.6193 130.826 99.0673 130.273 99.0673Z" fill="currentColor"/>
<path d="M130.274 158.005H1.21289C0.659891 158.005 0.212891 157.557 0.212891 157.005V133.393C0.212891 132.841 0.659891 132.393 1.21289 132.393H130.274C130.827 132.393 131.274 132.841 131.274 133.393V157.005C131.274 157.557 130.827 158.005 130.274 158.005ZM2.21387 156.005H129.275V134.393H2.21387V156.005Z" fill="currentColor"/>
<path d="M123.274 43.2535C122.721 43.2535 122.274 42.8055 122.274 42.2535V39.2535C122.274 38.7015 122.721 38.2535 123.274 38.2535C123.827 38.2535 124.274 38.7015 124.274 39.2535V42.2535C124.274 42.8065 123.827 43.2535 123.274 43.2535ZM123.274 36.2535C122.721 36.2535 122.274 35.8055 122.274 35.2535V32.2535C122.274 31.7015 122.721 31.2535 123.274 31.2535C123.827 31.2535 124.274 31.7015 124.274 32.2535V35.2535C124.274 35.8065 123.827 36.2535 123.274 36.2535ZM123.274 29.2535C122.721 29.2535 122.274 28.8055 122.274 28.2535V25.2535C122.274 24.7015 122.721 24.2535 123.274 24.2535C123.827 24.2535 124.274 24.7015 124.274 25.2535V28.2535C124.274 28.8065 123.827 29.2535 123.274 29.2535ZM123.274 22.2535C122.721 22.2535 122.274 21.8055 122.274 21.2535V18.2535C122.274 17.7015 122.721 17.2535 123.274 17.2535C123.827 17.2535 124.274 17.7015 124.274 18.2535V21.2535C124.274 21.8065 123.827 22.2535 123.274 22.2535ZM123.258 15.2545C122.738 15.2545 122.299 14.8525 122.262 14.3265C122.201 13.4965 121.93 12.6865 121.476 11.9845C121.176 11.5215 121.309 10.9016 121.773 10.6016C122.237 10.3026 122.856 10.4346 123.156 10.8986C123.793 11.8826 124.173 13.0185 124.257 14.1835C124.297 14.7345 123.883 15.2126 123.332 15.2526C123.307 15.2536 123.282 15.2545 123.258 15.2545ZM119.229 10.0145C119.121 10.0145 119.009 9.9965 118.901 9.9585C118.379 9.7765 117.832 9.68557 117.274 9.68457H116.267C115.714 9.68457 115.267 9.23657 115.267 8.68457C115.267 8.13257 115.714 7.68457 116.267 7.68457H117.275C118.056 7.68457 118.824 7.81448 119.557 8.06848C120.078 8.24948 120.355 8.81955 120.173 9.34155C120.03 9.75455 119.643 10.0145 119.229 10.0145ZM112.267 9.68457H109.267C108.714 9.68457 108.267 9.23657 108.267 8.68457C108.267 8.13257 108.714 7.68457 109.267 7.68457H112.267C112.82 7.68457 113.267 8.13257 113.267 8.68457C113.267 9.23657 112.819 9.68457 112.267 9.68457Z" fill="currentColor"/>
<path d="M123.273 83.8242C122.72 83.8242 122.273 83.3762 122.273 82.8242V79.8242C122.273 79.2722 122.72 78.8242 123.273 78.8242C123.826 78.8242 124.273 79.2722 124.273 79.8242V82.8242C124.273 83.3762 123.826 83.8242 123.273 83.8242ZM123.273 76.8242C122.72 76.8242 122.273 76.3762 122.273 75.8242V72.8242C122.273 72.2722 122.72 71.8242 123.273 71.8242C123.826 71.8242 124.273 72.2722 124.273 72.8242V75.8242C124.273 76.3762 123.826 76.8242 123.273 76.8242ZM123.273 69.8242C122.72 69.8242 122.273 69.3762 122.273 68.8242V65.8242C122.273 65.2722 122.72 64.8242 123.273 64.8242C123.826 64.8242 124.273 65.2722 124.273 65.8242V68.8242C124.273 69.3762 123.826 69.8242 123.273 69.8242ZM123.273 62.8242C122.72 62.8242 122.273 62.3762 122.273 61.8242V58.8242C122.273 58.2722 122.72 57.8242 123.273 57.8242C123.826 57.8242 124.273 58.2722 124.273 58.8242V61.8242C124.273 62.3762 123.826 62.8242 123.273 62.8242Z" fill="currentColor"/>
<path d="M121.288 134.392H118.288C117.735 134.392 117.288 133.944 117.288 133.392C117.288 132.84 117.735 132.392 118.288 132.392H121.288C121.841 132.392 122.288 132.84 122.288 133.392C122.288 133.944 121.841 134.392 121.288 134.392ZM114.288 134.392H111.288C110.735 134.392 110.288 133.944 110.288 133.392C110.288 132.84 110.735 132.392 111.288 132.392H114.288C114.841 132.392 115.288 132.84 115.288 133.392C115.288 133.944 114.841 134.392 114.288 134.392ZM107.288 134.392H104.288C103.735 134.392 103.288 133.944 103.288 133.392C103.288 132.84 103.735 132.392 104.288 132.392H107.288C107.841 132.392 108.288 132.84 108.288 133.392C108.288 133.944 107.841 134.392 107.288 134.392ZM100.288 134.392H97.2878C96.7348 134.392 96.2878 133.944 96.2878 133.392C96.2878 132.84 96.7348 132.392 97.2878 132.392H100.288C100.841 132.392 101.288 132.84 101.288 133.392C101.288 133.944 100.841 134.392 100.288 134.392ZM93.2878 134.392H90.2878C89.7348 134.392 89.2878 133.944 89.2878 133.392C89.2878 132.84 89.7348 132.392 90.2878 132.392H93.2878C93.8408 132.392 94.2878 132.84 94.2878 133.392C94.2878 133.944 93.8408 134.392 93.2878 134.392ZM86.2878 134.392H83.2878C82.7348 134.392 82.2878 133.944 82.2878 133.392C82.2878 132.84 82.7348 132.392 83.2878 132.392H86.2878C86.8408 132.392 87.2878 132.84 87.2878 133.392C87.2878 133.944 86.8408 134.392 86.2878 134.392ZM79.2878 134.392H76.2878C75.7348 134.392 75.2878 133.944 75.2878 133.392C75.2878 132.84 75.7348 132.392 76.2878 132.392H79.2878C79.8408 132.392 80.2878 132.84 80.2878 133.392C80.2878 133.944 79.8408 134.392 79.2878 134.392ZM72.2878 134.392H69.2878C68.7348 134.392 68.2878 133.944 68.2878 133.392C68.2878 132.84 68.7348 132.392 69.2878 132.392H72.2878C72.8408 132.392 73.2878 132.84 73.2878 133.392C73.2878 133.944 72.8408 134.392 72.2878 134.392ZM65.2878 134.392H62.2878C61.7348 134.392 61.2878 133.944 61.2878 133.392C61.2878 132.84 61.7348 132.392 62.2878 132.392H65.2878C65.8408 132.392 66.2878 132.84 66.2878 133.392C66.2878 133.944 65.8408 134.392 65.2878 134.392ZM58.2878 134.392H55.2878C54.7348 134.392 54.2878 133.944 54.2878 133.392C54.2878 132.84 54.7348 132.392 55.2878 132.392H58.2878C58.8408 132.392 59.2878 132.84 59.2878 133.392C59.2878 133.944 58.8408 134.392 58.2878 134.392ZM51.2878 134.392H48.2878C47.7348 134.392 47.2878 133.944 47.2878 133.392C47.2878 132.84 47.7348 132.392 48.2878 132.392H51.2878C51.8408 132.392 52.2878 132.84 52.2878 133.392C52.2878 133.944 51.8408 134.392 51.2878 134.392ZM44.2878 134.392H41.2878C40.7348 134.392 40.2878 133.944 40.2878 133.392C40.2878 132.84 40.7348 132.392 41.2878 132.392H44.2878C44.8408 132.392 45.2878 132.84 45.2878 133.392C45.2878 133.944 44.8408 134.392 44.2878 134.392ZM37.2878 134.392H34.2878C33.7348 134.392 33.2878 133.944 33.2878 133.392C33.2878 132.84 33.7348 132.392 34.2878 132.392H37.2878C37.8408 132.392 38.2878 132.84 38.2878 133.392C38.2878 133.944 37.8408 134.392 37.2878 134.392ZM30.2878 134.392H27.2878C26.7348 134.392 26.2878 133.944 26.2878 133.392C26.2878 132.84 26.7348 132.392 27.2878 132.392H30.2878C30.8408 132.392 31.2878 132.84 31.2878 133.392C31.2878 133.944 30.8408 134.392 30.2878 134.392ZM23.2878 134.392H20.2878C19.7348 134.392 19.2878 133.944 19.2878 133.392C19.2878 132.84 19.7348 132.392 20.2878 132.392H23.2878C23.8408 132.392 24.2878 132.84 24.2878 133.392C24.2878 133.944 23.8408 134.392 23.2878 134.392ZM16.2878 134.392H13.2878C12.7348 134.392 12.2878 133.944 12.2878 133.392C12.2878 132.84 12.7348 132.392 13.2878 132.392H16.2878C16.8408 132.392 17.2878 132.84 17.2878 133.392C17.2878 133.944 16.8408 134.392 16.2878 134.392ZM9.28784 134.392H8.21387C7.66087 134.392 7.21387 133.944 7.21387 133.392V131.468C7.21387 130.916 7.66087 130.468 8.21387 130.468C8.76687 130.468 9.21387 130.916 9.21387 131.468V132.392H9.28784C9.84084 132.392 10.2878 132.84 10.2878 133.392C10.2878 133.944 9.84084 134.392 9.28784 134.392ZM123.274 132.379C122.721 132.379 122.274 131.931 122.274 131.379V128.379C122.274 127.827 122.721 127.379 123.274 127.379C123.827 127.379 124.274 127.827 124.274 128.379V131.379C124.274 131.931 123.827 132.379 123.274 132.379ZM8.21387 128.468C7.66087 128.468 7.21387 128.02 7.21387 127.468V124.468C7.21387 123.916 7.66087 123.468 8.21387 123.468C8.76687 123.468 9.21387 123.916 9.21387 124.468V127.468C9.21387 128.02 8.76687 128.468 8.21387 128.468ZM123.274 125.379C122.721 125.379 122.274 124.931 122.274 124.379V121.379C122.274 120.827 122.721 120.379 123.274 120.379C123.827 120.379 124.274 120.827 124.274 121.379V124.379C124.274 124.931 123.827 125.379 123.274 125.379ZM8.21387 121.468C7.66087 121.468 7.21387 121.02 7.21387 120.468V117.468C7.21387 116.916 7.66087 116.468 8.21387 116.468C8.76687 116.468 9.21387 116.916 9.21387 117.468V120.468C9.21387 121.02 8.76687 121.468 8.21387 121.468ZM123.274 118.379C122.721 118.379 122.274 117.931 122.274 117.379V114.379C122.274 113.827 122.721 113.379 123.274 113.379C123.827 113.379 124.274 113.827 124.274 114.379V117.379C124.274 117.931 123.827 118.379 123.274 118.379ZM8.21387 114.468C7.66087 114.468 7.21387 114.02 7.21387 113.468V110.468C7.21387 109.916 7.66087 109.468 8.21387 109.468C8.76687 109.468 9.21387 109.916 9.21387 110.468V113.468C9.21387 114.02 8.76687 114.468 8.21387 114.468ZM123.274 111.379C122.721 111.379 122.274 110.931 122.274 110.379V107.379C122.274 106.827 122.721 106.379 123.274 106.379C123.827 106.379 124.274 106.827 124.274 107.379V110.379C124.274 110.931 123.827 111.379 123.274 111.379ZM8.21387 107.468C7.66087 107.468 7.21387 107.02 7.21387 106.468V103.468C7.21387 102.916 7.66087 102.468 8.21387 102.468C8.76687 102.468 9.21387 102.916 9.21387 103.468V106.468C9.21387 107.02 8.76687 107.468 8.21387 107.468ZM123.274 104.379C122.721 104.379 122.274 103.931 122.274 103.379V100.379C122.274 99.8265 122.721 99.3785 123.274 99.3785C123.827 99.3785 124.274 99.8265 124.274 100.379V103.379C124.274 103.931 123.827 104.379 123.274 104.379ZM8.21387 100.468C7.66087 100.468 7.21387 100.02 7.21387 99.4675V96.4675C7.21387 95.9155 7.66087 95.4675 8.21387 95.4675C8.76687 95.4675 9.21387 95.9155 9.21387 96.4675V99.4675C9.21387 100.02 8.76687 100.468 8.21387 100.468ZM123.274 97.3785C122.721 97.3785 122.274 96.9305 122.274 96.3785V93.3785C122.274 92.8265 122.721 92.3785 123.274 92.3785C123.827 92.3785 124.274 92.8265 124.274 93.3785V96.3785C124.274 96.9305 123.827 97.3785 123.274 97.3785ZM8.21387 93.4675C7.66087 93.4675 7.21387 93.0195 7.21387 92.4675V89.4675C7.21387 88.9155 7.66087 88.4675 8.21387 88.4675C8.76687 88.4675 9.21387 88.9155 9.21387 89.4675V92.4675C9.21387 93.0195 8.76687 93.4675 8.21387 93.4675ZM8.21387 86.4675C7.66087 86.4675 7.21387 86.0195 7.21387 85.4675V82.4675C7.21387 81.9155 7.66087 81.4675 8.21387 81.4675C8.76687 81.4675 9.21387 81.9155 9.21387 82.4675V85.4675C9.21387 86.0195 8.76687 86.4675 8.21387 86.4675ZM8.21387 79.4675C7.66087 79.4675 7.21387 79.0195 7.21387 78.4675V75.4675C7.21387 74.9155 7.66087 74.4675 8.21387 74.4675C8.76687 74.4675 9.21387 74.9155 9.21387 75.4675V78.4675C9.21387 79.0195 8.76687 79.4675 8.21387 79.4675ZM8.21387 72.4675C7.66087 72.4675 7.21387 72.0195 7.21387 71.4675V68.4675C7.21387 67.9155 7.66087 67.4675 8.21387 67.4675C8.76687 67.4675 9.21387 67.9155 9.21387 68.4675V71.4675C9.21387 72.0195 8.76687 72.4675 8.21387 72.4675ZM8.21387 65.4675C7.66087 65.4675 7.21387 65.0195 7.21387 64.4675V61.4675C7.21387 60.9155 7.66087 60.4675 8.21387 60.4675C8.76687 60.4675 9.21387 60.9155 9.21387 61.4675V64.4675C9.21387 65.0195 8.76687 65.4675 8.21387 65.4675ZM8.21387 58.4675C7.66087 58.4675 7.21387 58.0195 7.21387 57.4675V54.4675C7.21387 53.9155 7.66087 53.4675 8.21387 53.4675C8.76687 53.4675 9.21387 53.9155 9.21387 54.4675V57.4675C9.21387 58.0195 8.76687 58.4675 8.21387 58.4675ZM8.21387 51.4675C7.66087 51.4675 7.21387 51.0195 7.21387 50.4675V47.4675C7.21387 46.9155 7.66087 46.4675 8.21387 46.4675C8.76687 46.4675 9.21387 46.9155 9.21387 47.4675V50.4675C9.21387 51.0195 8.76687 51.4675 8.21387 51.4675ZM8.21387 44.4675C7.66087 44.4675 7.21387 44.0195 7.21387 43.4675V40.4675C7.21387 39.9155 7.66087 39.4675 8.21387 39.4675C8.76687 39.4675 9.21387 39.9155 9.21387 40.4675V43.4675C9.21387 44.0195 8.76687 44.4675 8.21387 44.4675ZM8.21387 37.4675C7.66087 37.4675 7.21387 37.0195 7.21387 36.4675V33.4675C7.21387 32.9155 7.66087 32.4675 8.21387 32.4675C8.76687 32.4675 9.21387 32.9155 9.21387 33.4675V36.4675C9.21387 37.0195 8.76687 37.4675 8.21387 37.4675ZM8.21387 30.4675C7.66087 30.4675 7.21387 30.0195 7.21387 29.4675V26.4675C7.21387 25.9155 7.66087 25.4675 8.21387 25.4675C8.76687 25.4675 9.21387 25.9155 9.21387 26.4675V29.4675C9.21387 30.0195 8.76687 30.4675 8.21387 30.4675ZM8.21387 23.4675C7.66087 23.4675 7.21387 23.0195 7.21387 22.4675V19.4675C7.21387 18.9155 7.66087 18.4675 8.21387 18.4675C8.76687 18.4675 9.21387 18.9155 9.21387 19.4675V22.4675C9.21387 23.0195 8.76687 23.4675 8.21387 23.4675ZM8.21387 16.4675C7.66087 16.4675 7.21387 16.0195 7.21387 15.4675V14.6846C7.21387 13.8146 7.37382 12.9635 7.68982 12.1545C7.89082 11.6395 8.47186 11.3885 8.98486 11.5865C9.49986 11.7875 9.75486 12.3675 9.55286 12.8815C9.32786 13.4575 9.21387 14.0635 9.21387 14.6835V15.4666C9.21387 16.0196 8.76687 16.4675 8.21387 16.4675ZM11.1628 10.5245C10.8218 10.5245 10.4899 10.3505 10.3029 10.0365C10.0209 9.5625 10.1759 8.94853 10.6509 8.66553C11.6569 8.06553 12.8059 7.72848 13.9749 7.68848C14.5399 7.66848 14.9909 8.10256 15.0079 8.65356C15.0279 9.20556 14.5948 9.6685 14.0428 9.6875C13.2098 9.7155 12.3908 9.95654 11.6738 10.3835C11.5138 10.4785 11.3368 10.5245 11.1628 10.5245ZM98.0089 9.68457H95.0089C94.4559 9.68457 94.0089 9.23657 94.0089 8.68457C94.0089 8.13257 94.4559 7.68457 95.0089 7.68457H98.0089C98.5619 7.68457 99.0089 8.13257 99.0089 8.68457C99.0089 9.23657 98.5619 9.68457 98.0089 9.68457ZM91.0089 9.68457H88.0089C87.4559 9.68457 87.0089 9.23657 87.0089 8.68457C87.0089 8.13257 87.4559 7.68457 88.0089 7.68457H91.0089C91.5619 7.68457 92.0089 8.13257 92.0089 8.68457C92.0089 9.23657 91.5619 9.68457 91.0089 9.68457ZM84.0089 9.68457H81.0089C80.4559 9.68457 80.0089 9.23657 80.0089 8.68457C80.0089 8.13257 80.4559 7.68457 81.0089 7.68457H84.0089C84.5619 7.68457 85.0089 8.13257 85.0089 8.68457C85.0089 9.23657 84.5619 9.68457 84.0089 9.68457ZM77.0089 9.68457H74.0089C73.4559 9.68457 73.0089 9.23657 73.0089 8.68457C73.0089 8.13257 73.4559 7.68457 74.0089 7.68457H77.0089C77.5619 7.68457 78.0089 8.13257 78.0089 8.68457C78.0089 9.23657 77.5619 9.68457 77.0089 9.68457ZM70.0089 9.68457H67.0089C66.4559 9.68457 66.0089 9.23657 66.0089 8.68457C66.0089 8.13257 66.4559 7.68457 67.0089 7.68457H70.0089C70.5619 7.68457 71.0089 8.13257 71.0089 8.68457C71.0089 9.23657 70.5619 9.68457 70.0089 9.68457ZM63.0089 9.68457H60.0089C59.4559 9.68457 59.0089 9.23657 59.0089 8.68457C59.0089 8.13257 59.4559 7.68457 60.0089 7.68457H63.0089C63.5619 7.68457 64.0089 8.13257 64.0089 8.68457C64.0089 9.23657 63.5619 9.68457 63.0089 9.68457ZM56.0089 9.68457H53.0089C52.4559 9.68457 52.0089 9.23657 52.0089 8.68457C52.0089 8.13257 52.4559 7.68457 53.0089 7.68457H56.0089C56.5619 7.68457 57.0089 8.13257 57.0089 8.68457C57.0089 9.23657 56.5619 9.68457 56.0089 9.68457ZM49.0089 9.68457H46.0089C45.4559 9.68457 45.0089 9.23657 45.0089 8.68457C45.0089 8.13257 45.4559 7.68457 46.0089 7.68457H49.0089C49.5619 7.68457 50.0089 8.13257 50.0089 8.68457C50.0089 9.23657 49.5619 9.68457 49.0089 9.68457ZM42.0089 9.68457H39.0089C38.4559 9.68457 38.0089 9.23657 38.0089 8.68457C38.0089 8.13257 38.4559 7.68457 39.0089 7.68457H42.0089C42.5619 7.68457 43.0089 8.13257 43.0089 8.68457C43.0089 9.23657 42.5619 9.68457 42.0089 9.68457ZM35.0089 9.68457H32.0089C31.4559 9.68457 31.0089 9.23657 31.0089 8.68457C31.0089 8.13257 31.4559 7.68457 32.0089 7.68457H35.0089C35.5619 7.68457 36.0089 8.13257 36.0089 8.68457C36.0089 9.23657 35.5619 9.68457 35.0089 9.68457ZM28.0089 9.68457H25.0089C24.4559 9.68457 24.0089 9.23657 24.0089 8.68457C24.0089 8.13257 24.4559 7.68457 25.0089 7.68457H28.0089C28.5619 7.68457 29.0089 8.13257 29.0089 8.68457C29.0089 9.23657 28.5619 9.68457 28.0089 9.68457ZM21.0089 9.68457H18.0089C17.4559 9.68457 17.0089 9.23657 17.0089 8.68457C17.0089 8.13257 17.4559 7.68457 18.0089 7.68457H21.0089C21.5619 7.68457 22.0089 8.13257 22.0089 8.68457C22.0089 9.23657 21.5619 9.68457 21.0089 9.68457Z" fill="currentColor"/>
<path d="M113.832 170.34H110.832C110.279 170.34 109.832 169.892 109.832 169.34C109.832 168.788 110.279 168.34 110.832 168.34H113.832C114.385 168.34 114.832 168.788 114.832 169.34C114.832 169.892 114.385 170.34 113.832 170.34ZM106.832 170.34H103.832C103.279 170.34 102.832 169.892 102.832 169.34C102.832 168.788 103.279 168.34 103.832 168.34H106.832C107.385 168.34 107.832 168.788 107.832 169.34C107.832 169.892 107.385 170.34 106.832 170.34ZM99.8319 170.34H96.8319C96.2789 170.34 95.8319 169.892 95.8319 169.34C95.8319 168.788 96.2789 168.34 96.8319 168.34H99.8319C100.385 168.34 100.832 168.788 100.832 169.34C100.832 169.892 100.385 170.34 99.8319 170.34ZM32.1948 170.34H29.1948C28.6418 170.34 28.1948 169.892 28.1948 169.34C28.1948 168.788 28.6418 168.34 29.1948 168.34H32.1948C32.7478 168.34 33.1948 168.788 33.1948 169.34C33.1948 169.892 32.7478 170.34 32.1948 170.34ZM25.1948 170.34H22.1948C21.6418 170.34 21.1948 169.892 21.1948 169.34C21.1948 168.788 21.6418 168.34 22.1948 168.34H25.1948C25.7478 168.34 26.1948 168.788 26.1948 169.34C26.1948 169.892 25.7478 170.34 25.1948 170.34ZM18.1948 170.34H15.1948C14.6418 170.34 14.1948 169.892 14.1948 169.34C14.1948 168.788 14.6418 168.34 15.1948 168.34H18.1948C18.7478 168.34 19.1948 168.788 19.1948 169.34C19.1948 169.892 18.7478 170.34 18.1948 170.34ZM117.83 170.314C117.319 170.314 116.884 169.925 116.835 169.407C116.784 168.857 117.189 168.37 117.738 168.319C118.565 168.242 119.37 167.953 120.063 167.484C120.522 167.174 121.143 167.295 121.452 167.752C121.762 168.21 121.641 168.832 121.184 169.141C120.212 169.799 119.084 170.203 117.923 170.311C117.893 170.312 117.861 170.314 117.83 170.314ZM11.3239 169.593C11.1599 169.593 10.9938 169.553 10.8408 169.468C9.81982 168.903 8.94787 168.085 8.31787 167.102C8.01987 166.637 8.15487 166.019 8.61987 165.72C9.08487 165.421 9.70283 165.557 10.0018 166.022C10.4538 166.727 11.0789 167.314 11.8109 167.718C12.2939 167.986 12.4689 168.594 12.2019 169.077C12.0179 169.407 11.6759 169.593 11.3239 169.593ZM122.985 166.174C122.883 166.174 122.779 166.158 122.676 166.125C122.151 165.955 121.864 165.391 122.033 164.866C122.192 164.374 122.273 163.86 122.273 163.34V162.205C122.273 161.653 122.72 161.205 123.273 161.205C123.826 161.205 124.273 161.653 124.273 162.205V163.34C124.273 164.07 124.16 164.791 123.935 165.482C123.8 165.905 123.407 166.174 122.985 166.174ZM8.21387 163.744C7.66087 163.744 7.21387 163.296 7.21387 162.744V159.744C7.21387 159.192 7.66087 158.744 8.21387 158.744C8.76687 158.744 9.21387 159.192 9.21387 159.744V162.744C9.21387 163.296 8.76687 163.744 8.21387 163.744ZM123.274 159.205C122.721 159.205 122.274 158.757 122.274 158.205V158.005H121.474C120.921 158.005 120.474 157.557 120.474 157.005C120.474 156.453 120.921 156.005 121.474 156.005H123.274C123.827 156.005 124.274 156.453 124.274 157.005V158.205C124.274 158.757 123.827 159.205 123.274 159.205ZM117.475 158.005H114.475C113.922 158.005 113.475 157.557 113.475 157.005C113.475 156.453 113.922 156.005 114.475 156.005H117.475C118.028 156.005 118.475 156.453 118.475 157.005C118.475 157.557 118.027 158.005 117.475 158.005ZM110.475 158.005H107.475C106.922 158.005 106.475 157.557 106.475 157.005C106.475 156.453 106.922 156.005 107.475 156.005H110.475C111.028 156.005 111.475 156.453 111.475 157.005C111.475 157.557 111.027 158.005 110.475 158.005ZM103.475 158.005H100.475C99.9219 158.005 99.4749 157.557 99.4749 157.005C99.4749 156.453 99.9219 156.005 100.475 156.005H103.475C104.028 156.005 104.475 156.453 104.475 157.005C104.475 157.557 104.027 158.005 103.475 158.005ZM96.4749 158.005H93.4749C92.9219 158.005 92.4749 157.557 92.4749 157.005C92.4749 156.453 92.9219 156.005 93.4749 156.005H96.4749C97.0279 156.005 97.4749 156.453 97.4749 157.005C97.4749 157.557 97.0269 158.005 96.4749 158.005ZM89.4749 158.005H86.4749C85.9219 158.005 85.4749 157.557 85.4749 157.005C85.4749 156.453 85.9219 156.005 86.4749 156.005H89.4749C90.0279 156.005 90.4749 156.453 90.4749 157.005C90.4749 157.557 90.0269 158.005 89.4749 158.005ZM82.4749 158.005H79.4749C78.9219 158.005 78.4749 157.557 78.4749 157.005C78.4749 156.453 78.9219 156.005 79.4749 156.005H82.4749C83.0279 156.005 83.4749 156.453 83.4749 157.005C83.4749 157.557 83.0269 158.005 82.4749 158.005ZM75.4749 158.005H72.4749C71.9219 158.005 71.4749 157.557 71.4749 157.005C71.4749 156.453 71.9219 156.005 72.4749 156.005H75.4749C76.0279 156.005 76.4749 156.453 76.4749 157.005C76.4749 157.557 76.0269 158.005 75.4749 158.005ZM68.4749 158.005H65.4749C64.9219 158.005 64.4749 157.557 64.4749 157.005C64.4749 156.453 64.9219 156.005 65.4749 156.005H68.4749C69.0279 156.005 69.4749 156.453 69.4749 157.005C69.4749 157.557 69.0269 158.005 68.4749 158.005ZM61.4749 158.005H58.4749C57.9219 158.005 57.4749 157.557 57.4749 157.005C57.4749 156.453 57.9219 156.005 58.4749 156.005H61.4749C62.0279 156.005 62.4749 156.453 62.4749 157.005C62.4749 157.557 62.0269 158.005 61.4749 158.005ZM54.4749 158.005H51.4749C50.9219 158.005 50.4749 157.557 50.4749 157.005C50.4749 156.453 50.9219 156.005 51.4749 156.005H54.4749C55.0279 156.005 55.4749 156.453 55.4749 157.005C55.4749 157.557 55.0269 158.005 54.4749 158.005ZM47.4749 158.005H44.4749C43.9219 158.005 43.4749 157.557 43.4749 157.005C43.4749 156.453 43.9219 156.005 44.4749 156.005H47.4749C48.0279 156.005 48.4749 156.453 48.4749 157.005C48.4749 157.557 48.0269 158.005 47.4749 158.005ZM40.4749 158.005H37.4749C36.9219 158.005 36.4749 157.557 36.4749 157.005C36.4749 156.453 36.9219 156.005 37.4749 156.005H40.4749C41.0279 156.005 41.4749 156.453 41.4749 157.005C41.4749 157.557 41.0269 158.005 40.4749 158.005ZM33.4749 158.005H30.4749C29.9219 158.005 29.4749 157.557 29.4749 157.005C29.4749 156.453 29.9219 156.005 30.4749 156.005H33.4749C34.0279 156.005 34.4749 156.453 34.4749 157.005C34.4749 157.557 34.0269 158.005 33.4749 158.005ZM26.4749 158.005H23.4749C22.9219 158.005 22.4749 157.557 22.4749 157.005C22.4749 156.453 22.9219 156.005 23.4749 156.005H26.4749C27.0279 156.005 27.4749 156.453 27.4749 157.005C27.4749 157.557 27.0269 158.005 26.4749 158.005ZM19.4749 158.005H16.4749C15.9219 158.005 15.4749 157.557 15.4749 157.005C15.4749 156.453 15.9219 156.005 16.4749 156.005H19.4749C20.0279 156.005 20.4749 156.453 20.4749 157.005C20.4749 157.557 20.0269 158.005 19.4749 158.005ZM12.4749 158.005H9.47485C8.92185 158.005 8.47485 157.557 8.47485 157.005C8.47485 156.453 8.92185 156.005 9.47485 156.005H12.4749C13.0279 156.005 13.4749 156.453 13.4749 157.005C13.4749 157.557 13.0269 158.005 12.4749 158.005Z" fill="currentColor"/>
<path d="M86.2393 170.34H83.2393C82.6863 170.34 82.2393 169.892 82.2393 169.34C82.2393 168.788 82.6863 168.34 83.2393 168.34H86.2393C86.7923 168.34 87.2393 168.788 87.2393 169.34C87.2393 169.892 86.7923 170.34 86.2393 170.34ZM79.2393 170.34H76.2393C75.6863 170.34 75.2393 169.892 75.2393 169.34C75.2393 168.788 75.6863 168.34 76.2393 168.34H79.2393C79.7923 168.34 80.2393 168.788 80.2393 169.34C80.2393 169.892 79.7923 170.34 79.2393 170.34ZM72.2393 170.34H69.2393C68.6863 170.34 68.2393 169.892 68.2393 169.34C68.2393 168.788 68.6863 168.34 69.2393 168.34H72.2393C72.7923 168.34 73.2393 168.788 73.2393 169.34C73.2393 169.892 72.7923 170.34 72.2393 170.34ZM65.2393 170.34H62.2393C61.6863 170.34 61.2393 169.892 61.2393 169.34C61.2393 168.788 61.6863 168.34 62.2393 168.34H65.2393C65.7923 168.34 66.2393 168.788 66.2393 169.34C66.2393 169.892 65.7923 170.34 65.2393 170.34ZM58.2393 170.34H55.2393C54.6863 170.34 54.2393 169.892 54.2393 169.34C54.2393 168.788 54.6863 168.34 55.2393 168.34H58.2393C58.7923 168.34 59.2393 168.788 59.2393 169.34C59.2393 169.892 58.7923 170.34 58.2393 170.34ZM51.2393 170.34H48.2393C47.6863 170.34 47.2393 169.892 47.2393 169.34C47.2393 168.788 47.6863 168.34 48.2393 168.34H51.2393C51.7923 168.34 52.2393 168.788 52.2393 169.34C52.2393 169.892 51.7923 170.34 51.2393 170.34ZM44.2393 170.34H41.2393C40.6863 170.34 40.2393 169.892 40.2393 169.34C40.2393 168.788 40.6863 168.34 41.2393 168.34H44.2393C44.7923 168.34 45.2393 168.788 45.2393 169.34C45.2393 169.892 44.7923 170.34 44.2393 170.34Z" fill="currentColor"/>
<path d="M23.0898 141.314C23.6338 141.314 24.0759 140.872 24.0759 140.328C24.0759 139.784 23.6338 139.342 23.0898 139.342H18.2699C17.7339 139.342 17.2969 139.784 17.2969 140.328V149.244C17.2969 149.789 17.7249 150.216 18.2699 150.216H23.0898C23.6338 150.216 24.0759 149.78 24.0759 149.244C24.0759 148.701 23.6338 148.258 23.0898 148.258H19.2559V145.8H23.0898C23.6338 145.8 24.0759 145.364 24.0759 144.828C24.0759 144.275 23.6418 143.842 23.0898 143.842H19.2559V141.314H23.0898Z" fill="currentColor"/>
<path d="M41.0087 139.369C40.4487 139.369 39.9937 139.817 39.9937 140.369V146.415C39.9937 147.597 38.9406 148.215 37.9006 148.215C36.8676 148.215 35.8226 147.596 35.8226 146.415V140.369C35.8226 139.818 35.3676 139.369 34.8076 139.369C34.2466 139.369 33.8076 139.808 33.8076 140.369V146.415C33.8076 148.901 35.9156 150.243 37.9006 150.243C39.8916 150.243 42.0077 148.902 42.0077 146.415V140.369C42.0087 139.808 41.5687 139.369 41.0087 139.369Z" fill="currentColor"/>
<path d="M57.6442 145.525C58.7572 144.982 59.4681 143.888 59.4681 142.696C59.4681 140.878 58.0021 139.342 56.2671 139.342H52.9412V139.445C52.4942 139.539 52.1611 139.933 52.1611 140.397V149.23C52.1611 149.775 52.5882 150.202 53.1332 150.202C53.6782 150.202 54.1061 149.775 54.1061 149.23V145.883H55.6342L57.6371 149.684C57.7921 150.012 58.1221 150.215 58.4971 150.215C58.6681 150.215 58.8192 150.177 58.9562 150.101C59.1862 149.981 59.3562 149.778 59.4352 149.528C59.5122 149.279 59.4891 149.015 59.3691 148.783L57.6442 145.525ZM57.5231 142.696C57.5231 143.358 56.8842 143.939 56.1552 143.939H54.1041V141.299H56.2661C56.9251 141.3 57.5231 141.965 57.5231 142.696Z" fill="currentColor"/>
<path d="M75.0768 139.327C72.0748 139.327 69.6328 141.763 69.6328 144.757C69.6328 147.758 72.0748 150.2 75.0768 150.2C78.0708 150.2 80.5078 147.764 80.5078 144.77C80.5078 141.769 78.0708 139.327 75.0768 139.327ZM78.5208 144.757C78.5208 146.664 76.9758 148.215 75.0768 148.215C73.1698 148.215 71.6188 146.664 71.6188 144.757C71.6188 142.858 73.1698 141.313 75.0768 141.313C76.9768 141.313 78.5208 142.858 78.5208 144.757Z" fill="currentColor"/>
<path d="M94.7671 139.313H91.4401V139.417C90.9931 139.511 90.6602 139.905 90.6602 140.369V149.215C90.6602 149.76 91.0882 150.188 91.6332 150.188C92.1782 150.188 92.6061 149.76 92.6061 149.215V145.869H94.6571C96.4601 145.869 97.9832 144.402 97.9832 142.667C97.9812 140.849 96.5091 139.313 94.7671 139.313ZM96.0221 142.667C96.0221 143.329 95.3832 143.911 94.6552 143.911H92.6041V141.271H94.7661C95.4241 141.272 96.0221 141.936 96.0221 142.667Z" fill="currentColor"/>
<path d="M113.646 145.8C114.19 145.8 114.631 145.364 114.631 144.828C114.631 144.275 114.198 143.842 113.646 143.842H109.812V141.314H113.646C114.19 141.314 114.631 140.872 114.631 140.328C114.631 139.784 114.19 139.342 113.646 139.342H108.826C108.29 139.342 107.853 139.784 107.853 140.328V149.244C107.853 149.789 108.281 150.216 108.826 150.216H113.646C114.19 150.216 114.631 149.78 114.631 149.244C114.631 148.701 114.19 148.258 113.646 148.258H109.812V145.8H113.646Z" fill="currentColor"/>
<path d="M22.7129 28.9531C22.7129 29.3193 22.5835 29.6318 22.3247 29.8906C22.061 30.1494 21.7461 30.2788 21.3799 30.2788C21.0137 30.2788 20.7012 30.1494 20.4424 29.8906C20.1836 29.6318 20.0542 29.3193 20.0542 28.9531V24.5732C20.0542 24.207 20.1836 23.8921 20.4424 23.6284C20.7012 23.3696 21.0137 23.2402 21.3799 23.2402C21.7461 23.2402 22.061 23.3696 22.3247 23.6284C22.5835 23.8921 22.7129 24.207 22.7129 24.5732V28.9531ZM21.3799 21.519C20.54 21.519 19.8223 21.8169 19.2266 22.4126C18.6309 23.0083 18.333 23.7285 18.333 24.5732V28.9531C18.333 29.793 18.6309 30.5107 19.2266 31.1064C19.8223 31.7021 20.54 32 21.3799 32C22.2246 32 22.9448 31.7021 23.5405 31.1064C24.1362 30.5107 24.4341 29.793 24.4341 28.9531V24.5732C24.4341 23.7285 24.1362 23.0083 23.5405 22.4126C22.9448 21.8169 22.2246 21.519 21.3799 21.519ZM29.4321 24.5732C29.4321 24.207 29.5615 23.8921 29.8203 23.6284C30.0791 23.3696 30.3916 23.2402 30.7578 23.2402C31.124 23.2402 31.439 23.3696 31.7026 23.6284C31.9614 23.8921 32.0908 24.207 32.0908 24.5732C32.0908 24.9395 31.9614 25.252 31.7026 25.5107C31.439 25.7695 31.124 25.8989 30.7578 25.8989C30.3916 25.8989 30.0791 25.7695 29.8203 25.5107C29.5615 25.252 29.4321 24.9395 29.4321 24.5732ZM32.0908 28.9531C32.0908 29.3193 31.9614 29.6318 31.7026 29.8906C31.439 30.1494 31.124 30.2788 30.7578 30.2788C30.3916 30.2788 30.0791 30.1494 29.8203 29.8906C29.5615 29.6318 29.4321 29.3193 29.4321 28.9531C29.4321 28.582 29.5615 28.2671 29.8203 28.0083C30.0791 27.7495 30.3916 27.6201 30.7578 27.6201C31.124 27.6201 31.439 27.7495 31.7026 28.0083C31.9614 28.2671 32.0908 28.582 32.0908 28.9531ZM33.812 24.5732C33.812 23.7285 33.5142 23.0083 32.9185 22.4126C32.3228 21.8169 31.6025 21.519 30.7578 21.519C29.918 21.519 29.2002 21.8169 28.6045 22.4126C28.0088 23.0083 27.7109 23.7285 27.7109 24.5732C27.7109 25.4326 28.021 26.1626 28.6411 26.7632C28.021 27.3638 27.7109 28.0938 27.7109 28.9531C27.7109 29.793 28.0088 30.5107 28.6045 31.1064C29.2002 31.7021 29.918 32 30.7578 32C31.6025 32 32.3228 31.7021 32.9185 31.1064C33.5142 30.5107 33.812 29.793 33.812 28.9531C33.812 28.0938 33.502 27.3638 32.8818 26.7632C33.502 26.1626 33.812 25.4326 33.812 24.5732ZM38.2021 30.2275C37.9678 30.2275 37.7651 30.3105 37.5942 30.4766C37.4282 30.6426 37.3452 30.8452 37.3452 31.0845C37.3452 31.3237 37.4282 31.5264 37.5942 31.6924C37.7651 31.8584 37.9678 31.9414 38.2021 31.9414C38.4414 31.9414 38.644 31.8584 38.8101 31.6924C38.981 31.5264 39.0664 31.3237 39.0664 31.0845C39.0664 30.8452 38.981 30.6426 38.8101 30.4766C38.644 30.3105 38.4414 30.2275 38.2021 30.2275ZM45.8809 23.6284V31.1357C45.8809 31.375 45.9663 31.5776 46.1372 31.7437C46.3032 31.9146 46.5059 32 46.7451 32C46.9844 32 47.1895 31.9146 47.3604 31.7437C47.5264 31.5776 47.6094 31.375 47.6094 31.1357V22.3979C47.6094 22.1001 47.4873 21.8657 47.2432 21.6948C46.999 21.5239 46.7354 21.4873 46.4521 21.585L44.1963 22.4053C43.9717 22.4883 43.8081 22.6372 43.7056 22.8521C43.6079 23.0669 43.5981 23.2866 43.6763 23.5112C43.7593 23.7358 43.9082 23.8994 44.123 24.002C44.3379 24.0996 44.5576 24.1094 44.7822 24.0312L45.8809 23.6284ZM54.27 24.5732C54.27 24.207 54.3994 23.8921 54.6582 23.6284C54.917 23.3696 55.2295 23.2402 55.5957 23.2402C55.9619 23.2402 56.2769 23.3696 56.5405 23.6284C56.7993 23.8921 56.9287 24.207 56.9287 24.5732C56.9287 24.9395 56.7993 25.252 56.5405 25.5107C56.2769 25.7695 55.9619 25.8989 55.5957 25.8989C55.2295 25.8989 54.917 25.7695 54.6582 25.5107C54.3994 25.252 54.27 24.9395 54.27 24.5732ZM56.9287 28.9531C56.9287 29.3193 56.7993 29.6318 56.5405 29.8906C56.2769 30.1494 55.9619 30.2788 55.5957 30.2788C55.2295 30.2788 54.917 30.1494 54.6582 29.8906C54.3994 29.6318 54.27 29.3193 54.27 28.9531C54.27 28.582 54.3994 28.2671 54.6582 28.0083C54.917 27.7495 55.2295 27.6201 55.5957 27.6201C55.9619 27.6201 56.2769 27.7495 56.5405 28.0083C56.7993 28.2671 56.9287 28.582 56.9287 28.9531ZM58.6499 24.5732C58.6499 23.7285 58.3521 23.0083 57.7563 22.4126C57.1606 21.8169 56.4404 21.519 55.5957 21.519C54.7559 21.519 54.0381 21.8169 53.4424 22.4126C52.8467 23.0083 52.5488 23.7285 52.5488 24.5732C52.5488 25.4326 52.8589 26.1626 53.479 26.7632C52.8589 27.3638 52.5488 28.0938 52.5488 28.9531C52.5488 29.793 52.8467 30.5107 53.4424 31.1064C54.0381 31.7021 54.7559 32 55.5957 32C56.4404 32 57.1606 31.7021 57.7563 31.1064C58.3521 30.5107 58.6499 29.793 58.6499 28.9531C58.6499 28.0938 58.3398 27.3638 57.7197 26.7632C58.3398 26.1626 58.6499 25.4326 58.6499 24.5732Z" fill="currentColor"/>
</svg>
