<svg width="297" height="198" viewBox="75 33 158 135" fill="none" xmlns="http://www.w3.org/2000/svg">
<path d="M178.652 57.4982C194.921 67.5632 216.8 74.4932 220.595 86.0432C224.39 97.6262 210.101 113.862 196.736 124.686C183.371 135.51 170.996 140.922 157.235 148.446C143.507 155.937 128.393 165.573 113.543 164.517C98.6932 163.461 84.0742 151.713 78.5302 137.16C73.0192 122.607 76.5502 105.216 82.5232 91.1912C88.5292 77.1662 96.9442 66.5072 107.108 55.3862C117.305 44.2652 129.251 32.6492 140.537 33.4412C151.79 34.2332 162.416 47.4662 178.652 57.4982Z" fill="#DDC7A6"/>
<g style="mix-blend-mode:difference">
<path d="M198.604 82.0708L198.117 81.9578L198.117 81.9578L198.604 82.0708ZM198.722 63.9145L199.217 63.8398L199.213 63.8127L199.206 63.7862L198.722 63.9145ZM195.722 59.9145L196.014 59.5085L195.992 59.4923L195.968 59.4788L195.722 59.9145ZM181.722 54.4145L181.751 53.9153L181.743 53.9148L181.735 53.9146L181.722 54.4145ZM156.722 70.9145L156.223 70.9292L156.223 70.951L156.226 70.9726L156.722 70.9145ZM159.222 85.4145L159.712 85.3144L159.71 85.3025L159.222 85.4145ZM156.222 89.9145L155.763 90.1114L155.769 90.1249L155.775 90.1381L156.222 89.9145ZM200.722 88.4145L201.191 88.59L201.203 88.5572L201.21 88.5229L200.722 88.4145ZM195.683 94.9145L195.191 94.8279L195.191 94.8279L195.683 94.9145ZM140.015 105.959C139.764 106.074 139.653 106.37 139.767 106.622C139.882 106.873 140.178 106.984 140.43 106.869L140.015 105.959ZM195.295 99.4197C195.022 99.3797 194.768 99.5687 194.728 99.842C194.688 100.115 194.877 100.369 195.15 100.409L195.295 99.4197ZM219.01 106.867C219.26 106.984 219.557 106.877 219.675 106.627C219.792 106.377 219.685 106.079 219.435 105.962L219.01 106.867ZM130.332 127.536C130.399 127.268 130.237 126.996 129.969 126.929C129.701 126.862 129.429 127.025 129.362 127.293L130.332 127.536ZM131.722 164.914C131.999 164.914 132.222 164.691 132.222 164.414C132.222 164.138 131.999 163.914 131.722 163.914V164.914ZM226.871 127.828C226.823 127.556 226.564 127.374 226.292 127.422C226.02 127.47 225.838 127.729 225.886 128.001L226.871 127.828ZM224.275 163.917C224 163.888 223.754 164.087 223.725 164.362C223.696 164.637 223.895 164.883 224.17 164.912L224.275 163.917ZM231.222 150.914L230.732 151.01L231.222 150.914ZM131.672 161.468L131.172 161.495L131.672 161.468ZM224.281 161.477L223.782 161.446L224.281 161.477ZM128.779 107.468L129.278 107.441L128.779 107.468ZM194.097 102.078L193.703 101.77L193.703 101.77L194.097 102.078ZM194.271 101.714L193.784 101.597L194.271 101.714ZM227.656 107.477L228.155 107.508L228.155 107.508L227.656 107.477ZM159.883 65.476L160.351 65.6507L159.883 65.476ZM159.292 66.087L159.489 66.5466L159.292 66.087ZM189.994 69.525L190.069 70.0194L189.994 69.525ZM191.047 70.0685L191.495 69.8471L191.047 70.0685ZM163.363 102.083L163.746 101.761L163.746 101.761L163.363 102.083ZM163.166 101.701L162.682 101.829L163.166 101.701ZM162.698 70.9946L163.197 71.0043L162.698 70.9946ZM164.168 70.0403L163.99 70.5076L164.168 70.0403ZM159.559 86.2842C160.684 85.2605 161.546 83.7886 162.15 81.407C162.752 79.0348 163.106 75.73 163.197 71.0043L162.198 70.9849C162.107 75.6833 161.755 78.8989 161.181 81.161C160.609 83.4136 159.825 84.6897 158.886 85.5447L159.559 86.2842ZM163.99 70.5076C169.015 72.4204 175.445 72.2258 190.069 70.0194L189.919 69.0306C175.249 71.244 169.086 71.3773 164.345 69.573L163.99 70.5076ZM190.599 70.2899C194.347 77.8793 195.676 81.9691 196.224 88.4565L197.221 88.3724C196.659 81.7213 195.278 77.5074 191.495 69.8471L190.599 70.2899ZM197.195 88.5786C197.998 86.2652 198.628 84.182 199.092 82.1837L198.117 81.9578C197.664 83.9114 197.046 85.959 196.25 88.2504L197.195 88.5786ZM199.092 82.1837C200.418 76.4622 200.371 71.4839 199.217 63.8398L198.228 63.9891C199.371 71.5607 199.406 76.4021 198.117 81.9578L199.092 82.1837ZM199.206 63.7862C198.945 62.8053 198.617 62.0592 198.1 61.3865C197.589 60.7218 196.916 60.1565 196.014 59.5085L195.43 60.3205C196.309 60.9521 196.887 61.4491 197.307 61.9957C197.72 62.5342 198.002 63.1483 198.239 64.0427L199.206 63.7862ZM195.968 59.4788C188.825 55.4583 185.617 54.1393 181.751 53.9153L181.693 54.9136C185.308 55.123 188.338 56.3314 195.477 60.3502L195.968 59.4788ZM181.735 53.9146C175.071 53.7389 170.36 54.1984 166.874 55.9165C163.35 57.6533 161.153 60.6363 159.414 65.3014L160.351 65.6507C162.04 61.1194 164.105 58.3961 167.316 56.8134C170.565 55.212 175.059 54.739 181.709 54.9143L181.735 53.9146ZM159.095 65.6274C157.877 66.1496 157.096 66.7824 156.662 67.6932C156.242 68.5735 156.184 69.6415 156.223 70.9292L157.222 70.8997C157.184 69.6185 157.257 68.7675 157.564 68.1236C157.857 67.5103 158.399 67.0138 159.489 66.5466L159.095 65.6274ZM162.98 102.404C163.561 103.095 165.876 105.835 166.88 106.779L167.565 106.05C166.615 105.157 164.347 102.476 163.746 101.761L162.98 102.404ZM190.076 106.768C190.812 106.034 191.59 105.347 192.363 104.626C193.126 103.914 193.872 103.179 194.491 102.386L193.703 101.77C193.134 102.499 192.436 103.19 191.68 103.895C190.935 104.59 190.12 105.311 189.369 106.061L190.076 106.768ZM156.226 70.9726C156.821 76.0623 157.321 79.1437 158.284 83.5218L159.26 83.3071C158.306 78.9668 157.811 75.9189 157.219 70.8564L156.226 70.9726ZM158.284 83.5218C158.424 84.1594 158.574 84.8242 158.735 85.5265L159.71 85.3025C159.549 84.6027 159.4 83.941 159.26 83.3071L158.284 83.5218ZM158.703 82.9192C156.91 83.167 155.702 84.001 155.213 85.3551C154.742 86.6603 154.993 88.3148 155.763 90.1114L156.682 89.7175C155.952 88.0141 155.809 86.6491 156.154 85.6946C156.48 84.7889 157.297 84.1229 158.84 83.9098L158.703 82.9192ZM155.775 90.1381C156.537 91.6625 157.265 92.7882 158.097 93.688C158.933 94.5914 159.856 95.2479 160.986 95.8549L161.459 94.9741C160.401 94.405 159.574 93.8114 158.832 93.0089C158.086 92.2027 157.407 91.1665 156.67 89.6909L155.775 90.1381ZM198.376 82.5156C199.478 83.0808 200.091 83.4726 200.394 84.1717C200.708 84.8963 200.733 86.0617 200.234 88.306L201.21 88.5229C201.712 86.2672 201.764 84.8179 201.312 83.7743C200.849 82.7052 199.903 82.1751 198.833 81.6259L198.376 82.5156ZM194.757 101.83C195.339 99.3987 195.762 97.3535 196.176 95.0011L195.191 94.8279C194.781 97.1602 194.362 99.1855 193.784 101.597L194.757 101.83ZM196.176 95.0011C196.504 93.1368 196.826 91.0806 197.217 88.4891L196.228 88.3399C195.837 90.9298 195.517 92.9761 195.191 94.8279L196.176 95.0011ZM200.254 88.2389C199.52 90.1962 198.767 91.4217 197.982 92.3199C197.193 93.2229 196.355 93.8163 195.392 94.5084L195.975 95.3206C196.926 94.6379 197.858 93.9813 198.735 92.9779C199.616 91.9698 200.425 90.6327 201.191 88.59L200.254 88.2389ZM158.732 85.5145C159.592 89.7252 161.056 95.5511 161.955 99.0392L162.923 98.7897C162.024 95.3012 160.567 89.4975 159.712 85.3144L158.732 85.5145ZM161.955 99.0392C162.306 100.401 162.571 101.409 162.682 101.829L163.649 101.573C163.538 101.155 163.273 100.149 162.923 98.7897L161.955 99.0392ZM162.294 98.4358C152.467 101.401 146.291 103.101 140.015 105.959L140.43 106.869C146.628 104.046 152.718 102.37 162.583 99.3931L162.294 98.4358ZM195.15 100.409C206.356 102.052 211.662 103.414 219.01 106.867L219.435 105.962C211.965 102.452 206.553 101.07 195.295 99.4197L195.15 100.409ZM129.362 127.293C128.112 132.295 126.736 137.08 125.579 141.507C124.426 145.914 123.495 149.948 123.162 153.366C122.832 156.768 123.082 159.662 124.399 161.716C125.745 163.814 128.119 164.914 131.722 164.914V163.914C128.325 163.914 126.34 162.89 125.241 161.176C124.113 159.417 123.832 156.811 124.158 153.463C124.482 150.131 125.394 146.165 126.546 141.76C127.693 137.374 129.083 132.534 130.332 127.536L129.362 127.293ZM225.886 128.001C226.98 134.238 227.905 138.522 228.7 141.985C229.496 145.454 230.157 148.072 230.732 151.01L231.713 150.818C231.134 147.859 230.465 145.205 229.674 141.761C228.883 138.312 227.962 134.046 226.871 127.828L225.886 128.001ZM230.732 151.01C231.107 152.928 231.446 154.77 231.6 156.444C231.754 158.124 231.716 159.591 231.368 160.773C231.025 161.935 230.385 162.812 229.308 163.359C228.21 163.918 226.602 164.162 224.275 163.917L224.17 164.912C226.593 165.167 228.422 164.932 229.762 164.251C231.123 163.558 231.92 162.436 232.327 161.056C232.728 159.695 232.754 158.08 232.595 156.353C232.436 154.621 232.088 152.734 231.713 150.818L230.732 151.01ZM129.777 106.914H226.658V105.914H129.777V106.914ZM227.157 107.446L223.782 161.446L224.78 161.508L228.155 107.508L227.157 107.446ZM223.283 161.914H132.67V162.914H223.283V161.914ZM132.171 161.441L129.278 107.441L128.28 107.495L131.172 161.495L132.171 161.441ZM132.67 161.914C132.404 161.914 132.185 161.707 132.171 161.441L131.172 161.495C131.215 162.291 131.873 162.914 132.67 162.914V161.914ZM223.782 161.446C223.766 161.709 223.547 161.914 223.283 161.914V162.914C224.075 162.914 224.731 162.299 224.78 161.508L223.782 161.446ZM129.777 105.914C128.917 105.914 128.234 106.636 128.28 107.495L129.278 107.441C129.263 107.155 129.491 106.914 129.777 106.914V105.914ZM194.491 102.386C194.622 102.219 194.71 102.028 194.757 101.83L193.784 101.597C193.768 101.665 193.74 101.723 193.703 101.77L194.491 102.386ZM226.658 106.914C226.946 106.914 227.175 107.158 227.157 107.446L228.155 107.508C228.209 106.644 227.523 105.914 226.658 105.914V106.914ZM159.414 65.3014C159.362 65.4415 159.246 65.5629 159.095 65.6274L159.489 66.5466C159.878 66.3801 160.198 66.0602 160.351 65.6507L159.414 65.3014ZM190.069 70.0194C190.288 69.9862 190.505 70.1004 190.599 70.2899L191.495 69.8471C191.204 69.2578 190.559 68.9341 189.919 69.0306L190.069 70.0194ZM163.746 101.761C163.7 101.707 163.668 101.644 163.649 101.573L162.682 101.829C162.738 102.039 162.839 102.235 162.98 102.404L163.746 101.761ZM163.197 71.0043C163.204 70.6448 163.602 70.3601 163.99 70.5076L164.345 69.573C163.363 69.1991 162.219 69.8787 162.198 70.9849L163.197 71.0043ZM132.722 166.914H223.222V165.914H132.722V166.914ZM224.722 165.414V162.914H223.722V165.414H224.722ZM224.722 162.914V162.414H223.722V162.914H224.722ZM131.222 162.414V162.914H132.222V162.414H131.222ZM131.222 162.914V165.414H132.222V162.914H131.222ZM224.222 162.414H131.722V163.414H224.222V162.414ZM223.222 166.914C224.051 166.914 224.722 166.243 224.722 165.414H223.722C223.722 165.691 223.499 165.914 223.222 165.914V166.914ZM132.722 165.914C132.446 165.914 132.222 165.691 132.222 165.414H131.222C131.222 166.243 131.894 166.914 132.722 166.914V165.914ZM182.722 133.914C182.722 136.4 180.708 138.414 178.222 138.414V139.414C181.26 139.414 183.722 136.952 183.722 133.914H182.722ZM178.222 138.414C175.737 138.414 173.722 136.4 173.722 133.914H172.722C172.722 136.952 175.185 139.414 178.222 139.414V138.414ZM173.722 133.914C173.722 131.429 175.737 129.414 178.222 129.414V128.414C175.185 128.414 172.722 130.877 172.722 133.914H173.722ZM178.222 129.414C180.708 129.414 182.722 131.429 182.722 133.914H183.722C183.722 130.877 181.26 128.414 178.222 128.414V129.414Z" fill="#9C9278"/>
</g>
</svg>
