<svg width="110" height="197" viewBox="0 0 110 197" fill="none" xmlns="http://www.w3.org/2000/svg">
<path d="M23.6177 67.6697C24.1827 67.6697 24.6428 67.2098 24.6428 66.6438V61.5398L28.9957 67.1917L28.9927 67.2207L29.0587 67.2869L29.0667 67.4397H29.2077L29.2188 67.5537H29.3908L29.3937 67.5557L29.4428 67.5928L29.4587 67.6238H29.5628L29.5947 67.6558L29.8637 67.6687C29.9037 67.6687 29.9537 67.6688 30.0067 67.6558C30.0597 67.6538 30.1068 67.6419 30.1458 67.6309L30.1987 67.6177C30.2437 67.6017 30.2767 67.5827 30.3007 67.5667L30.3878 67.5217C30.3978 67.5157 30.4088 67.5097 30.4218 67.5017H30.5997V67.3757L30.6397 67.3118C30.6467 67.3028 30.6527 67.2937 30.6597 67.2837L30.7907 67.0999V67.0747C30.7937 67.0687 30.7957 67.0627 30.7987 67.0557L30.8417 66.9858L30.8547 66.8997C30.8557 66.8977 30.8558 66.8958 30.8568 66.8938L30.8928 66.8918V58.5378C30.8928 57.9728 30.4328 57.5127 29.8668 57.5127C29.2918 57.5127 28.8417 57.9628 28.8417 58.5378V63.6418L24.4547 57.9468C24.4457 57.9278 24.4337 57.9118 24.4207 57.8958L24.3457 57.8147L24.3287 57.8276C24.3247 57.8256 24.3207 57.8238 24.3167 57.8228L24.3237 57.7727L24.0678 57.5876H24.0128L23.8137 57.5117L23.3388 57.5369L23.2058 57.6008C23.1998 57.6028 23.1947 57.6047 23.1887 57.6067L22.9757 57.6128V57.7307L22.9528 57.7559L22.9577 57.7607C22.9447 57.7767 22.9338 57.7937 22.9248 57.8127L22.9088 57.8008L22.6827 58.0898L22.6577 58.1807C22.6547 58.1877 22.6517 58.1947 22.6487 58.2017L22.6447 58.2139C22.6417 58.2219 22.6398 58.2308 22.6378 58.2388L22.5938 66.6387C22.5918 67.2097 23.0517 67.6697 23.6177 67.6697Z" fill="currentColor"/>
<path d="M29.1256 73.7729C29.6846 73.7729 30.1396 73.319 30.1396 72.76C30.1396 72.201 29.6846 71.7461 29.1256 71.7461H24.7246C24.1726 71.7461 23.7246 72.201 23.7246 72.76V80.9009C23.7246 81.4629 24.1636 81.9021 24.7246 81.9021H29.1256C29.6846 81.9021 30.1396 81.4529 30.1396 80.9009C30.1396 80.3419 29.6846 79.8879 29.1256 79.8879H25.7376V77.8689H29.1256C29.6846 77.8689 30.1396 77.4199 30.1396 76.8679C30.1396 76.3009 29.6946 75.855 29.1256 75.855H25.7376V73.772L29.1256 73.7729Z" fill="currentColor"/>
<path d="M32.0973 86.5632C31.9513 86.3352 31.7253 86.1802 31.4633 86.1252C30.9263 86.0082 30.3624 86.3681 30.2494 86.9001L29.0603 92.2573L27.6363 89.5971C27.4633 89.2691 27.1123 89.0571 26.7313 89.0571H26.7303C26.3493 89.0741 26.0143 89.2802 25.8313 89.6152L24.5103 92.2353L23.2313 86.8813C23.0993 86.3523 22.6063 85.9952 22.0013 86.1272C21.7393 86.1912 21.5183 86.3563 21.3773 86.5903C21.2353 86.8233 21.1933 87.0972 21.2583 87.3562L23.1593 95.3503L23.2813 95.7143H23.3033C23.3143 95.7323 23.3263 95.7472 23.3393 95.7602L23.4533 95.9311H23.4873C23.4973 95.9391 23.5063 95.9452 23.5113 95.9472C23.5453 95.9812 23.5803 96.0032 23.6003 96.0102L23.6753 96.0832L23.6894 96.1591L24.1593 96.1843C24.1883 96.1843 24.2353 96.1841 24.2873 96.1711L24.4533 96.1582L24.4833 96.1281C24.4913 96.1251 24.4984 96.1233 24.5044 96.1203L24.8794 95.9023V95.8772C24.8844 95.8722 24.8903 95.8673 24.8953 95.8623L24.9083 95.8471C24.9133 95.8401 24.9183 95.8341 24.9233 95.8271L26.7603 92.2773L28.5793 95.6862L28.5703 95.7441L28.6533 95.7961V95.9543H28.8133L28.8643 96.0051L28.9333 96.1323L29.2563 96.1572C29.2823 96.1642 29.3073 96.1672 29.3283 96.1692C29.3793 96.1832 29.4233 96.1833 29.4503 96.1833H29.4633L29.5693 96.1733L30.0553 96.0112L30.1833 96.0051V95.8713C30.1923 95.8623 30.2023 95.8522 30.2113 95.8432C30.2363 95.8182 30.2744 95.7801 30.3064 95.7231L30.3503 95.6443C30.3643 95.6213 30.3843 95.5872 30.3993 95.5402L30.4083 95.5051C30.4183 95.4781 30.4293 95.4423 30.4443 95.3913L32.2383 87.3381C32.2963 87.0741 32.2443 86.7922 32.0973 86.5632Z" fill="currentColor"/>
<path d="M27.1917 120.462C27.7537 120.462 28.1927 120.023 28.1927 119.462V116.127L31.3457 112.148C31.6867 111.705 31.6137 111.084 31.1727 110.729C30.7437 110.398 30.0757 110.482 29.7557 110.899L27.2077 114.13L24.6917 110.813C24.3617 110.383 23.7187 110.285 23.2727 110.614C23.0597 110.777 22.9227 111.015 22.8877 111.285C22.8527 111.556 22.9227 111.821 23.0857 112.032L26.1777 116.125V119.463C26.1797 120.014 26.6337 120.462 27.1917 120.462Z" fill="currentColor"/>
<path d="M26.7471 124.514C23.9431 124.514 21.6621 126.789 21.6621 129.585C21.6621 132.389 23.9431 134.669 26.7471 134.669C29.5431 134.669 31.8171 132.394 31.8171 129.598C31.8171 126.794 29.5431 124.514 26.7471 124.514ZM29.7781 129.585C29.7781 131.264 28.4191 132.629 26.7471 132.629C25.0671 132.629 23.7011 131.264 23.7011 129.585C23.7011 127.913 25.0671 126.553 26.7471 126.553C28.4191 126.553 29.7781 127.914 29.7781 129.585Z" fill="currentColor"/>
<path d="M30.1832 141.947C30.1832 140.225 28.7932 138.771 27.1482 138.771H23.9972V138.891C23.5832 139.018 23.2852 139.4 23.2852 139.847V147.912C23.2852 148.474 23.7242 148.913 24.2862 148.913C24.8472 148.913 25.2862 148.474 25.2862 147.912V144.969H26.5012L28.2962 148.376C28.4592 148.715 28.7992 148.926 29.1842 148.926C29.3592 148.926 29.5152 148.887 29.6552 148.809C30.1442 148.555 30.3352 147.947 30.0792 147.452L28.5592 144.577C29.5532 144.046 30.1832 143.041 30.1832 141.947ZM28.1822 141.947C28.1822 142.481 27.6402 142.968 27.0452 142.968H25.2852V140.784H27.1472C27.6882 140.785 28.1822 141.339 28.1822 141.947Z" fill="currentColor"/>
<path d="M26.5675 158.217L29.7255 154.926C30.1115 154.523 30.0965 153.879 29.6965 153.496C29.3215 153.12 28.6435 153.132 28.2705 153.524L25.3685 156.559V154.028C25.3685 153.469 24.9195 153.014 24.3675 153.014C23.8005 153.014 23.3545 153.459 23.3545 154.028V162.169C23.3545 162.731 23.7995 163.17 24.3675 163.17C24.9295 163.17 25.3685 162.731 25.3685 162.169V159.85L28.6355 162.922C28.8305 163.084 29.0625 163.17 29.3045 163.17C29.6105 163.17 29.8735 163.052 30.0615 162.835C30.2425 162.637 30.3325 162.38 30.3185 162.11C30.3035 161.838 30.1825 161.589 29.9835 161.415L26.5675 158.217Z" fill="currentColor"/>
<path d="M105.319 196.696H102.319C101.766 196.696 101.319 196.249 101.319 195.696C101.319 195.143 101.766 194.696 102.319 194.696H105.319C105.872 194.696 106.319 195.143 106.319 195.696C106.319 196.249 105.872 196.696 105.319 196.696ZM98.319 196.696H95.319C94.766 196.696 94.319 196.249 94.319 195.696C94.319 195.143 94.766 194.696 95.319 194.696H98.319C98.872 194.696 99.319 195.143 99.319 195.696C99.319 196.249 98.872 196.696 98.319 196.696ZM91.319 196.696H88.319C87.766 196.696 87.319 196.249 87.319 195.696C87.319 195.143 87.766 194.696 88.319 194.696H91.319C91.872 194.696 92.319 195.143 92.319 195.696C92.319 196.249 91.872 196.696 91.319 196.696ZM84.319 196.696H81.319C80.766 196.696 80.319 196.249 80.319 195.696C80.319 195.143 80.766 194.696 81.319 194.696H84.319C84.872 194.696 85.319 195.143 85.319 195.696C85.319 196.249 84.872 196.696 84.319 196.696ZM77.319 196.696H74.319C73.766 196.696 73.319 196.249 73.319 195.696C73.319 195.143 73.766 194.696 74.319 194.696H77.319C77.872 194.696 78.319 195.143 78.319 195.696C78.319 196.249 77.872 196.696 77.319 196.696ZM70.319 196.696H67.319C66.766 196.696 66.319 196.249 66.319 195.696C66.319 195.143 66.766 194.696 67.319 194.696H70.319C70.872 194.696 71.319 195.143 71.319 195.696C71.319 196.249 70.872 196.696 70.319 196.696ZM63.319 196.696H60.319C59.766 196.696 59.319 196.249 59.319 195.696C59.319 195.143 59.766 194.696 60.319 194.696H63.319C63.872 194.696 64.319 195.143 64.319 195.696C64.319 196.249 63.872 196.696 63.319 196.696ZM56.319 196.696H53.319C52.766 196.696 52.319 196.249 52.319 195.696C52.319 195.143 52.766 194.696 53.319 194.696H56.319C56.872 194.696 57.319 195.143 57.319 195.696C57.319 196.249 56.872 196.696 56.319 196.696ZM49.319 196.696H46.319C45.766 196.696 45.319 196.249 45.319 195.696C45.319 195.143 45.766 194.696 46.319 194.696H49.319C49.872 194.696 50.319 195.143 50.319 195.696C50.319 196.249 49.872 196.696 49.319 196.696ZM42.319 196.696H39.319C38.766 196.696 38.319 196.249 38.319 195.696C38.319 195.143 38.766 194.696 39.319 194.696H42.319C42.872 194.696 43.319 195.143 43.319 195.696C43.319 196.249 42.872 196.696 42.319 196.696ZM35.319 196.696H32.319C31.766 196.696 31.319 196.249 31.319 195.696C31.319 195.143 31.766 194.696 32.319 194.696H35.319C35.872 194.696 36.319 195.143 36.319 195.696C36.319 196.249 35.872 196.696 35.319 196.696ZM28.319 196.696H25.319C24.766 196.696 24.319 196.249 24.319 195.696C24.319 195.143 24.766 194.696 25.319 194.696H28.319C28.872 194.696 29.319 195.143 29.319 195.696C29.319 196.249 28.872 196.696 28.319 196.696ZM21.319 196.696H18.319C17.766 196.696 17.319 196.249 17.319 195.696C17.319 195.143 17.766 194.696 18.319 194.696H21.319C21.872 194.696 22.319 195.143 22.319 195.696C22.319 196.249 21.872 196.696 21.319 196.696ZM14.319 196.696H11.319C10.766 196.696 10.319 196.249 10.319 195.696C10.319 195.143 10.766 194.696 11.319 194.696H14.319C14.872 194.696 15.319 195.143 15.319 195.696C15.319 196.249 14.872 196.696 14.319 196.696ZM7.31897 196.696H4.31897C3.76597 196.696 3.31897 196.249 3.31897 195.696C3.31897 195.143 3.76597 194.696 4.31897 194.696H7.31897C7.87197 194.696 8.31897 195.143 8.31897 195.696C8.31897 196.249 7.87197 196.696 7.31897 196.696ZM1.16602 196.696C0.613016 196.696 0.166016 196.249 0.166016 195.696V192.696C0.166016 192.143 0.613016 191.696 1.16602 191.696C1.71902 191.696 2.16602 192.143 2.16602 192.696V195.696C2.16602 196.249 1.71902 196.696 1.16602 196.696ZM108.394 195.77C107.841 195.77 107.394 195.323 107.394 194.77V191.77C107.394 191.217 107.841 190.77 108.394 190.77C108.947 190.77 109.394 191.217 109.394 191.77V194.77C109.394 195.323 108.946 195.77 108.394 195.77ZM1.16602 189.696C0.613016 189.696 0.166016 189.249 0.166016 188.696V185.696C0.166016 185.143 0.613016 184.696 1.16602 184.696C1.71902 184.696 2.16602 185.143 2.16602 185.696V188.696C2.16602 189.249 1.71902 189.696 1.16602 189.696ZM108.394 188.77C107.841 188.77 107.394 188.323 107.394 187.77V184.77C107.394 184.217 107.841 183.77 108.394 183.77C108.947 183.77 109.394 184.217 109.394 184.77V187.77C109.394 188.323 108.946 188.77 108.394 188.77ZM1.16602 182.696C0.613016 182.696 0.166016 182.249 0.166016 181.696V178.696C0.166016 178.143 0.613016 177.696 1.16602 177.696C1.71902 177.696 2.16602 178.143 2.16602 178.696V181.696C2.16602 182.249 1.71902 182.696 1.16602 182.696ZM108.394 181.77C107.841 181.77 107.394 181.323 107.394 180.77V177.77C107.394 177.217 107.841 176.77 108.394 176.77C108.947 176.77 109.394 177.217 109.394 177.77V180.77C109.394 181.323 108.946 181.77 108.394 181.77ZM1.16602 175.696C0.613016 175.696 0.166016 175.249 0.166016 174.696V171.696C0.166016 171.143 0.613016 170.696 1.16602 170.696C1.71902 170.696 2.16602 171.143 2.16602 171.696V174.696C2.16602 175.249 1.71902 175.696 1.16602 175.696ZM108.394 174.77C107.841 174.77 107.394 174.323 107.394 173.77V170.77C107.394 170.217 107.841 169.77 108.394 169.77C108.947 169.77 109.394 170.217 109.394 170.77V173.77C109.394 174.323 108.946 174.77 108.394 174.77ZM1.16602 168.696C0.613016 168.696 0.166016 168.249 0.166016 167.696V164.696C0.166016 164.143 0.613016 163.696 1.16602 163.696C1.71902 163.696 2.16602 164.143 2.16602 164.696V167.696C2.16602 168.249 1.71902 168.696 1.16602 168.696ZM108.394 167.77C107.841 167.77 107.394 167.323 107.394 166.77V163.77C107.394 163.217 107.841 162.77 108.394 162.77C108.947 162.77 109.394 163.217 109.394 163.77V166.77C109.394 167.323 108.946 167.77 108.394 167.77ZM1.16602 161.696C0.613016 161.696 0.166016 161.249 0.166016 160.696V157.696C0.166016 157.143 0.613016 156.696 1.16602 156.696C1.71902 156.696 2.16602 157.143 2.16602 157.696V160.696C2.16602 161.249 1.71902 161.696 1.16602 161.696ZM108.394 160.77C107.841 160.77 107.394 160.323 107.394 159.77V156.77C107.394 156.217 107.841 155.77 108.394 155.77C108.947 155.77 109.394 156.217 109.394 156.77V159.77C109.394 160.323 108.946 160.77 108.394 160.77ZM1.16602 154.696C0.613016 154.696 0.166016 154.249 0.166016 153.696V150.696C0.166016 150.143 0.613016 149.696 1.16602 149.696C1.71902 149.696 2.16602 150.143 2.16602 150.696V153.696C2.16602 154.249 1.71902 154.696 1.16602 154.696ZM108.394 153.77C107.841 153.77 107.394 153.323 107.394 152.77V149.77C107.394 149.217 107.841 148.77 108.394 148.77C108.947 148.77 109.394 149.217 109.394 149.77V152.77C109.394 153.323 108.946 153.77 108.394 153.77ZM1.16602 147.696C0.613016 147.696 0.166016 147.249 0.166016 146.696V143.696C0.166016 143.143 0.613016 142.696 1.16602 142.696C1.71902 142.696 2.16602 143.143 2.16602 143.696V146.696C2.16602 147.249 1.71902 147.696 1.16602 147.696ZM108.394 146.77C107.841 146.77 107.394 146.323 107.394 145.77V142.77C107.394 142.217 107.841 141.77 108.394 141.77C108.947 141.77 109.394 142.217 109.394 142.77V145.77C109.394 146.323 108.946 146.77 108.394 146.77ZM1.16602 140.696C0.613016 140.696 0.166016 140.249 0.166016 139.696V136.696C0.166016 136.143 0.613016 135.696 1.16602 135.696C1.71902 135.696 2.16602 136.143 2.16602 136.696V139.696C2.16602 140.249 1.71902 140.696 1.16602 140.696ZM108.394 139.77C107.841 139.77 107.394 139.323 107.394 138.77V135.77C107.394 135.217 107.841 134.77 108.394 134.77C108.947 134.77 109.394 135.217 109.394 135.77V138.77C109.394 139.323 108.946 139.77 108.394 139.77ZM1.16602 133.696C0.613016 133.696 0.166016 133.249 0.166016 132.696V129.696C0.166016 129.143 0.613016 128.696 1.16602 128.696C1.71902 128.696 2.16602 129.143 2.16602 129.696V132.696C2.16602 133.249 1.71902 133.696 1.16602 133.696ZM108.394 132.77C107.841 132.77 107.394 132.323 107.394 131.77V128.77C107.394 128.217 107.841 127.77 108.394 127.77C108.947 127.77 109.394 128.217 109.394 128.77V131.77C109.394 132.323 108.946 132.77 108.394 132.77ZM1.16602 126.696C0.613016 126.696 0.166016 126.249 0.166016 125.696V122.696C0.166016 122.143 0.613016 121.696 1.16602 121.696C1.71902 121.696 2.16602 122.143 2.16602 122.696V125.696C2.16602 126.249 1.71902 126.696 1.16602 126.696ZM108.394 125.77C107.841 125.77 107.394 125.323 107.394 124.77V121.77C107.394 121.217 107.841 120.77 108.394 120.77C108.947 120.77 109.394 121.217 109.394 121.77V124.77C109.394 125.323 108.946 125.77 108.394 125.77ZM1.16602 119.696C0.613016 119.696 0.166016 119.249 0.166016 118.696V115.696C0.166016 115.143 0.613016 114.696 1.16602 114.696C1.71902 114.696 2.16602 115.143 2.16602 115.696V118.696C2.16602 119.249 1.71902 119.696 1.16602 119.696ZM108.394 118.77C107.841 118.77 107.394 118.323 107.394 117.77V114.77C107.394 114.217 107.841 113.77 108.394 113.77C108.947 113.77 109.394 114.217 109.394 114.77V117.77C109.394 118.323 108.946 118.77 108.394 118.77ZM1.16602 112.696C0.613016 112.696 0.166016 112.249 0.166016 111.696V108.696C0.166016 108.143 0.613016 107.696 1.16602 107.696C1.71902 107.696 2.16602 108.143 2.16602 108.696V111.696C2.16602 112.249 1.71902 112.696 1.16602 112.696ZM108.394 111.77C107.841 111.77 107.394 111.323 107.394 110.77V107.77C107.394 107.217 107.841 106.77 108.394 106.77C108.947 106.77 109.394 107.217 109.394 107.77V110.77C109.394 111.323 108.946 111.77 108.394 111.77ZM1.16602 105.696C0.613016 105.696 0.166016 105.249 0.166016 104.696V101.696C0.166016 101.143 0.613016 100.696 1.16602 100.696C1.71902 100.696 2.16602 101.143 2.16602 101.696V104.696C2.16602 105.249 1.71902 105.696 1.16602 105.696ZM108.394 104.77C107.841 104.77 107.394 104.323 107.394 103.77V100.77C107.394 100.217 107.841 99.7701 108.394 99.7701C108.947 99.7701 109.394 100.217 109.394 100.77V103.77C109.394 104.323 108.946 104.77 108.394 104.77ZM1.16602 98.6961C0.613016 98.6961 0.166016 98.2491 0.166016 97.6961V94.6961C0.166016 94.1431 0.613016 93.6961 1.16602 93.6961C1.71902 93.6961 2.16602 94.1431 2.16602 94.6961V97.6961C2.16602 98.2491 1.71902 98.6961 1.16602 98.6961ZM108.394 97.7701C107.841 97.7701 107.394 97.3231 107.394 96.7701V93.7701C107.394 93.2171 107.841 92.7701 108.394 92.7701C108.947 92.7701 109.394 93.2171 109.394 93.7701V96.7701C109.394 97.3231 108.946 97.7701 108.394 97.7701ZM1.16602 91.6961C0.613016 91.6961 0.166016 91.2491 0.166016 90.6961V87.6961C0.166016 87.1431 0.613016 86.6961 1.16602 86.6961C1.71902 86.6961 2.16602 87.1431 2.16602 87.6961V90.6961C2.16602 91.2491 1.71902 91.6961 1.16602 91.6961ZM108.394 90.7701C107.841 90.7701 107.394 90.3231 107.394 89.7701V86.7701C107.394 86.2171 107.841 85.7701 108.394 85.7701C108.947 85.7701 109.394 86.2171 109.394 86.7701V89.7701C109.394 90.3231 108.946 90.7701 108.394 90.7701ZM1.16602 84.6961C0.613016 84.6961 0.166016 84.2491 0.166016 83.6961V80.6961C0.166016 80.1431 0.613016 79.6961 1.16602 79.6961C1.71902 79.6961 2.16602 80.1431 2.16602 80.6961V83.6961C2.16602 84.2491 1.71902 84.6961 1.16602 84.6961ZM108.394 83.7701C107.841 83.7701 107.394 83.3231 107.394 82.7701V79.7701C107.394 79.2171 107.841 78.7701 108.394 78.7701C108.947 78.7701 109.394 79.2171 109.394 79.7701V82.7701C109.394 83.3231 108.946 83.7701 108.394 83.7701ZM1.16602 77.6961C0.613016 77.6961 0.166016 77.2491 0.166016 76.6961V73.6961C0.166016 73.1431 0.613016 72.6961 1.16602 72.6961C1.71902 72.6961 2.16602 73.1431 2.16602 73.6961V76.6961C2.16602 77.2491 1.71902 77.6961 1.16602 77.6961ZM108.394 76.7701C107.841 76.7701 107.394 76.3231 107.394 75.7701V72.7701C107.394 72.2171 107.841 71.7701 108.394 71.7701C108.947 71.7701 109.394 72.2171 109.394 72.7701V75.7701C109.394 76.3231 108.946 76.7701 108.394 76.7701ZM1.16602 70.6961C0.613016 70.6961 0.166016 70.2491 0.166016 69.6961V66.6961C0.166016 66.1431 0.613016 65.6961 1.16602 65.6961C1.71902 65.6961 2.16602 66.1431 2.16602 66.6961V69.6961C2.16602 70.2491 1.71902 70.6961 1.16602 70.6961ZM108.394 69.7701C107.841 69.7701 107.394 69.3231 107.394 68.7701V65.7701C107.394 65.2171 107.841 64.7701 108.394 64.7701C108.947 64.7701 109.394 65.2171 109.394 65.7701V68.7701C109.394 69.3231 108.946 69.7701 108.394 69.7701ZM1.16602 63.6961C0.613016 63.6961 0.166016 63.2491 0.166016 62.6961V59.6961C0.166016 59.1431 0.613016 58.6961 1.16602 58.6961C1.71902 58.6961 2.16602 59.1431 2.16602 59.6961V62.6961C2.16602 63.2491 1.71902 63.6961 1.16602 63.6961ZM108.394 62.7701C107.841 62.7701 107.394 62.3231 107.394 61.7701V58.7701C107.394 58.2171 107.841 57.7701 108.394 57.7701C108.947 57.7701 109.394 58.2171 109.394 58.7701V61.7701C109.394 62.3231 108.946 62.7701 108.394 62.7701ZM1.16602 56.6961C0.613016 56.6961 0.166016 56.2491 0.166016 55.6961V52.6961C0.166016 52.1431 0.613016 51.6961 1.16602 51.6961C1.71902 51.6961 2.16602 52.1431 2.16602 52.6961V55.6961C2.16602 56.2491 1.71902 56.6961 1.16602 56.6961ZM108.394 55.7701C107.841 55.7701 107.394 55.3231 107.394 54.7701V51.7701C107.394 51.2171 107.841 50.7701 108.394 50.7701C108.947 50.7701 109.394 51.2171 109.394 51.7701V54.7701C109.394 55.3231 108.946 55.7701 108.394 55.7701ZM1.16602 49.6961C0.613016 49.6961 0.166016 49.2491 0.166016 48.6961V45.6961C0.166016 45.1431 0.613016 44.6961 1.16602 44.6961C1.71902 44.6961 2.16602 45.1431 2.16602 45.6961V48.6961C2.16602 49.2491 1.71902 49.6961 1.16602 49.6961ZM108.394 48.7701C107.841 48.7701 107.394 48.3231 107.394 47.7701V44.7701C107.394 44.2171 107.841 43.7701 108.394 43.7701C108.947 43.7701 109.394 44.2171 109.394 44.7701V47.7701C109.394 48.3231 108.946 48.7701 108.394 48.7701ZM1.16602 42.6961C0.613016 42.6961 0.166016 42.2491 0.166016 41.6961V38.6961C0.166016 38.1431 0.613016 37.6961 1.16602 37.6961C1.71902 37.6961 2.16602 38.1431 2.16602 38.6961V41.6961C2.16602 42.2491 1.71902 42.6961 1.16602 42.6961ZM108.394 41.7701C107.841 41.7701 107.394 41.3231 107.394 40.7701V37.7701C107.394 37.2171 107.841 36.7701 108.394 36.7701C108.947 36.7701 109.394 37.2171 109.394 37.7701V40.7701C109.394 41.3231 108.946 41.7701 108.394 41.7701ZM1.16602 35.6961C0.613016 35.6961 0.166016 35.2491 0.166016 34.6961V31.6961C0.166016 31.1431 0.613016 30.6961 1.16602 30.6961C1.71902 30.6961 2.16602 31.1431 2.16602 31.6961V34.6961C2.16602 35.2491 1.71902 35.6961 1.16602 35.6961ZM108.394 34.7701C107.841 34.7701 107.394 34.3231 107.394 33.7701V30.7701C107.394 30.2171 107.841 29.7701 108.394 29.7701C108.947 29.7701 109.394 30.2171 109.394 30.7701V33.7701C109.394 34.3231 108.946 34.7701 108.394 34.7701ZM1.16602 28.6961C0.613016 28.6961 0.166016 28.2491 0.166016 27.6961V24.6961C0.166016 24.1431 0.613016 23.6961 1.16602 23.6961C1.71902 23.6961 2.16602 24.1431 2.16602 24.6961V27.6961C2.16602 28.2491 1.71902 28.6961 1.16602 28.6961ZM108.394 27.7701C107.841 27.7701 107.394 27.3231 107.394 26.7701V24.4332C107.302 24.2822 107.249 24.1041 107.249 23.9141C107.249 23.3611 107.696 22.9141 108.249 22.9141H108.394C108.947 22.9141 109.394 23.3611 109.394 23.9141V26.7691C109.394 27.3231 108.946 27.7701 108.394 27.7701ZM104.249 24.9151H101.249C100.696 24.9151 100.249 24.4681 100.249 23.9151C100.249 23.3621 100.696 22.9151 101.249 22.9151H104.249C104.802 22.9151 105.249 23.3621 105.249 23.9151C105.249 24.4681 104.802 24.9151 104.249 24.9151ZM97.249 24.9151H94.249C93.696 24.9151 93.249 24.4681 93.249 23.9151C93.249 23.3621 93.696 22.9151 94.249 22.9151H97.249C97.802 22.9151 98.249 23.3621 98.249 23.9151C98.249 24.4681 97.802 24.9151 97.249 24.9151ZM90.249 24.9151H87.249C86.696 24.9151 86.249 24.4681 86.249 23.9151C86.249 23.3621 86.696 22.9151 87.249 22.9151H90.249C90.802 22.9151 91.249 23.3621 91.249 23.9151C91.249 24.4681 90.802 24.9151 90.249 24.9151ZM26.84 24.9151H25.385C24.832 24.9151 24.385 24.4681 24.385 23.9151C24.385 23.3621 24.832 22.9151 25.385 22.9151H26.039C26.1 22.6601 26.164 22.4071 26.23 22.1551C26.373 21.6221 26.92 21.3051 27.454 21.4451C27.988 21.5881 28.306 22.134 28.164 22.669C28.036 23.148 27.921 23.6321 27.818 24.1211C27.721 24.5831 27.312 24.9151 26.84 24.9151ZM21.385 24.9151H18.385C17.832 24.9151 17.385 24.4681 17.385 23.9151C17.385 23.3621 17.832 22.9151 18.385 22.9151H21.385C21.938 22.9151 22.385 23.3621 22.385 23.9151C22.385 24.4681 21.938 24.9151 21.385 24.9151ZM14.385 24.9151H11.385C10.832 24.9151 10.385 24.4681 10.385 23.9151C10.385 23.3621 10.832 22.9151 11.385 22.9151H14.385C14.938 22.9151 15.385 23.3621 15.385 23.9151C15.385 24.4681 14.938 24.9151 14.385 24.9151ZM7.38501 24.9151H4.38501C3.83201 24.9151 3.38501 24.4681 3.38501 23.9151C3.38501 23.3621 3.83201 22.9151 4.38501 22.9151H7.38501C7.93801 22.9151 8.38501 23.3621 8.38501 23.9151C8.38501 24.4681 7.93801 24.9151 7.38501 24.9151ZM83.269 24.889C82.806 24.889 82.39 24.566 82.291 24.094C82.094 23.156 81.844 22.2151 81.548 21.2981C81.379 20.7731 81.667 20.2091 82.194 20.0391C82.718 19.8731 83.284 20.1591 83.453 20.6851C83.769 21.6671 84.038 22.6761 84.249 23.6841C84.362 24.2241 84.017 24.754 83.476 24.868C83.405 24.882 83.337 24.889 83.269 24.889ZM28.493 19.629C28.363 19.629 28.23 19.6041 28.103 19.5501C27.594 19.3351 27.357 18.7481 27.572 18.2391C27.974 17.2871 28.431 16.3471 28.928 15.4471C29.194 14.9641 29.801 14.787 30.286 15.055C30.769 15.322 30.945 15.9301 30.678 16.4131C30.215 17.2531 29.789 18.1291 29.413 19.0171C29.253 19.4011 28.883 19.629 28.493 19.629ZM81.013 18.283C80.642 18.283 80.285 18.076 80.113 17.72C79.694 16.857 79.224 16.0041 78.717 15.1871C78.426 14.7181 78.57 14.1021 79.039 13.8101C79.508 13.5201 80.125 13.6621 80.416 14.1321C80.96 15.0081 81.464 15.921 81.912 16.847C82.153 17.344 81.946 17.9432 81.449 18.1832C81.308 18.2502 81.159 18.283 81.013 18.283ZM31.975 13.576C31.766 13.576 31.555 13.511 31.375 13.376C30.934 13.044 30.845 12.4171 31.176 11.9761C31.795 11.1521 32.465 10.351 33.165 9.59502C33.542 9.19002 34.173 9.16604 34.579 9.54204C34.983 9.91804 35.007 10.5511 34.632 10.9561C33.978 11.6601 33.353 12.4071 32.776 13.1771C32.579 13.4381 32.278 13.576 31.975 13.576ZM77.228 12.42C76.941 12.42 76.657 12.2981 76.458 12.0611C75.846 11.3261 75.185 10.612 74.492 9.93999C74.096 9.55399 74.086 8.92093 74.471 8.52593C74.854 8.12993 75.488 8.12093 75.884 8.50493C76.627 9.22693 77.336 9.99208 77.994 10.7801C78.348 11.2051 78.29 11.835 77.866 12.189C77.68 12.344 77.453 12.42 77.228 12.42ZM36.815 8.544C36.524 8.544 36.236 8.4181 36.039 8.1751C35.69 7.7461 35.755 7.11609 36.184 6.76909C36.982 6.12009 37.824 5.50399 38.688 4.93999C39.149 4.63799 39.77 4.76703 40.072 5.23003C40.375 5.69203 40.245 6.31206 39.782 6.61406C38.976 7.14106 38.19 7.71612 37.446 8.32012C37.26 8.47112 37.037 8.544 36.815 8.544ZM72.135 7.64312C71.931 7.64312 71.724 7.58098 71.546 7.45098C70.762 6.87798 69.946 6.34502 69.123 5.86602C68.645 5.58902 68.483 4.97607 68.762 4.49907C69.039 4.02107 69.652 3.85999 70.129 4.13799C71.012 4.65199 71.885 5.22299 72.726 5.83599C73.172 6.16099 73.27 6.78696 72.944 7.23296C72.748 7.49996 72.443 7.64312 72.135 7.64312ZM42.724 4.83013C42.348 4.83013 41.988 4.61693 41.818 4.25493C41.584 3.75493 41.798 3.1601 42.298 2.9251C43.23 2.4871 44.196 2.09393 45.171 1.75493C45.691 1.57193 46.262 1.84914 46.443 2.37114C46.625 2.89214 46.348 3.46212 45.827 3.64312C44.918 3.95912 44.016 4.32716 43.147 4.73516C43.011 4.79916 42.865 4.83013 42.724 4.83013ZM66.04 4.23516C65.914 4.23516 65.786 4.21194 65.663 4.16094C64.769 3.79794 63.85 3.47704 62.928 3.20904C62.398 3.05504 62.093 2.50002 62.247 1.97002C62.4 1.44002 62.954 1.13111 63.486 1.28911C64.473 1.57611 65.46 1.91911 66.417 2.31011C66.929 2.51811 67.175 3.10109 66.966 3.61309C66.809 4.00009 66.435 4.23516 66.04 4.23516ZM49.354 2.65215C48.886 2.65215 48.468 2.323 48.374 1.846C48.268 1.304 48.619 0.777949 49.161 0.670949C50.177 0.469949 51.209 0.320102 52.231 0.227102C52.794 0.169102 53.267 0.582131 53.318 1.13213C53.368 1.68213 52.963 2.16805 52.413 2.21905C51.46 2.30605 50.497 2.44511 49.55 2.63311C49.484 2.64611 49.419 2.65215 49.354 2.65215ZM59.303 2.40093C59.255 2.40093 59.207 2.39794 59.158 2.38994C58.209 2.25294 57.238 2.16214 56.274 2.12114C55.722 2.09814 55.295 1.63115 55.318 1.07915C55.341 0.528152 55.803 0.0790978 56.36 0.123098C57.39 0.167098 58.428 0.26394 59.445 0.41094C59.991 0.48994 60.37 0.996996 60.291 1.544C60.22 2.042 59.792 2.40093 59.303 2.40093Z" fill="currentColor"/>
<path d="M6.36328 159.83C5.81028 159.83 5.36328 159.383 5.36328 158.83V66.4609C5.36328 65.9079 5.81028 65.4609 6.36328 65.4609C6.91628 65.4609 7.36328 65.9079 7.36328 66.4609V158.83C7.36328 159.382 6.91628 159.83 6.36328 159.83Z" fill="currentColor"/>
<path d="M6.36328 62.2979C5.81028 62.2979 5.36328 61.8509 5.36328 61.2979V56.1338C5.36328 55.5808 5.81028 55.1338 6.36328 55.1338C6.91628 55.1338 7.36328 55.5808 7.36328 56.1338V61.2979C7.36328 61.8509 6.91628 62.2979 6.36328 62.2979Z" fill="currentColor"/>
<path d="M6.36328 54.0994C5.81028 54.0994 5.36328 53.6524 5.36328 53.0994V46.1143C5.36328 45.5613 5.81028 45.1143 6.36328 45.1143C6.91628 45.1143 7.36328 45.5613 7.36328 46.1143V53.0994C7.36328 53.6524 6.91628 54.0994 6.36328 54.0994Z" fill="currentColor"/>
<path d="M6.36328 43.7803C5.81028 43.7803 5.36328 43.3333 5.36328 42.7803V29.1123C5.36328 28.5593 5.81028 28.1123 6.36328 28.1123H21.0243C21.5773 28.1123 22.0243 28.5593 22.0243 29.1123C22.0243 29.6653 21.5773 30.1123 21.0243 30.1123H7.36328V42.7803C7.36328 43.3333 6.91628 43.7803 6.36328 43.7803Z" fill="currentColor"/>
<path d="M86.3177 30.1121H78.6867C78.1477 30.1121 77.7067 29.685 77.6877 29.146C77.2627 16.892 67.3227 7.29297 55.0567 7.29297C42.7917 7.29297 32.8507 16.892 32.4247 29.147C32.4057 29.685 31.9647 30.1121 31.4257 30.1121H24.9707C24.4177 30.1121 23.9707 29.6651 23.9707 29.1121C23.9707 28.5591 24.4177 28.1121 24.9707 28.1121H30.4787C31.4167 15.2401 42.0327 5.29395 55.0567 5.29395C68.0817 5.29395 78.6977 15.2401 79.6337 28.1121H86.3177C86.8707 28.1121 87.3177 28.5591 87.3177 29.1121C87.3177 29.6651 86.8707 30.1121 86.3177 30.1121Z" fill="currentColor"/>
<path d="M103.196 145.766C102.643 145.766 102.196 145.319 102.196 144.766V30.1123H93.6064C93.0534 30.1123 92.6064 29.6653 92.6064 29.1123C92.6064 28.5593 93.0534 28.1123 93.6064 28.1123H103.196C103.749 28.1123 104.196 28.5593 104.196 29.1123V144.766C104.196 145.319 103.749 145.766 103.196 145.766Z" fill="currentColor"/>
<path d="M103.196 159.877C102.643 159.877 102.196 159.43 102.196 158.877V152.648C102.196 152.095 102.643 151.648 103.196 151.648C103.749 151.648 104.196 152.095 104.196 152.648V158.877C104.196 159.43 103.749 159.877 103.196 159.877Z" fill="currentColor"/>
<path d="M103.196 191.5H39.8516C39.2986 191.5 38.8516 191.053 38.8516 190.5C38.8516 189.947 39.2986 189.5 39.8516 189.5H102.196V162.895C102.196 162.342 102.643 161.895 103.196 161.895C103.749 161.895 104.196 162.342 104.196 162.895V190.5C104.196 191.052 103.749 191.5 103.196 191.5Z" fill="currentColor"/>
<path d="M33.4766 191.499H24.9756C24.4226 191.499 23.9756 191.052 23.9756 190.499C23.9756 189.946 24.4226 189.499 24.9756 189.499H33.4766C34.0296 189.499 34.4766 189.946 34.4766 190.499C34.4766 191.052 34.0286 191.499 33.4766 191.499Z" fill="currentColor"/>
<path d="M24.9763 191.499H6.36426C5.81126 191.499 5.36426 191.052 5.36426 190.499V164.537C5.36426 163.984 5.81126 163.537 6.36426 163.537C6.91726 163.537 7.36426 163.984 7.36426 164.537V189.499H24.9763C25.5293 189.499 25.9763 189.946 25.9763 190.499C25.9763 191.052 25.5283 191.499 24.9763 191.499Z" fill="currentColor"/>
<path d="M82.6605 167.566H59.2305C58.6775 167.566 58.2305 167.119 58.2305 166.566C58.2305 166.013 58.6775 165.566 59.2305 165.566H82.6605C83.2135 165.566 83.6605 166.013 83.6605 166.566C83.6605 167.119 83.2135 167.566 82.6605 167.566Z" fill="currentColor"/>
<path d="M87.0569 174.801H57.0049C56.4519 174.801 56.0049 174.354 56.0049 173.801C56.0049 173.248 56.4519 172.801 57.0049 172.801H87.0569C87.6099 172.801 88.0569 173.248 88.0569 173.801C88.0569 174.354 87.6089 174.801 87.0569 174.801Z" fill="currentColor"/>
<path d="M90.6644 191.545H48.1484C47.5954 191.545 47.1484 191.098 47.1484 190.545V180.759C47.1484 180.206 47.5954 179.759 48.1484 179.759H50.7984C50.8094 177.769 50.8124 175.688 50.7824 173.626C50.7804 173.478 50.7294 173.294 50.6874 173.21C49.1524 172.137 49.2124 170.52 49.2464 169.646C49.2844 168.634 49.2755 167.622 49.2675 166.548C49.2635 166.072 49.2594 165.588 49.2594 165.094C49.2594 164.541 49.7064 164.094 50.2594 164.094H54.3364C54.2814 163.438 54.2354 162.812 54.2844 162.156C54.3784 160.884 54.4984 159.612 54.6194 158.342C54.7574 156.888 54.8945 155.435 54.9915 153.979C55.0095 153.725 54.9294 153.397 54.8444 153.049C54.7564 152.689 54.6565 152.28 54.6375 151.845C54.6015 151.06 54.6064 150.142 54.9204 149.295C55.7004 147.189 55.7484 144.988 55.7984 142.659L55.8114 142.083C55.8164 141.879 55.8255 141.539 55.7625 141.371C54.3735 137.63 54.8215 133.927 55.3665 131.118C55.7375 129.207 55.5714 127.313 55.3954 125.308C55.2974 124.194 55.1974 123.04 55.1964 121.882C55.1944 119.807 55.0634 117.603 54.1284 115.539C53.8814 114.992 54.0434 114.467 54.1614 114.082C54.1844 114.007 54.2184 113.9 54.2324 113.834C53.5054 111.415 54.4464 109.521 55.5294 107.976C55.5234 107.948 55.5175 107.919 55.5125 107.89C55.4925 107.783 55.4744 107.677 55.4634 107.579C55.4304 107.288 55.3754 106.995 55.3204 106.703C55.1854 105.973 55.0464 105.218 55.1584 104.425C55.5434 101.705 55.3875 99.6525 54.6505 97.7665C54.2945 96.8515 54.5674 95.7953 54.8514 94.8783C55.1094 94.0563 54.9884 93.7743 54.6204 93.4513C54.2334 93.1143 53.9974 92.6815 53.7894 92.2675C53.5374 91.7665 53.3064 91.2555 53.0744 90.7465L53.0724 90.7404C52.7734 90.6834 52.5124 90.4934 52.3704 90.2184C52.2004 89.8904 52.2244 89.4953 52.4334 89.1923L53.3514 87.8593C52.4344 86.7993 52.0974 85.4203 52.3474 83.7443C51.0534 82.2873 51.2044 80.5715 51.3264 79.1835L51.3644 78.7343C51.4614 77.4863 51.5604 76.1944 51.5084 74.9374C51.4064 72.4734 51.2874 70.0105 51.1674 67.5475C51.0044 64.1855 50.8354 60.7074 50.7184 57.2814C50.6804 56.2104 50.7694 55.1463 50.8554 54.1183C50.9304 53.2173 51.0014 52.3663 50.9944 51.5143C50.9794 50.0233 50.8604 48.4895 50.7454 47.0065C50.6974 46.3915 50.6494 45.7763 50.6084 45.1603C50.5774 44.6903 50.5974 44.2374 50.6174 43.8004C50.6564 42.9284 50.6904 42.1745 50.3214 41.4955C50.1514 41.1835 50.1174 40.8623 50.1404 40.5563H49.7545C49.2315 40.5563 48.7954 40.1523 48.7574 39.6293C48.7524 39.5653 48.7374 39.4985 48.7264 39.4345C48.6684 39.1225 48.5734 38.5984 48.9354 38.1464C49.6784 37.2144 49.6584 36.3973 48.8574 35.0243C48.3844 34.2153 48.1514 33.1244 48.1664 31.7814C48.1744 30.9694 48.3404 30.2073 48.5164 29.4003C48.5884 29.0663 48.6635 28.7224 48.7285 28.3634C48.7935 28.0054 49.0474 27.7104 49.3934 27.5934C49.5664 27.5344 49.7474 27.5274 49.9204 27.5624L50.7625 24.1063C50.8525 23.7353 51.1474 23.4473 51.5214 23.3663C51.6254 23.3423 51.7354 23.3363 51.8384 23.3483L52.6074 20.5023C52.7344 20.0333 53.1654 19.7145 53.6644 19.7675L54.1364 19.8073C54.4464 19.8313 54.7274 19.9984 54.8964 20.2584C55.0664 20.5194 55.1044 20.8424 55.0014 21.1354C54.6254 22.2064 54.8554 23.1263 55.7724 24.2103C56.0074 24.4873 56.3164 24.9314 56.4424 25.4584C56.6034 26.1454 56.8764 26.8203 57.1654 27.5353C57.7614 29.0133 58.4364 30.6874 58.0664 32.6134C57.8834 33.5654 57.5614 34.5784 57.1074 35.6234C56.9224 36.0494 57.0994 37.5524 57.4504 37.9774C57.7384 38.3234 57.7794 38.7195 57.8094 39.0075C57.8174 39.0775 57.8234 39.1525 57.8374 39.2265C57.8914 39.4965 57.8314 39.7754 57.6724 39.9984C57.5144 40.2234 57.2704 40.3713 56.9984 40.4103L56.7084 40.4545C56.5294 40.4825 56.3664 40.5083 56.2074 40.5243L56.1774 40.6574C56.0294 41.3004 55.8874 41.9084 55.7854 42.5214C55.6944 43.0704 55.6464 43.6843 55.6404 44.4013L55.6354 44.9064C55.6214 46.1354 55.6084 47.4045 55.6784 48.6325C55.8014 50.7515 55.9795 53.5465 56.2625 56.3705C56.5325 59.0685 56.8984 61.7765 57.2504 64.3195C57.2674 64.3635 57.3854 64.5314 57.4634 64.6434C57.5484 64.7644 57.6324 64.8864 57.7054 65.0084C57.7074 65.0114 57.7084 65.0133 57.7094 65.0153C57.8724 65.2813 57.9085 65.6184 57.7805 65.9244C57.7185 66.0734 57.6334 66.2224 57.5464 66.3654C57.5264 66.3964 57.5074 66.4274 57.4894 66.4584C57.5574 67.5604 57.6744 68.6844 57.7864 69.7724L57.8334 70.2274C57.8454 70.3454 57.8545 70.4634 57.8615 70.5824C57.9105 71.2844 57.9274 71.2884 58.2164 71.3634C58.8994 71.5364 59.1804 72.1764 59.3854 72.6434C59.4324 72.7494 59.4764 72.8565 59.5264 72.9445C59.6194 73.1105 59.7034 73.2784 59.7874 73.4474C59.8514 73.5764 59.9154 73.7064 59.9844 73.8324C60.1124 74.0684 60.2444 74.2995 60.3764 74.5285C60.6614 75.0255 60.9545 75.5383 61.2025 76.0883C61.3665 76.4533 61.4714 76.8164 61.5714 77.1674C61.6884 77.5744 61.8004 77.9603 61.9744 78.2113C62.3114 78.6943 62.7104 79.1535 63.1414 79.6205C63.2984 78.2475 63.1704 76.7804 62.9224 75.1154C62.8834 74.8514 62.8554 74.5794 62.8254 74.3034C62.7674 73.7574 62.7144 73.2423 62.5784 72.8143C62.5004 72.5693 62.3744 72.3234 62.2394 72.0614C61.9964 71.5874 61.7204 71.0495 61.6354 70.3515C61.4534 68.8485 61.9324 67.3673 63.0214 66.0653C64.4654 64.3373 66.9224 63.0924 69.1354 62.9674C71.9204 62.8014 74.0094 63.6135 75.7714 65.5595C77.3134 67.2625 77.6754 68.9634 76.9824 71.2474C76.5544 72.6554 76.9754 74.3903 77.3824 76.0663C77.5294 76.6733 77.6744 77.2734 77.7824 77.8544C77.8664 78.3054 77.7694 79.1753 77.1524 79.5863C76.7714 79.8423 76.7484 80.0024 76.9464 81.0204C76.9464 81.0204 76.9655 81.1183 76.9655 81.1193C77.1165 81.8993 77.1344 82.6754 77.1524 83.4264L77.1654 83.9493C77.2074 84.2453 78.1314 85.1083 79.1064 85.1813C82.2554 85.4183 84.1544 87.2583 84.5964 90.5023L84.6124 90.6183C84.7964 91.9613 84.9865 93.3485 85.5435 94.4225C85.7385 94.7995 86.3074 95.1634 86.9094 95.5504C86.9794 95.5954 87.0524 95.6414 87.1234 95.6884L88.5014 93.6364C88.6454 93.4224 88.8655 93.2734 89.1165 93.2174C89.4695 93.1394 89.8244 93.1005 90.1734 93.1005C91.7424 93.1005 92.9604 93.8833 94.0344 94.5743C94.2864 94.7363 94.5384 94.8984 94.7944 95.0494C96.8144 96.2444 96.7265 97.5775 95.9305 99.3405C95.5015 100.29 95.1794 101.287 94.8394 102.342C94.5844 103.131 94.3214 103.947 94.0084 104.744C93.7354 105.438 93.0724 106.286 92.2084 106.614C91.7254 106.798 91.5934 106.927 91.5154 107.694C91.2734 110.02 90.9164 112.494 90.3944 115.479L90.3624 115.669C90.2464 116.392 89.9734 118.084 87.9574 118.084C87.9364 118.087 87.8874 118.083 87.8504 118.082C87.7504 118.144 87.5794 118.292 87.4584 118.394C87.2334 118.587 86.9794 118.806 86.6874 118.973C86.2694 119.21 85.8424 119.433 85.4154 119.655C84.7704 119.991 84.1604 120.308 83.5894 120.676C83.5374 120.809 83.4854 121.077 83.4544 121.231L83.4265 121.371C82.8465 124.239 83.2484 127.062 83.6754 130.051C83.7914 130.865 83.9064 131.679 84.0024 132.493C84.1304 133.583 84.2754 134.672 84.4224 135.76C84.5794 136.933 84.7364 138.106 84.8714 139.281C84.9234 139.716 84.8654 141.046 83.9454 141.393C83.6604 141.5 83.6364 141.509 83.6574 142.261L83.6644 142.615C83.6684 147.1 83.6654 151.588 83.6624 156.075L83.6594 164.043H88.1245C88.6775 164.043 89.1245 164.49 89.1245 165.043V166.193C89.1255 167.928 89.1265 169.597 89.1115 171.267C89.1115 171.766 88.7854 172.318 88.3354 172.571C87.6344 172.967 87.5784 173.489 87.6074 174.77L87.6154 175.184C87.6224 176.011 87.6224 176.837 87.6224 177.664C87.6224 178.36 87.6224 179.057 87.6264 179.754H90.6635C91.2165 179.754 91.6635 180.201 91.6635 180.754V190.54C91.6645 191.098 91.2174 191.545 90.6644 191.545ZM49.1484 189.545H89.6644V181.759H86.6375C86.0905 181.759 85.6445 181.32 85.6375 180.772C85.6235 179.738 85.6234 178.704 85.6234 177.669C85.6234 176.848 85.6235 176.026 85.6165 175.206L85.6094 174.82C85.5824 173.627 85.5454 172.013 87.1144 170.978C87.1274 169.402 87.1264 167.829 87.1254 166.198V166.048H82.6604C82.1074 166.048 81.6604 165.601 81.6604 165.048L81.6635 156.078C81.6665 151.592 81.6694 147.105 81.6654 142.62L81.6594 142.32C81.6404 141.622 81.6054 140.368 82.8774 139.689C82.8864 139.624 82.8914 139.556 82.8864 139.517C82.7524 138.35 82.5964 137.19 82.4414 136.03C82.2944 134.931 82.1465 133.832 82.0175 132.73C81.9235 131.932 81.8104 131.135 81.6964 130.337C81.2654 127.313 80.8194 124.185 81.4674 120.977L81.4934 120.847C81.6064 120.273 81.7634 119.485 82.3974 119.071C83.0784 118.622 83.7974 118.248 84.4934 117.886C84.8974 117.675 85.3044 117.464 85.6994 117.239C85.8254 117.168 85.9934 117.023 86.1574 116.883C86.5714 116.527 87.0884 116.083 87.7704 116.083L87.9584 116.089C88.1204 116.089 88.1964 116.061 88.2104 116.052C88.2904 115.975 88.3574 115.557 88.3904 115.357L88.4265 115.138C88.9425 112.2 89.2914 109.771 89.5284 107.492C89.6394 106.415 89.9554 105.336 91.5024 104.749C91.6974 104.674 92.0235 104.338 92.1505 104.016C92.4405 103.278 92.6825 102.528 92.9395 101.732C93.2815 100.671 93.6355 99.5744 94.1115 98.5214C94.6635 97.2984 94.5804 97.2493 93.7794 96.7753C93.5044 96.6123 93.2304 96.4374 92.9574 96.2614C91.9094 95.5884 90.9944 95.0183 89.9234 95.1163L88.2224 97.6483C88.0694 97.8773 87.8264 98.0345 87.5544 98.0795C87.2754 98.1215 87.0014 98.0524 86.7834 97.8854C86.4754 97.6494 86.1484 97.4414 85.8344 97.2384C85.0374 96.7274 84.2144 96.1995 83.7724 95.3495C83.0554 93.9685 82.8334 92.3354 82.6354 90.8944L82.6184 90.7785C82.3064 88.4885 81.1434 87.3443 78.9604 87.1803C77.2874 87.0543 75.2244 85.6174 75.1714 84.0204L75.1564 83.4755C75.1404 82.7775 75.1264 82.1183 75.0074 81.5033C74.8114 80.4933 74.5444 79.1284 75.7954 78.1124C75.7044 77.6164 75.5744 77.0834 75.4424 76.5424C74.9944 74.6944 74.4864 72.6013 75.0724 70.6703C75.5664 69.0453 75.3695 68.0954 74.2935 66.9054C72.9305 65.4014 71.4294 64.8464 69.2534 64.9674C67.5844 65.0624 65.6544 66.0434 64.5594 67.3524C64.0544 67.9564 63.4824 68.9264 63.6264 70.1154C63.6674 70.4594 63.8324 70.7805 64.0224 71.1525C64.1804 71.4605 64.3604 71.8095 64.4884 72.2145C64.6854 72.8365 64.7534 73.4783 64.8184 74.0983C64.8434 74.3453 64.8694 74.5903 64.9044 74.8263C65.2254 76.9863 65.4984 79.5024 64.6574 82.0214C64.5454 82.3594 64.2614 82.6125 63.9114 82.6845C63.5624 82.7545 63.2014 82.6375 62.9634 82.3715C62.6954 82.0715 62.4254 81.7834 62.1584 81.5004C61.5284 80.8294 60.8774 80.1353 60.3364 79.3583C59.9724 78.8363 59.8024 78.2455 59.6524 77.7245C59.5664 77.4275 59.4864 77.1475 59.3814 76.9125C59.1744 76.4525 58.9164 76.0035 58.6444 75.5275C58.5044 75.2845 58.3664 75.0403 58.2324 74.7943C58.1524 74.6483 58.0764 74.4954 58.0004 74.3434C57.9314 74.2024 57.8614 74.0634 57.7854 73.9264C57.7074 73.7874 57.6324 73.6213 57.5584 73.4533C57.5284 73.3853 57.4894 73.2965 57.4544 73.2245C56.0094 72.7115 55.9204 71.4324 55.8704 70.7274L55.8015 69.9833C55.6815 68.8273 55.5584 67.6303 55.4894 66.4413C55.4684 66.1053 55.5744 65.8204 55.6914 65.5934C55.5114 65.3234 55.3324 65.0004 55.2744 64.6024C54.9194 62.0364 54.5494 59.3054 54.2764 56.5734C53.9894 53.7124 53.8104 50.8904 53.6864 48.7514C53.6124 47.4554 53.6254 46.1503 53.6394 44.8893L53.6444 44.3873C53.6514 43.5673 53.7074 42.8504 53.8164 42.1994C53.9244 41.5464 54.0734 40.8973 54.2324 40.2123L54.4315 39.3344C54.5325 38.8754 54.9384 38.5494 55.4084 38.5494L55.4954 38.5514C54.9884 37.3814 54.9075 35.6814 55.2755 34.8314C55.6715 33.9204 55.9504 33.0494 56.1044 32.2404C56.3634 30.8924 55.8534 29.6275 55.3124 28.2875C55.0084 27.5345 54.6955 26.7555 54.4995 25.9235C54.4795 25.8435 54.4035 25.6895 54.2495 25.5075C53.9915 25.2015 53.7694 24.8953 53.5804 24.5883L53.3524 25.4335C53.2524 25.7985 52.9564 26.0775 52.5864 26.1525C52.4974 26.1705 52.4104 26.1733 52.3224 26.1713L51.5045 29.5333C51.4205 29.8773 51.1604 30.1503 50.8214 30.2533C50.6754 30.2993 50.5234 30.3103 50.3764 30.2833C50.2614 30.8313 50.1754 31.3273 50.1704 31.8053C50.1604 32.7543 50.3094 33.5394 50.5894 34.0194C51.2494 35.1514 51.9514 36.7864 51.0474 38.5604H51.3454C51.6314 38.5604 51.9044 38.6824 52.0934 38.8964C52.2824 39.1104 52.3724 39.3953 52.3384 39.6793C52.3134 39.8883 52.2654 40.1044 52.2164 40.3134C52.1924 40.4194 52.1564 40.5695 52.1444 40.6625C52.7134 41.7905 52.6644 42.9064 52.6204 43.8944C52.6024 44.2944 52.5854 44.6734 52.6094 45.0324C52.6494 45.6394 52.6974 46.2484 52.7444 46.8554C52.8614 48.3724 52.9835 49.9394 52.9995 51.5004C53.0075 52.4444 52.9295 53.3825 52.8535 54.2885C52.7685 55.3035 52.6884 56.2624 52.7214 57.2164C52.8384 60.6284 53.0074 64.0985 53.1704 67.4545C53.2894 69.9225 53.4094 72.3893 53.5114 74.8573C53.5694 76.2323 53.4644 77.5845 53.3644 78.8915L53.3244 79.3615C53.1984 80.7975 53.1594 81.7165 53.9304 82.5075C54.3354 82.9225 54.4064 83.5523 54.3364 84.0033C54.1274 85.3403 54.4274 86.2733 55.2784 86.9393C55.6944 87.2653 55.7854 87.8593 55.4854 88.2943L54.6864 89.4545L54.9005 89.9244C55.1205 90.4094 55.3394 90.8954 55.5804 91.3724C55.6684 91.5474 55.8145 91.8394 55.9395 91.9474C57.2985 93.1364 57.0614 94.5314 56.7644 95.4764C56.6714 95.7764 56.3845 96.7014 56.5175 97.0414C57.3855 99.2644 57.5785 101.628 57.1425 104.707C57.0765 105.177 57.1804 105.742 57.2904 106.342C57.3524 106.68 57.4145 107.019 57.4525 107.355C57.4595 107.412 57.4714 107.473 57.4824 107.535C57.5484 107.902 57.6494 108.456 57.2984 108.943C56.2484 110.398 55.6545 111.7 56.1685 113.325C56.3315 113.838 56.1834 114.32 56.0744 114.674C56.0534 114.738 56.0314 114.802 56.0154 114.863C57.0484 117.222 57.1954 119.63 57.1974 121.883C57.1984 122.955 57.2914 124.015 57.3894 125.136C57.5694 127.191 57.7544 129.315 57.3294 131.501C56.5944 135.292 56.6874 138.121 57.6364 140.676C57.8184 141.163 57.8224 141.663 57.8114 142.133L57.7984 142.704C57.7464 145.097 57.6934 147.57 56.7954 149.992C56.6054 150.506 56.6094 151.205 56.6354 151.757C56.6464 151.998 56.7144 152.279 56.7864 152.576C56.8984 153.034 57.0254 153.554 56.9874 154.114C56.8884 155.588 56.7504 157.06 56.6104 158.532C56.4904 159.789 56.3714 161.047 56.2784 162.305C56.2384 162.842 56.2874 163.427 56.3384 164.045C56.3654 164.368 56.3934 164.7 56.4104 165.044C56.4244 165.317 56.3254 165.585 56.1364 165.783C55.9484 165.982 55.6864 166.095 55.4114 166.095H51.2644C51.2654 166.241 51.2665 166.387 51.2675 166.532C51.2775 167.629 51.2854 168.665 51.2454 169.722C51.2034 170.838 51.3384 171.241 51.8694 171.595C52.5774 172.067 52.7774 173.077 52.7834 173.601C52.8184 176.026 52.8065 178.47 52.7935 180.766C52.7905 181.316 52.3435 181.76 51.7935 181.76H49.1484V189.545Z" fill="currentColor"/>
<path d="M56.9227 108.978C56.6677 108.978 56.4137 108.881 56.2187 108.688C55.8267 108.299 55.8237 107.667 56.2127 107.274C57.6477 105.826 58.8878 104.025 60.2018 102.117C61.3668 100.426 62.5717 98.677 63.9377 97.177C64.4767 96.584 65.0298 95.9481 65.5978 95.2971C67.6188 92.9751 69.9107 90.3431 72.3967 88.7351C72.8617 88.4341 73.4788 88.568 73.7798 89.032C74.0798 89.496 73.9467 90.115 73.4827 90.415C71.2337 91.869 69.0418 94.3879 67.1058 96.6089C66.5288 97.2729 65.9647 97.92 65.4167 98.522C64.1427 99.922 62.9767 101.615 61.8487 103.251C60.5427 105.147 59.1937 107.106 57.6327 108.682C57.4377 108.879 57.1807 108.978 56.9227 108.978Z" fill="currentColor"/>
<path d="M76.6895 167.256C76.1365 167.256 75.6895 166.809 75.6895 166.256V143.763C75.6895 143.21 76.1365 142.763 76.6895 142.763C77.2425 142.763 77.6895 143.21 77.6895 143.763V166.256C77.6895 166.809 77.2425 167.256 76.6895 167.256Z" fill="currentColor"/>
<path d="M70.5557 166.575C70.0027 166.575 69.5557 166.128 69.5557 165.575V149.898C69.5557 149.345 70.0027 148.898 70.5557 148.898C71.1087 148.898 71.5557 149.345 71.5557 149.898V165.575C71.5557 166.127 71.1077 166.575 70.5557 166.575Z" fill="currentColor"/>
<path d="M64.9494 151.565C63.6314 151.565 62.5714 151.086 61.8994 150.133C61.5814 149.682 61.6894 149.058 62.1404 148.739C62.5904 148.422 63.2144 148.529 63.5344 148.98C64.5254 150.387 67.6854 148.843 68.0424 148.663C69.6434 147.851 70.7314 145.91 71.7094 143.99L72.0274 143.35C72.9194 141.541 73.9294 139.492 76.2734 138.64C78.2374 137.926 80.0044 138.508 81.5654 139.022C81.9584 139.151 82.3504 139.281 82.7484 139.39C83.2804 139.536 83.5944 140.086 83.4474 140.619C83.3014 141.152 82.7504 141.465 82.2184 141.318C81.7884 141.201 81.3644 141.061 80.9404 140.922C79.5064 140.45 78.2694 140.043 76.9564 140.521C75.3684 141.098 74.6164 142.623 73.8214 144.236L73.4914 144.898C72.3634 147.112 71.0844 149.364 68.9454 150.448C67.4724 151.194 66.1104 151.565 64.9494 151.565Z" fill="currentColor"/>
<path d="M82.8248 121.588C82.8038 121.588 82.7828 121.587 82.7628 121.586C82.2118 121.552 81.7918 121.078 81.8258 120.526C81.9808 118.009 81.6298 115.282 81.2898 112.645C81.1388 111.465 80.9878 110.297 80.8818 109.16C80.6788 106.965 80.7228 104.705 80.7658 102.518C80.7848 101.607 80.8018 100.698 80.8018 99.7979C80.8018 99.2449 81.2488 98.7979 81.8018 98.7979C82.3548 98.7979 82.8018 99.2449 82.8018 99.7979C82.8018 100.711 82.7828 101.632 82.7658 102.558C82.7238 104.688 82.6798 106.891 82.8738 108.974C82.9778 110.089 83.1248 111.234 83.2728 112.389C83.6248 115.119 83.9888 117.943 83.8218 120.649C83.7898 121.18 83.3498 121.588 82.8248 121.588Z" fill="currentColor"/>
<path d="M57.2629 141.696C57.0759 141.696 56.8879 141.644 56.7199 141.535C56.2569 141.235 56.1239 140.616 56.4249 140.152C57.0419 139.199 57.6399 138.236 58.2379 137.273C59.3939 135.412 60.5909 133.487 61.9149 131.658C62.3049 131.12 62.7689 130.589 63.2599 130.025C64.2039 128.944 65.1809 127.826 65.5109 126.765C65.6759 126.239 66.2339 125.946 66.7639 126.108C67.2909 126.273 67.5849 126.834 67.4209 127.361C66.9639 128.823 65.7969 130.161 64.7669 131.34C64.3069 131.868 63.8709 132.366 63.5349 132.831C62.2529 134.602 61.0759 136.496 59.9369 138.328C59.3329 139.301 58.7279 140.274 58.1029 141.239C57.9109 141.535 57.5909 141.696 57.2629 141.696Z" fill="currentColor"/>
<path d="M52.7343 79.6737C52.6383 79.6737 52.5433 79.6716 52.4453 79.6666C51.8933 79.6416 51.4673 79.1727 51.4933 78.6207C51.5183 78.0857 51.9614 77.6676 52.4914 77.6676C52.5074 77.6676 52.5223 77.6675 52.5393 77.6685C54.8653 77.7685 56.1014 75.8995 57.3614 72.8355C57.5724 72.3235 58.1584 72.0846 58.6664 72.2906C59.1774 72.5006 59.4213 73.0846 59.2113 73.5956C58.3313 75.7356 56.7123 79.6737 52.7343 79.6737Z" fill="currentColor"/>
<path d="M43.7248 44.0018C43.4758 44.0018 43.2258 43.9087 43.0328 43.7227C42.2718 42.9937 41.5708 42.1888 40.9468 41.3328C40.6218 40.8868 40.7198 40.2609 41.1668 39.9359C41.6138 39.6119 42.2378 39.7098 42.5638 40.1558C43.1178 40.9168 43.7418 41.6328 44.4178 42.2818C44.8158 42.6638 44.8288 43.2979 44.4458 43.6949C44.2488 43.8999 43.9868 44.0018 43.7248 44.0018ZM67.6358 43.5838C67.3848 43.5838 67.1338 43.4898 66.9398 43.3018C66.5438 42.9168 66.5338 42.2838 66.9188 41.8878C67.5728 41.2138 68.1708 40.4778 68.6978 39.6988C69.0068 39.2438 69.6288 39.1207 70.0868 39.4307C70.5438 39.7407 70.6638 40.3619 70.3548 40.8199C69.7628 41.6949 69.0898 42.5228 68.3548 43.2808C68.1568 43.4828 67.8958 43.5838 67.6358 43.5838ZM39.8028 38.266C39.4108 38.266 39.0388 38.0347 38.8788 37.6497C38.4738 36.6727 38.1538 35.6549 37.9288 34.6209C37.8108 34.0819 38.1528 33.5487 38.6928 33.4317C39.2288 33.3147 39.7648 33.6569 39.8818 34.1959C40.0828 35.1129 40.3658 36.0169 40.7268 36.8839C40.9388 37.3949 40.6968 37.9797 40.1868 38.1917C40.0608 38.2417 39.9308 38.266 39.8028 38.266ZM71.3538 37.7127C71.2378 37.7127 71.1198 37.6917 71.0038 37.6497C70.4858 37.4567 70.2238 36.8799 70.4168 36.3639C70.7448 35.4849 70.9968 34.5699 71.1638 33.6449C71.2628 33.1029 71.7768 32.742 72.3268 32.839C72.8698 32.938 73.2298 33.4578 73.1328 34.0018C72.9438 35.0428 72.6598 36.0728 72.2898 37.0628C72.1408 37.4648 71.7598 37.7127 71.3538 37.7127ZM38.5188 31.4359C38.5118 31.4359 38.5048 31.4359 38.4978 31.4359C37.9458 31.4239 37.5078 30.9679 37.5188 30.4149C37.5398 29.3549 37.6548 28.2948 37.8598 27.2638C37.9668 26.7218 38.4947 26.3669 39.0347 26.4779C39.5767 26.5839 39.9288 27.1109 39.8208 27.6529C39.6388 28.5699 39.5378 29.5119 39.5188 30.4569C39.5078 31.0009 39.0618 31.4359 38.5188 31.4359ZM72.3958 30.8399C71.8688 30.8399 71.4268 30.4279 71.3988 29.8949C71.3468 28.9549 71.2118 28.0148 70.9978 27.1038C70.8718 26.5668 71.2048 26.0289 71.7428 25.9019C72.2728 25.7779 72.8178 26.1088 72.9448 26.6468C73.1858 27.6708 73.3378 28.7277 73.3948 29.7857C73.4248 30.3377 73.0028 30.808 72.4518 30.839C72.4338 30.84 72.4148 30.8399 72.3958 30.8399ZM40.0748 24.6639C39.9338 24.6639 39.7918 24.6349 39.6558 24.5709C39.1548 24.3399 38.9358 23.7447 39.1688 23.2437C39.6108 22.2867 40.1438 21.3617 40.7508 20.4937C41.0658 20.0407 41.6898 19.9319 42.1438 20.2479C42.5958 20.5639 42.7058 21.188 42.3898 21.641C41.8498 22.412 41.3768 23.2348 40.9838 24.0838C40.8138 24.4488 40.4528 24.6639 40.0748 24.6639ZM70.6038 24.1278C70.2388 24.1278 69.8868 23.9279 69.7108 23.5799C69.2868 22.7439 68.7857 21.9388 68.2197 21.1878C67.8877 20.7468 67.9758 20.1199 68.4168 19.7879C68.8578 19.4549 69.4858 19.5459 69.8168 19.9849C70.4538 20.8299 71.0178 21.7349 71.4938 22.6749C71.7438 23.1679 71.5468 23.7699 71.0548 24.0189C70.9088 24.0939 70.7548 24.1278 70.6038 24.1278ZM44.2258 19.0877C43.9508 19.0877 43.6748 18.9748 43.4778 18.7518C43.1118 18.3388 43.1488 17.7059 43.5618 17.3399C44.3508 16.6399 45.2078 16.0047 46.1118 15.4527C46.5818 15.1617 47.1978 15.3118 47.4858 15.7838C47.7748 16.2548 47.6268 16.8698 47.1548 17.1578C46.3528 17.6488 45.5908 18.2138 44.8898 18.8358C44.6988 19.0048 44.4618 19.0877 44.2258 19.0877ZM66.2608 18.7027C66.0368 18.7027 65.8108 18.628 65.6238 18.474C64.9018 17.876 64.1198 17.3388 63.3018 16.8768C62.8208 16.6058 62.6508 15.9947 62.9218 15.5147C63.1928 15.0337 63.8018 14.8619 64.2838 15.1349C65.2058 15.6559 66.0858 16.2599 66.8988 16.9329C67.3238 17.2849 67.3838 17.9149 67.0318 18.3409C66.8348 18.5789 66.5488 18.7027 66.2608 18.7027ZM50.2587 15.641C49.8357 15.641 49.4448 15.3708 49.3078 14.9488C49.1378 14.4238 49.4258 13.8588 49.9518 13.6898C50.9588 13.3648 51.9997 13.1279 53.0477 12.9879C53.5977 12.9169 54.0988 13.2988 54.1718 13.8458C54.2448 14.3928 53.8608 14.8968 53.3138 14.9698C52.3838 15.0948 51.4598 15.3039 50.5678 15.5919C50.4638 15.6249 50.3597 15.641 50.2587 15.641ZM60.1118 15.4679C60.0208 15.4679 59.9288 15.4558 59.8378 15.4298C58.9358 15.1738 58.0037 14.9959 57.0687 14.9039C56.5197 14.8489 56.1187 14.3589 56.1727 13.8089C56.2287 13.2589 56.7108 12.8599 57.2678 12.9129C58.3198 13.0169 59.3677 13.2179 60.3837 13.5059C60.9147 13.6559 61.2238 14.2098 61.0718 14.7408C60.9478 15.1808 60.5478 15.4679 60.1118 15.4679Z" fill="currentColor"/>
<path d="M38.562 118.683C38.009 118.683 37.562 118.236 37.562 117.683V51.8672H16.167V78.2122C16.167 78.7652 15.72 79.2122 15.167 79.2122C14.614 79.2122 14.167 78.7652 14.167 78.2122V50.8672C14.167 50.3142 14.614 49.8672 15.167 49.8672H38.562C39.115 49.8672 39.562 50.3142 39.562 50.8672V117.683C39.562 118.236 39.115 118.683 38.562 118.683Z" fill="currentColor"/>
<path d="M29.5679 170.613H15.168C14.615 170.613 14.168 170.166 14.168 169.613V89.3535C14.168 88.8005 14.615 88.3535 15.168 88.3535C15.721 88.3535 16.168 88.8005 16.168 89.3535V168.613H29.5679C30.1209 168.613 30.5679 169.06 30.5679 169.613C30.5679 170.166 30.1209 170.613 29.5679 170.613Z" fill="currentColor"/>
<path d="M38.5621 170.612H33.707C33.154 170.612 32.707 170.165 32.707 169.612C32.707 169.059 33.154 168.612 33.707 168.612H37.5621V145.697C37.5621 145.144 38.0091 144.697 38.5621 144.697C39.1151 144.697 39.5621 145.144 39.5621 145.697V169.612C39.5621 170.165 39.1151 170.612 38.5621 170.612Z" fill="currentColor"/>
<path d="M38.5625 142.239C38.0095 142.239 37.5625 141.792 37.5625 141.239V123.095C37.5625 122.542 38.0095 122.095 38.5625 122.095C39.1155 122.095 39.5625 122.542 39.5625 123.095V141.239C39.5625 141.792 39.1155 142.239 38.5625 142.239Z" fill="currentColor"/>
<path d="M69.6138 83.275C66.8608 83.275 64.3158 81.3791 63.7998 78.7721C63.6918 78.2311 64.0438 77.7051 64.5858 77.5971C65.1248 77.4841 65.6527 77.8412 65.7607 78.3832C66.1217 80.1992 68.2577 81.5551 70.2637 81.2211C70.8057 81.1271 71.3248 81.4981 71.4138 82.0431C71.5048 82.5881 71.1367 83.1033 70.5917 83.1933C70.2657 83.2493 69.9378 83.275 69.6138 83.275Z" fill="currentColor"/>
<path d="M87.3704 105.393C87.3164 105.393 87.2634 105.388 87.2084 105.379C85.6884 105.131 84.5824 104.349 83.5794 103.568C83.2064 103.278 83.0874 102.766 83.2944 102.341C84.4564 99.9545 85.6924 97.8665 86.9674 96.1355C87.2954 95.6905 87.9204 95.5966 88.3654 95.9226C88.8104 96.2506 88.9054 96.8765 88.5784 97.3205C87.5074 98.7755 86.4604 100.508 85.4614 102.475C86.1674 102.97 86.7924 103.285 87.5304 103.405C88.0754 103.494 88.4454 104.008 88.3564 104.552C88.2764 105.043 87.8524 105.393 87.3704 105.393Z" fill="currentColor"/>
<path d="M76.7296 69.2198C76.4296 69.2198 76.1326 69.0859 75.9356 68.8289C75.5996 68.3909 75.6806 67.7638 76.1196 67.4268L81.1416 63.5628C81.5796 63.2268 82.2056 63.3069 82.5436 63.7469C82.8796 64.1849 82.7986 64.8118 82.3596 65.1488L77.3376 69.0128C77.1566 69.1528 76.9426 69.2198 76.7296 69.2198Z" fill="currentColor"/>
<path d="M74.4098 65.936C74.2508 65.936 74.0889 65.8981 73.9379 65.8181C73.4519 65.5571 73.2679 64.9511 73.5289 64.4641L76.4259 59.0549C76.6869 58.5699 77.2929 58.387 77.7799 58.646C78.2659 58.907 78.4499 59.513 78.1889 60L75.2919 65.4089C75.1119 65.7449 74.7668 65.936 74.4098 65.936Z" fill="currentColor"/>
<path d="M69.7749 64.1974C69.7129 64.1974 69.6478 64.1913 69.5838 64.1783C69.0418 64.0743 68.6879 63.5494 68.7929 63.0064L69.9519 57.0174C70.0559 56.4764 70.5769 56.1214 71.1239 56.2264C71.6659 56.3304 72.0198 56.8553 71.9148 57.3983L70.7558 63.3873C70.6638 63.8653 70.2449 64.1974 69.7749 64.1974Z" fill="currentColor"/>
<path d="M65.9097 65.1638C65.5117 65.1638 65.1337 64.9238 64.9787 64.5288L62.8537 59.1187C62.6517 58.6047 62.9047 58.0248 63.4187 57.8228C63.9307 57.6228 64.5138 57.8727 64.7148 58.3877L66.8398 63.7979C67.0418 64.3119 66.7887 64.8918 66.2747 65.0938C66.1547 65.1408 66.0317 65.1638 65.9097 65.1638Z" fill="currentColor"/>
<path d="M62.8178 67.8681C62.6238 67.8681 62.4268 67.8113 62.2548 67.6933L58.5848 65.1811C58.1288 64.8691 58.0127 64.2462 58.3237 63.7912C58.6347 63.3352 59.2568 63.2183 59.7138 63.5303L63.3837 66.0422C63.8397 66.3542 63.9558 66.9771 63.6448 67.4321C63.4508 67.7151 63.1378 67.8681 62.8178 67.8681Z" fill="currentColor"/>
<path d="M59.5338 71.3452C58.9978 71.3452 58.5548 70.9201 58.5358 70.3801C58.5158 69.8281 58.9478 69.3652 59.4998 69.3462L62.5968 69.2373C62.6088 69.2363 62.6198 69.2363 62.6328 69.2363C63.1688 69.2363 63.6118 69.6612 63.6308 70.2012C63.6508 70.7532 63.2188 71.2164 62.6668 71.2354L59.5698 71.3442C59.5588 71.3452 59.5468 71.3452 59.5338 71.3452Z" fill="currentColor"/>
<path d="M80.787 72.5038C80.749 72.5038 80.7109 72.502 80.6729 72.497L75.9149 71.954C75.3659 71.892 74.9719 71.3958 75.0349 70.8478C75.0969 70.2978 75.6 69.9029 76.141 69.9679L80.899 70.5109C81.448 70.5729 81.842 71.0689 81.779 71.6169C81.722 72.1279 81.289 72.5038 80.787 72.5038Z" fill="currentColor"/>
<path d="M64.1778 72.5386C63.9948 72.5386 63.8079 72.5225 63.6159 72.4895C63.0719 72.3955 62.7069 71.8785 62.8009 71.3345C62.8949 70.7905 63.4119 70.4306 63.9559 70.5196C65.1419 70.7196 66.3089 68.9095 66.9469 67.2935C67.0549 67.0175 67.2808 66.8044 67.5628 66.7114C67.8448 66.6174 68.1539 66.6535 68.4049 66.8125C68.9279 67.1375 69.4078 67.5226 69.8728 67.8946C70.4978 68.3966 71.0898 68.8706 71.7718 69.2066C72.7808 69.7036 73.9489 69.9256 75.5589 69.9256C75.5639 69.9256 75.5688 69.9256 75.5708 69.9256C76.1228 69.9256 76.5708 70.3726 76.5708 70.9246C76.5708 71.4776 76.1239 71.9256 75.5719 71.9256C75.5679 71.9256 75.5629 71.9256 75.5589 71.9256C73.6529 71.9256 72.1678 71.6315 70.8888 71.0015C70.0088 70.5685 69.3029 70.0026 68.6199 69.4556C68.5069 69.3636 68.3928 69.2736 68.2818 69.1856C67.5138 70.6776 66.1568 72.5386 64.1778 72.5386Z" fill="currentColor"/>
</svg>
