<svg width="141" height="84" viewBox="0 0 141 84" fill="#ffffff0a" xmlns="http://www.w3.org/2000/svg">
<path d="M139.214 83.6699H131.712C131.243 83.6699 130.862 83.2898 130.862 82.8198C130.862 79.6808 128.308 77.127 125.17 77.127C122.031 77.127 119.477 79.6818 119.477 82.8198C119.477 83.2898 119.096 83.6699 118.627 83.6699H109.239C108.77 83.6699 108.389 83.2898 108.389 82.8198C108.389 79.6808 105.836 77.127 102.698 77.127C99.5594 77.127 97.0064 79.6818 97.0064 82.8198C97.0064 83.2898 96.6254 83.6699 96.1564 83.6699H86.7684C86.2994 83.6699 85.9184 83.2898 85.9184 82.8198C85.9184 79.6808 83.3654 77.127 80.2264 77.127C77.0874 77.127 74.5344 79.6818 74.5344 82.8198C74.5344 83.2898 74.1534 83.6699 73.6844 83.6699H64.2974C63.8284 83.6699 63.4474 83.2898 63.4474 82.8198C63.4474 79.6808 60.8934 77.127 57.7544 77.127C54.6154 77.127 52.0624 79.6818 52.0624 82.8198C52.0624 83.2898 51.6814 83.6699 51.2124 83.6699H43.7104C43.2414 83.6699 42.8604 83.2898 42.8604 82.8198V71.5591C42.8604 71.0891 43.2414 70.709 43.7104 70.709C46.8494 70.709 49.4024 68.1551 49.4024 65.0171C49.4024 61.8791 46.8494 59.3252 43.7114 59.3252C43.2424 59.3252 42.8614 58.9451 42.8614 58.4751L42.8604 57.3252H44.5604V57.6738C48.2374 58.0968 51.1024 61.2291 51.1024 65.0181C51.1024 68.8071 48.2374 71.9388 44.5604 72.3618V81.9712H50.4104C50.8334 78.2932 53.9654 75.4282 57.7544 75.4282C61.5434 75.4282 64.6754 78.2932 65.0984 81.9712H72.8834C73.3054 78.2932 76.4384 75.4282 80.2264 75.4282C84.0144 75.4282 87.1474 78.2932 87.5694 81.9712H95.3544C95.7764 78.2932 98.9094 75.4282 102.697 75.4282C106.486 75.4282 109.618 78.2932 110.04 81.9712H117.825C118.248 78.2932 121.38 75.4282 125.169 75.4282C128.958 75.4282 132.09 78.2932 132.513 81.9712H138.363V72.3618C134.686 71.9388 131.821 68.8071 131.821 65.0181C131.821 61.2291 134.686 58.0968 138.363 57.6738V49.2549C134.686 48.8319 131.821 45.7001 131.821 41.9111C131.821 38.1231 134.686 34.9899 138.363 34.5669V26.147C134.686 25.724 131.821 22.5922 131.821 18.8032C131.821 15.0142 134.686 11.882 138.363 11.459V1.8501H132.511C132.096 5.5791 128.961 8.44922 125.168 8.44922C121.359 8.44922 118.214 5.5551 117.817 1.8501H110.038C109.621 5.5791 106.487 8.44922 102.695 8.44922C98.8874 8.44922 95.7424 5.5551 95.3454 1.8501H87.5664C87.1504 5.5791 84.0164 8.44922 80.2234 8.44922C76.4154 8.44922 73.2704 5.5551 72.8734 1.8501H65.0944C64.6784 5.5791 61.5444 8.44922 57.7514 8.44922C53.9434 8.44922 50.7984 5.5551 50.4014 1.8501H44.5574V11.459C48.2344 11.882 51.0994 15.0142 51.0994 18.8032C51.0994 21.5412 49.5964 24.0421 47.1784 25.3311C46.7624 25.5531 46.2494 25.394 46.0284 24.98C45.8074 24.566 45.9644 24.0511 46.3784 23.8311C48.2424 22.8381 49.3994 20.9112 49.3994 18.8032C49.3994 15.6642 46.8464 13.1108 43.7084 13.1108C43.2394 13.1108 42.8584 12.7312 42.8584 12.2612L42.8574 1C42.8574 0.774 42.9474 0.558926 43.1064 0.398926C43.2664 0.238926 43.4814 0.149902 43.7074 0.149902H51.2124C51.6814 0.149902 52.0624 0.53 52.0624 1C52.0594 4.195 54.6134 6.74902 57.7524 6.74902C60.8914 6.74902 63.4454 4.19513 63.4454 1.05713C63.4454 0.587129 63.8234 0.150879 64.2924 0.150879H73.6854C74.1544 0.150879 74.5354 0.530977 74.5354 1.00098C74.5334 4.19598 77.0864 6.75 80.2254 6.75C83.3644 6.75 85.9174 4.19611 85.9174 1.05811C85.9174 0.588105 86.2954 0.151855 86.7654 0.151855H96.1574C96.6264 0.151855 97.0074 0.531953 97.0074 1.00195C97.0054 4.19695 99.5584 6.75098 102.697 6.75098C105.835 6.75098 108.388 4.19708 108.388 1.05908C108.388 0.589082 108.767 0.152832 109.236 0.152832H118.628C119.097 0.152832 119.478 0.53293 119.478 1.00293C119.475 4.19793 122.029 6.75195 125.168 6.75195C128.307 6.75195 130.86 4.19806 130.86 1.06006C130.86 0.590059 131.238 0.153809 131.707 0.153809H139.212C139.681 0.153809 140.062 0.533906 140.062 1.00391V12.2651C140.062 12.7351 139.681 13.1152 139.212 13.1152C136.073 13.1152 133.52 15.6691 133.52 18.8071C133.52 21.9451 136.073 24.499 139.212 24.499C139.681 24.499 140.062 24.8791 140.062 25.3491V35.3711C140.062 35.8411 139.682 36.2212 139.212 36.2212C136.073 36.2222 133.52 38.7761 133.52 41.9141C133.52 45.0521 136.073 47.606 139.212 47.606C139.681 47.606 140.062 47.9861 140.062 48.4561V58.478C140.062 58.948 139.681 59.3281 139.212 59.3281C136.073 59.3281 133.52 61.882 133.52 65.02C133.52 68.158 136.073 70.7119 139.212 70.7119C139.681 70.7119 140.062 71.092 140.062 71.562V82.8232C140.064 83.2902 139.684 83.6699 139.214 83.6699ZM125.358 69.2261H57.5664C57.0974 69.2261 56.7164 68.846 56.7164 68.376V60.7422C56.7164 60.2722 57.0974 59.8921 57.5664 59.8921C58.0354 59.8921 58.4164 60.2722 58.4164 60.7422V67.5259H124.508V16.2939H58.4164V24.1699C58.4164 24.6399 58.0354 25.02 57.5664 25.02C57.0974 25.02 56.7164 24.6399 56.7164 24.1699V15.4438C56.7164 14.9738 57.0974 14.5942 57.5664 14.5942H125.358C125.827 14.5942 126.208 14.9738 126.208 15.4438V68.376C126.208 68.846 125.827 69.2261 125.358 69.2261ZM43.7104 49.3032C43.2414 49.3032 42.8604 48.9231 42.8604 48.4531C42.8604 47.9831 43.2414 47.603 43.7104 47.603C45.2304 47.603 46.6594 47.01 47.7344 45.936C48.0664 45.604 48.6044 45.604 48.9364 45.936C49.2684 46.267 49.2684 46.8062 48.9364 47.1372C47.5414 48.5342 45.6844 49.3032 43.7104 49.3032ZM49.4154 39.5562C49.1184 39.5562 48.8304 39.4001 48.6734 39.1221C47.6654 37.3311 45.7634 36.2178 43.7104 36.2178C43.2414 36.2178 42.8604 35.8382 42.8604 35.3682L42.8594 32.0171H44.5594V34.5669C46.8924 34.8379 48.9864 36.2121 50.1544 38.2881C50.3844 38.6971 50.2394 39.2158 49.8304 39.4458C49.6994 39.5198 49.5564 39.5562 49.4154 39.5562Z" fill="#ffffff0a"/>
<path d="M86.3618 30.9839C81.7968 30.9839 79.5078 29.2082 77.2928 27.4902C75.2128 25.8762 73.2488 24.3511 69.2658 24.3511C65.2828 24.3511 63.3188 25.8752 61.2388 27.4902C59.0248 29.2082 56.7358 30.9839 52.1708 30.9839C47.6058 30.9839 45.3168 29.2078 43.1028 27.4888C41.0238 25.8758 39.0598 24.3511 35.0778 24.3511C31.0958 24.3511 29.1318 25.8752 27.0528 27.4902C24.8388 29.2082 22.5498 30.9839 17.9858 30.9839C13.4238 30.9839 11.1348 29.2082 8.92183 27.4902C6.84283 25.8762 4.87983 24.3511 0.898834 24.3511C0.429834 24.3511 0.0488281 23.971 0.0488281 23.501C0.0488281 23.031 0.429834 22.6509 0.898834 22.6509C5.46183 22.6509 7.75084 24.427 9.96384 26.146C12.0418 27.759 14.0058 29.2842 17.9848 29.2842C21.9668 29.2842 23.9308 27.76 26.0098 26.145C28.2238 24.427 30.5128 22.6509 35.0768 22.6509C39.6408 22.6509 41.9298 24.427 44.1438 26.145C46.2238 27.759 48.1878 29.2842 52.1698 29.2842C56.1518 29.2842 58.1168 27.76 60.1958 26.145C62.4098 24.427 64.6998 22.6509 69.2648 22.6509C73.8298 22.6509 76.1189 24.427 78.3338 26.145C80.4138 27.759 82.3778 29.2842 86.3608 29.2842C86.8298 29.2842 87.2108 29.6638 87.2108 30.1338C87.2108 30.6038 86.8308 30.9839 86.3618 30.9839Z" fill="#ffffff0a"/>
<path d="M86.3618 44.0708C81.7968 44.0708 79.5078 42.2951 77.2928 40.5771C75.2128 38.9631 73.2488 37.438 69.2658 37.438C65.2828 37.438 63.3188 38.9621 61.2388 40.5771C59.0248 42.2951 56.7358 44.0708 52.1708 44.0708C47.6058 44.0708 45.3168 42.2952 43.1028 40.5762C41.0238 38.9632 39.0598 37.438 35.0778 37.438C31.0958 37.438 29.1318 38.9621 27.0528 40.5771C24.8388 42.2951 22.5498 44.0708 17.9858 44.0708C13.4238 44.0708 11.1348 42.2951 8.92183 40.5771C6.84283 38.9631 4.87983 37.438 0.898834 37.438C0.429834 37.438 0.0488281 37.0579 0.0488281 36.5879C0.0488281 36.1179 0.429834 35.7378 0.898834 35.7378C5.46183 35.7378 7.75084 37.5139 9.96384 39.2329C12.0418 40.8459 14.0058 42.3711 17.9848 42.3711C21.9668 42.3711 23.9308 40.8469 26.0098 39.2319C28.2238 37.5139 30.5128 35.7378 35.0768 35.7378C39.6408 35.7378 41.9298 37.5139 44.1438 39.2319C46.2238 40.8459 48.1878 42.3711 52.1698 42.3711C56.1518 42.3711 58.1168 40.8469 60.1958 39.2319C62.4098 37.5139 64.6998 35.7378 69.2648 35.7378C73.8298 35.7378 76.1189 37.5139 78.3338 39.2319C80.4138 40.8459 82.3778 42.3711 86.3608 42.3711C86.8298 42.3711 87.2108 42.7512 87.2108 43.2212C87.2108 43.6912 86.8308 44.0708 86.3618 44.0708Z" fill="#ffffff0a"/>
<path d="M86.3618 57.1582C81.7968 57.1582 79.5078 55.3821 77.2928 53.6641C75.2128 52.0511 73.2488 50.5259 69.2658 50.5259C65.2828 50.5259 63.3188 52.0501 61.2388 53.6641C59.0248 55.3821 56.7358 57.1582 52.1708 57.1582C47.6068 57.1582 45.3168 55.3821 43.1028 53.6641C41.0238 52.0511 39.0598 50.5259 35.0778 50.5259C31.0958 50.5259 29.1318 52.0501 27.0528 53.6641C24.8388 55.3821 22.5498 57.1582 17.9858 57.1582C13.4238 57.1582 11.1348 55.3821 8.92183 53.6641C6.84283 52.0511 4.87983 50.5259 0.898834 50.5259C0.429834 50.5259 0.0488281 50.1458 0.0488281 49.6758C0.0488281 49.2058 0.429834 48.8262 0.898834 48.8262C5.46183 48.8262 7.75084 50.6018 9.96384 52.3198C12.0418 53.9328 14.0048 55.458 17.9848 55.458C21.9668 55.458 23.9308 53.9338 26.0098 52.3198C28.2238 50.6018 30.5128 48.8262 35.0768 48.8262C39.6408 48.8262 41.9298 50.6018 44.1438 52.3198C46.2238 53.9328 48.1878 55.458 52.1698 55.458C56.1518 55.458 58.1168 53.9338 60.1958 52.3198C62.4098 50.6018 64.6998 48.8262 69.2648 48.8262C73.8298 48.8262 76.1189 50.6018 78.3338 52.3198C80.4138 53.9328 82.3778 55.458 86.3608 55.458C86.8298 55.458 87.2108 55.8381 87.2108 56.3081C87.2108 56.7781 86.8308 57.1582 86.3618 57.1582Z" fill="#ffffff0a"/>
<path d="M57.4974 51.2632C57.0284 51.2632 56.6475 50.8831 56.6475 50.4131V46.02C56.6475 45.55 57.0284 45.1699 57.4974 45.1699C57.9664 45.1699 58.3474 45.55 58.3474 46.02V50.4131C58.3474 50.8831 57.9664 51.2632 57.4974 51.2632Z" fill="#ffffff0a"/>
<path d="M57.4974 38.3589C57.0284 38.3589 56.6475 37.9788 56.6475 37.5088V33.1152C56.6475 32.6452 57.0284 32.2651 57.4974 32.2651C57.9664 32.2651 58.3474 32.6452 58.3474 33.1152V37.5088C58.3474 37.9788 57.9664 38.3589 57.4974 38.3589Z" fill="#ffffff0a"/>
</svg>
