<svg width="114" height="101" viewBox="0 0 114 101" fill="none" xmlns="http://www.w3.org/2000/svg">
<path d="M74.8533 100.868H37.3962C36.9262 100.868 36.5461 100.488 36.5461 100.018V95.7947C32.3231 93.4547 0.408133 74.8627 0.411133 48.1277C0.411133 47.6577 0.791231 47.2778 1.26123 47.2778H110.988C111.458 47.2778 111.838 47.6577 111.838 48.1277C111.841 74.8627 79.9261 93.4547 75.7031 95.7947V100.018C75.7021 100.488 75.3223 100.868 74.8533 100.868ZM38.2454 99.1687H74.0032V95.2908C74.0032 94.9748 74.1792 94.6849 74.4592 94.5369C74.8132 94.3529 109.411 75.9658 110.126 48.9778H2.12231C2.83731 75.9788 37.4353 94.3529 37.7893 94.5369C38.0693 94.6829 38.2454 94.9748 38.2454 95.2908V99.1687Z" fill="black"/>
<path d="M63.136 96.1406H37.396C36.926 96.1406 36.5459 95.7605 36.5459 95.2905C36.5459 94.8205 36.926 94.4404 37.396 94.4404H63.136C63.606 94.4404 63.9861 94.8205 63.9861 95.2905C63.9861 95.7605 63.605 96.1406 63.136 96.1406Z" fill="black"/>
<path d="M74.8533 96.1406H67.3032C66.8332 96.1406 66.4531 95.7605 66.4531 95.2905C66.4531 94.8205 66.8332 94.4404 67.3032 94.4404H74.8533C75.3233 94.4404 75.7031 94.8205 75.7031 95.2905C75.7031 95.7605 75.3223 96.1406 74.8533 96.1406Z" fill="black"/>
<path d="M110.34 56.7297H2.16553C1.69553 56.7297 1.31543 56.3496 1.31543 55.8796C1.31543 55.4096 1.69553 55.0298 2.16553 55.0298H110.34C110.81 55.0298 111.189 55.4096 111.189 55.8796C111.189 56.3496 110.81 56.7297 110.34 56.7297Z" fill="black"/>
<path d="M7.39623 19.7437C6.44423 19.7437 5.63229 19.0319 5.50829 18.0889C5.37229 17.0719 6.08726 16.1149 7.10326 15.9569L109.225 0.056723C110.931 -0.206277 112.464 0.954899 112.722 2.6119C112.848 3.4199 112.651 4.22775 112.168 4.88875C111.686 5.54875 110.975 5.98275 110.167 6.10775L7.64721 19.7279C7.56221 19.7379 7.47923 19.7437 7.39623 19.7437ZM109.7 1.71981C109.63 1.71981 109.558 1.7259 109.487 1.7369L7.36523 17.6368C7.25623 17.6538 7.17933 17.7558 7.19433 17.8658C7.20833 17.9688 7.29523 18.0448 7.39623 18.0448L7.42431 18.0428L109.875 4.43392C110.265 4.37292 110.581 4.1808 110.796 3.8868C111.011 3.5928 111.098 3.23286 111.042 2.87386C110.94 2.21586 110.363 1.71981 109.7 1.71981Z" fill="black"/>
<path d="M8.77417 17.406L6.86816 17.4041C5.81816 17.4031 4.96631 16.548 4.96631 15.499C4.96631 14.473 5.80235 13.6179 6.82935 13.5959L24.8003 13.209C24.8073 13.209 24.8133 13.209 24.8193 13.209C25.2583 13.209 25.6273 13.5439 25.6663 13.9839C25.7053 14.4289 25.3932 14.8299 24.9502 14.8979L8.90625 17.396C8.86225 17.403 8.81817 17.406 8.77417 17.406ZM12.0713 15.1831L6.86621 15.2949C6.75621 15.2979 6.66528 15.389 6.66528 15.499C6.66528 15.612 6.75836 15.7041 6.87036 15.7051L8.70923 15.707L12.0713 15.1831Z" fill="black"/>
<path d="M110.221 17.4961L24.9523 17.4209C24.5053 17.4209 24.1354 17.073 24.1044 16.627C24.0754 16.181 24.3974 15.788 24.8404 15.729L47.4313 12.7271L110.157 11.373H110.159C111.877 11.373 113.249 12.7169 113.284 14.3679C113.302 15.1849 113 15.961 112.434 16.552C111.868 17.143 111.107 17.4781 110.289 17.4951C110.283 17.4951 110.228 17.4961 110.221 17.4961ZM37.6954 15.7319L110.218 15.7959C110.239 15.7949 110.261 15.7949 110.271 15.7949C110.616 15.7869 110.955 15.638 111.207 15.375C111.458 15.112 111.593 14.7681 111.585 14.4041C111.569 13.6691 110.959 13.071 110.225 13.071L47.5633 14.418L37.6954 15.7319Z" fill="black"/>
<path d="M17.4182 48.9791C16.9482 48.9791 16.5684 48.599 16.5684 48.129C16.5684 46.434 15.4874 45.5751 14.2354 44.5821C12.8404 43.4751 11.2593 42.22 11.2593 39.702C11.2593 37.185 12.8404 35.9311 14.2354 34.8231C15.4874 33.8301 16.5684 32.972 16.5684 31.276C16.5684 29.582 15.4874 28.724 14.2354 27.732C12.8404 26.626 11.2593 25.3721 11.2593 22.8561C11.2593 20.3401 12.8394 19.0851 14.2354 17.9791C14.5714 17.7121 14.9072 17.446 15.2192 17.161C15.5662 16.846 16.1032 16.8692 16.4202 17.2162C16.7362 17.5632 16.7122 18.1011 16.3652 18.4171C16.0242 18.7291 15.6573 19.0201 15.2913 19.3111C14.0393 20.3051 12.9583 21.163 12.9583 22.857C12.9583 24.551 14.0393 25.409 15.2913 26.401C16.6863 27.507 18.2673 28.7612 18.2673 31.2772C18.2673 33.7942 16.6863 35.0481 15.2913 36.1561C14.0393 37.1491 12.9583 38.007 12.9583 39.703C12.9583 41.399 14.0393 42.2581 15.2913 43.2511C16.6873 44.3581 18.2673 45.613 18.2673 48.13C18.2683 48.599 17.8882 48.9791 17.4182 48.9791Z" fill="black"/>
<path d="M23.4783 48.9789C23.0083 48.9789 22.6282 48.5988 22.6282 48.1288C22.6282 46.4328 21.5471 45.5749 20.2961 44.5819C18.9001 43.4749 17.3203 42.2198 17.3203 39.7018C17.3203 37.1848 18.9002 35.9309 20.2952 34.8229C21.5472 33.8299 22.6282 32.9718 22.6282 31.2758C22.6282 29.5817 21.5471 28.7238 20.2961 27.7318C18.9001 26.6258 17.3203 25.3718 17.3203 22.8558C17.3203 20.3388 18.9011 19.0849 20.2961 17.9779C20.9531 17.4569 21.5743 16.964 22.0083 16.37C22.2853 15.992 22.8173 15.9089 23.1963 16.1849C23.5753 16.4619 23.6573 16.9949 23.3813 17.3729C22.8113 18.1519 22.0693 18.7399 21.3533 19.3099C20.1013 20.3029 19.0203 21.1608 19.0203 22.8558C19.0203 24.5498 20.1013 25.4078 21.3523 26.3998C22.7483 27.5058 24.3281 28.7598 24.3281 31.2758C24.3281 33.7927 22.7483 35.0469 21.3533 36.1549C20.1013 37.1479 19.0203 38.0058 19.0203 39.7018C19.0203 41.3978 20.1013 42.2569 21.3533 43.2499C22.7483 44.3569 24.3281 45.6118 24.3281 48.1288C24.3271 48.5988 23.9473 48.9789 23.4783 48.9789Z" fill="black"/>
<path d="M29.5371 48.9791C29.0671 48.9791 28.687 48.599 28.687 48.129C28.687 46.433 27.606 45.5751 26.355 44.5821C24.959 43.4751 23.3789 42.22 23.3789 39.702C23.3789 37.185 24.959 35.9311 26.354 34.8231C27.606 33.8301 28.687 32.972 28.687 31.276C28.687 29.582 27.606 28.724 26.355 27.732C24.959 26.626 23.3789 25.372 23.3789 22.856C23.3789 20.338 24.96 19.0851 26.356 17.9771C27.097 17.3901 27.796 16.8351 28.229 16.1331C28.474 15.7341 28.9979 15.6081 29.3979 15.8551C29.7979 16.1011 29.922 16.625 29.676 17.024C29.087 17.982 28.2361 18.6572 27.4121 19.3092C26.1601 20.3022 25.0779 21.161 25.0779 22.856C25.0779 24.55 26.1589 25.408 27.4099 26.4C28.8059 27.506 30.386 28.76 30.386 31.276C30.386 33.793 28.8059 35.0471 27.4109 36.1551C26.1589 37.1481 25.0779 38.006 25.0779 39.702C25.0779 41.398 26.1589 42.2571 27.4109 43.2501C28.8059 44.3571 30.386 45.612 30.386 48.129C30.387 48.599 30.0071 48.9791 29.5371 48.9791Z" fill="black"/>
<path d="M35.5984 48.9789C35.1284 48.9789 34.7485 48.5988 34.7485 48.1288C34.7485 46.4328 33.6675 45.5749 32.4165 44.5819C31.0205 43.4749 29.4404 42.2198 29.4404 39.7018C29.4404 37.1848 31.0205 35.9309 32.4155 34.8229C33.6675 33.8299 34.7485 32.9718 34.7485 31.2758C34.7485 29.5818 33.6675 28.7238 32.4165 27.7318C31.0205 26.6258 29.4404 25.3719 29.4404 22.8559C29.4404 20.3389 31.0205 19.0849 32.4165 17.9789C33.5265 17.0969 34.4864 16.336 34.7014 15.027C34.7774 14.563 35.2115 14.2538 35.6785 14.3258C36.1425 14.4018 36.4554 14.8399 36.3794 15.3029C36.0574 17.2609 34.6844 18.3499 33.4734 19.3119C32.2214 20.3039 31.1404 21.1618 31.1404 22.8568C31.1404 24.5508 32.2214 25.4088 33.4724 26.4008C34.8684 27.5068 36.4485 28.761 36.4485 31.277C36.4485 33.794 34.8684 35.0479 33.4734 36.1559C32.2214 37.1489 31.1404 38.0068 31.1404 39.7028C31.1404 41.3988 32.2214 42.2579 33.4734 43.2509C34.8684 44.3579 36.4485 45.6128 36.4485 48.1298C36.4475 48.5988 36.0674 48.9789 35.5984 48.9789Z" fill="black"/>
<path d="M41.658 48.979C41.188 48.979 40.8081 48.5989 40.8081 48.1289C40.8081 46.4339 39.7271 45.575 38.4751 44.582C37.0801 43.475 35.499 42.2199 35.499 39.7019C35.499 37.1849 37.0801 35.931 38.4751 34.823C39.7271 33.83 40.8081 32.9719 40.8081 31.2759C40.8081 29.5819 39.7271 28.7239 38.4751 27.7319C37.0801 26.6259 35.499 25.372 35.499 22.856C35.499 20.34 37.0791 19.085 38.4751 17.979C39.7271 16.986 40.8081 16.1281 40.8081 14.4331C40.8081 13.9631 41.188 13.583 41.658 13.583C42.128 13.583 42.5081 13.9631 42.5081 14.4331C42.5081 16.9501 40.927 18.204 39.532 19.311C38.28 20.304 37.199 21.162 37.199 22.856C37.199 24.55 38.28 25.4079 39.532 26.3999C40.927 27.5059 42.5081 28.7599 42.5081 31.2759C42.5081 33.7929 40.927 35.047 39.532 36.155C38.28 37.148 37.199 38.0059 37.199 39.7019C37.199 41.3979 38.28 42.257 39.532 43.25C40.928 44.357 42.5081 45.6119 42.5081 48.1289C42.5081 48.5989 42.128 48.979 41.658 48.979Z" fill="black"/>
<path d="M89.5173 78.4699C89.2653 78.4699 89.0161 78.3597 88.8481 78.1467C88.5581 77.7777 88.6212 77.2436 88.9902 76.9526C90.2362 75.9716 91.4732 74.8626 92.6672 73.6586C92.9972 73.3276 93.5351 73.3248 93.8691 73.6538C94.2021 73.9838 94.2052 74.5217 93.8742 74.8557C92.6322 76.1087 91.3431 77.2638 90.0431 78.2888C89.8861 78.4098 89.7003 78.4699 89.5173 78.4699Z" fill="black"/>
<path d="M95.9476 72.1803C95.7536 72.1803 95.5575 72.1154 95.3975 71.9794C95.0405 71.6754 94.9956 71.1394 95.2986 70.7814C98.3116 67.2264 100.804 63.5153 102.706 59.7543C102.919 59.3363 103.429 59.1703 103.848 59.3793C104.267 59.5913 104.435 60.1034 104.223 60.5224C102.26 64.4034 99.6945 68.2245 96.5955 71.8815C96.4285 72.0785 96.1886 72.1803 95.9476 72.1803Z" fill="black"/>
<path d="M91.7744 48.391C91.6124 48.392 91.4485 48.3449 91.3025 48.2479L91.0715 48.0919C89.8105 47.2449 88.7185 46.5089 87.3435 46.7289C87.0235 46.7789 86.6916 46.9388 86.3396 47.1088C85.9466 47.2978 85.5014 47.5118 84.9934 47.6068C84.0514 47.7798 83.1485 47.6328 82.3525 47.5028L82.1474 47.4689C81.0164 47.2859 80.1655 46.784 79.3405 46.298C79.0005 46.098 78.6504 45.8909 78.2624 45.6969C77.2634 45.1989 75.8064 45.0989 74.4594 45.4349C73.5374 45.6659 72.6705 46.0049 71.8325 46.3319C70.0335 47.0349 68.1695 47.7598 65.7805 47.4298C64.3955 47.2388 62.9294 46.7979 61.5114 46.3719C57.3824 45.1329 53.4825 43.9598 50.6755 48.0238C50.4085 48.4078 49.8794 48.5059 49.4924 48.2399C49.1064 47.9729 49.0103 47.4438 49.2763 47.0568C52.7863 41.9778 57.6805 43.4468 62.0005 44.7438C63.4185 45.1698 64.7584 45.572 66.0134 45.746C67.9594 46.013 69.4703 45.4289 71.2133 44.7479C72.1013 44.4009 73.0184 44.0428 74.0444 43.7858C75.7954 43.3478 77.6534 43.4929 79.0214 44.1749C79.4454 44.3869 79.8313 44.6129 80.2033 44.8329C80.9543 45.2749 81.6034 45.6579 82.4184 45.7899L82.6284 45.8238C83.3164 45.9368 84.0313 46.055 84.6823 45.934C84.9663 45.881 85.2746 45.7328 85.6006 45.5758C86.0275 45.3708 86.5106 45.1379 87.0796 45.0489C89.1236 44.7309 90.6585 45.7668 92.0185 46.6818L92.2475 46.8339C92.6375 47.0959 92.7424 47.6228 92.4814 48.0138C92.3184 48.2588 92.0494 48.391 91.7744 48.391Z" fill="black"/>
</svg>
