<svg width="186" height="118" viewBox="0 0 186 118" fill="none" xmlns="http://www.w3.org/2000/svg">
<path d="M54.4052 117.961H39.5882C39.5182 117.961 39.4472 117.952 39.3792 117.936C39.2162 117.895 23.1572 113.593 23.1572 93.4111V83.3091C23.1572 82.8391 23.5382 82.459 24.0072 82.459H69.9842C70.4532 82.459 70.8342 82.8391 70.8342 83.3091V93.4111C70.8342 113.594 54.7752 117.895 54.6132 117.936C54.5462 117.952 54.4762 117.961 54.4052 117.961ZM39.7032 116.262H54.2932C55.6952 115.87 69.1352 111.643 69.1352 93.4102V84.1582H24.8592V93.4102C24.8592 101.349 27.3842 107.615 32.3632 112.033C35.7322 115.022 39.1042 116.089 39.7032 116.262Z" fill="currentColor"/>
<path d="M27.0932 117.961H14.4802C14.4102 117.961 14.3392 117.952 14.2712 117.936C14.1322 117.901 0.366211 114.214 0.366211 96.9341V88.334C0.366211 87.864 0.747217 87.4839 1.21622 87.4839H24.0082C24.4772 87.4839 24.8582 87.864 24.8582 88.334C24.8582 88.804 24.4772 89.1841 24.0082 89.1841H2.06621V96.9341C2.06621 112.177 13.4472 115.923 14.5962 116.262H26.9772C27.4892 116.112 30.0162 115.294 32.6402 113.139C33.0032 112.841 33.5382 112.893 33.8362 113.257C34.1342 113.619 34.0822 114.155 33.7192 114.453C30.4852 117.108 27.4312 117.902 27.3022 117.935C27.2342 117.952 27.1642 117.961 27.0932 117.961Z" fill="currentColor"/>
<path d="M69.9852 90.063H24.0082C23.5392 90.063 23.1582 89.6829 23.1582 89.2129C23.1582 88.7429 23.5392 88.3628 24.0082 88.3628H69.9852C70.4542 88.3628 70.8352 88.7429 70.8352 89.2129C70.8352 89.6829 70.4542 90.063 69.9852 90.063Z" fill="currentColor"/>
<path d="M32.442 106.9C32.202 106.9 31.965 106.799 31.796 106.603C27.795 101.935 28.174 93.7134 28.192 93.3664C28.217 92.8974 28.634 92.5432 29.084 92.5612C29.553 92.5852 29.913 92.9853 29.89 93.4543C29.886 93.5323 29.532 101.349 33.087 105.498C33.392 105.854 33.351 106.391 32.995 106.696C32.835 106.834 32.638 106.9 32.442 106.9Z" fill="currentColor"/>
<path d="M137.951 63.2761C118.936 63.2761 111.269 60.9493 110.952 60.8503C110.504 60.7103 110.255 60.2344 110.394 59.7864C110.533 59.3394 111.011 59.0883 111.458 59.2273C111.534 59.2503 119.252 61.5774 137.951 61.5774C138.42 61.5774 138.801 61.957 138.801 62.427C138.801 62.897 138.42 63.2761 137.951 63.2761Z" fill="currentColor"/>
<path d="M137.95 66.0791C123.008 66.0791 113.41 64.188 113.315 64.169C112.855 64.077 112.556 63.629 112.648 63.169C112.741 62.708 113.192 62.413 113.648 62.503C113.742 62.522 123.191 64.3799 137.949 64.3799C138.418 64.3799 138.799 64.76 138.799 65.23C138.799 65.7 138.419 66.0791 137.95 66.0791Z" fill="currentColor"/>
<path d="M102.133 68.567C101.854 68.567 101.581 68.4303 101.419 68.1793C101.164 67.7853 101.276 67.259 101.67 67.003C101.863 66.878 106.44 63.9222 109.533 62.5582C109.965 62.3692 110.465 62.5632 110.654 62.9932C110.844 63.4232 110.649 63.9238 110.219 64.1128C107.251 65.4228 102.64 68.4012 102.594 68.4312C102.452 68.5232 102.292 68.567 102.133 68.567Z" fill="currentColor"/>
<path d="M137.951 63.276C137.482 63.276 137.101 62.8959 137.101 62.4259C137.101 61.9559 137.482 61.5763 137.951 61.5763C156.649 61.5763 164.367 59.2502 164.443 59.2262C164.888 59.0852 165.367 59.3372 165.506 59.7852C165.646 60.2332 165.396 60.7102 164.948 60.8492C164.632 60.9492 156.965 63.276 137.951 63.276Z" fill="currentColor"/>
<path d="M137.951 66.0791C137.482 66.0791 137.101 65.699 137.101 65.229C137.101 64.759 137.482 64.3789 137.951 64.3789C152.725 64.3789 162.157 62.521 162.251 62.502C162.708 62.412 163.159 62.707 163.251 63.168C163.343 63.628 163.045 64.076 162.585 64.168C162.49 64.188 152.893 66.0791 137.951 66.0791Z" fill="currentColor"/>
<path d="M173.769 68.5668C173.611 68.5668 173.451 68.5231 173.308 68.4311C173.262 68.4011 168.65 65.4217 165.682 64.1127C165.253 63.9237 165.058 63.4231 165.247 62.9931C165.437 62.5631 165.937 62.367 166.368 62.558C169.461 63.922 174.038 66.8779 174.231 67.0029C174.625 67.2589 174.738 67.7851 174.482 68.1791C174.321 68.4311 174.048 68.5668 173.769 68.5668Z" fill="currentColor"/>
<path d="M137.95 95.0808C104.679 95.0808 91.2355 89.3556 90.6785 89.1116C90.2485 88.9236 90.0535 88.4239 90.2415 87.9939C90.4295 87.5629 90.9315 87.37 91.3605 87.555C91.4945 87.614 105.106 93.3816 137.95 93.3816C170.866 93.3816 184.406 87.6129 184.539 87.5559C184.971 87.3679 185.47 87.5629 185.659 87.9939C185.848 88.4239 185.652 88.9246 185.222 89.1126C184.666 89.3556 171.221 95.0808 137.95 95.0808Z" fill="currentColor"/>
<path d="M137.951 100.521C104.669 100.521 92.0559 94.788 91.5359 94.543C91.1109 94.344 90.9289 93.8391 91.1269 93.4141C91.3249 92.9901 91.8319 92.808 92.2559 93.003C92.3809 93.062 105.131 98.8209 137.95 98.8209C170.769 98.8209 183.519 93.061 183.644 93.003C184.069 92.806 184.575 92.9891 184.773 93.4141C184.972 93.8391 184.789 94.344 184.364 94.543C183.845 94.787 171.233 100.521 137.951 100.521Z" fill="currentColor"/>
<path d="M102.132 66.0801C102.04 66.0801 101.946 66.0642 101.854 66.0322C91.6633 62.5002 90.3223 44.293 91.8713 33.646C93.3663 23.371 101.168 14.5819 101.5 14.2119C101.653 14.0409 101.87 13.9402 102.099 13.9312C102.322 13.9322 102.552 14.006 102.719 14.165L106.591 17.853C106.754 18.008 106.849 18.2222 106.854 18.4482C106.859 18.6742 106.775 18.8912 106.62 19.0542C96.6203 29.5472 97.3143 40.0248 97.8213 47.6738C97.8883 48.6858 97.9513 49.645 97.9863 50.543C98.3283 59.311 102.487 61.6508 102.529 61.6738C102.94 61.8958 103.098 62.4078 102.881 62.8198C102.664 63.2318 102.157 63.3922 101.743 63.1812C101.536 63.0742 96.6713 60.4519 96.2873 50.6089C96.2523 49.7249 96.1903 48.7821 96.1243 47.7861C95.6073 39.9721 94.9023 29.3229 104.809 18.5029L102.2 16.019C100.383 18.242 94.7463 25.6921 93.5543 33.8901C91.9743 44.7471 93.6783 61.3988 102.411 64.4258C102.854 64.5788 103.09 65.0638 102.936 65.5068C102.814 65.8588 102.484 66.0801 102.132 66.0801Z" fill="currentColor"/>
<path d="M173.77 66.0801C173.418 66.0801 173.089 65.8588 172.967 65.5078C172.813 65.0648 173.049 64.5798 173.492 64.4268C182.224 61.3998 183.928 44.7481 182.349 33.8911C181.157 25.6931 175.52 18.243 173.703 16.02L171.094 18.5039C181.001 29.3239 180.296 39.9731 179.779 47.7871C179.713 48.7831 179.651 49.7259 179.616 50.6099C179.233 60.4539 174.368 63.0752 174.161 63.1812C173.744 63.3952 173.231 63.2339 173.016 62.8159C172.802 62.4009 172.963 61.8908 173.375 61.6738C173.445 61.6348 177.577 59.28 177.918 50.543C177.953 49.645 178.016 48.6858 178.083 47.6738C178.59 40.0248 179.284 29.5472 169.284 19.0542C169.128 18.8912 169.044 18.6733 169.05 18.4483C169.055 18.2223 169.15 18.009 169.314 17.853L173.187 14.165C173.353 14.006 173.573 13.9302 173.806 13.9312C174.035 13.9402 174.252 14.0409 174.405 14.2129C174.736 14.5809 182.539 23.37 184.034 33.646C185.582 44.292 184.241 62.5002 174.051 66.0322C173.956 66.0642 173.862 66.0801 173.77 66.0801Z" fill="currentColor"/>
<path d="M168.628 20.0562C168.415 20.0562 168.203 19.9768 168.038 19.8188C167.942 19.7268 158.255 10.6548 137.952 10.6548C117.649 10.6548 107.961 19.7268 107.866 19.8188C107.544 20.1298 107.036 20.1369 106.705 19.8359L100.621 14.3062C100.447 14.1482 100.347 13.9249 100.343 13.6909C100.34 13.4569 100.433 13.2309 100.601 13.0669C113.004 1.03389 136.934 0.895996 137.947 0.895996C138.97 0.895996 162.9 1.03389 175.303 13.0669C175.471 13.2309 175.565 13.4569 175.561 13.6909C175.557 13.9249 175.457 14.1482 175.283 14.3062L169.2 19.8359C169.037 19.9819 168.832 20.0562 168.628 20.0562ZM102.445 13.666L107.284 18.0649C109.727 16.0299 119.544 8.95508 137.951 8.95508C156.357 8.95508 166.174 16.0299 168.618 18.0649L173.457 13.666C161.365 2.72202 138.923 2.59424 137.957 2.59424C136.98 2.59424 114.537 2.72202 102.445 13.666Z" fill="currentColor"/>
<path d="M141.194 55.6338H135.089C134.62 55.6338 134.239 55.2542 134.239 54.7842V49.7168C133.327 47.3878 132.964 45.2793 133.16 43.4483C133.751 37.9283 137.362 35.7121 137.515 35.6201C137.787 35.4561 138.13 35.46 138.4 35.628C138.476 35.676 145.939 40.4599 142.044 49.8159V54.7842C142.044 55.2542 141.663 55.6338 141.194 55.6338ZM135.939 53.9351H140.344V49.645C140.344 49.53 140.367 49.4161 140.413 49.3101C143.379 42.3801 139.374 38.498 137.957 37.396C137.099 38.097 135.238 40.0099 134.85 43.6299C134.679 45.2219 135.025 47.1088 135.878 49.2378C135.918 49.3388 135.939 49.4462 135.939 49.5542V53.9351Z" fill="currentColor"/>
<path d="M142.489 117.089C139.777 117.089 137.972 117.007 137.912 117.005C137.929 117.007 136.125 117.089 133.413 117.089C126.77 117.089 114.602 116.603 107.737 113.341C97.7993 108.62 91.0522 95.1913 90.5502 92.4293C90.4312 91.9773 87.4652 79.8211 99.1712 69.1471L101.282 67.3292V60.0401C101.282 59.5701 101.663 59.19 102.132 59.19H109.448C109.374 58.951 109.343 58.6893 109.38 58.4093C109.522 57.3233 110.587 56.4969 112.634 55.8829C116.569 54.7019 129.416 53.3833 135.021 52.9293C135.254 52.9183 135.492 52.991 135.666 53.152C135.841 53.313 135.94 53.54 135.94 53.777V53.9361H140.345V53.8082C140.345 53.5712 140.445 53.3432 140.619 53.1832C140.794 53.0212 141.031 52.942 141.265 52.961C145.981 53.352 159.128 54.6399 163.269 55.8829C165.317 56.4969 166.381 57.3233 166.523 58.4093C166.56 58.6893 166.529 58.951 166.455 59.19H173.77C174.239 59.19 174.62 59.5701 174.62 60.0401V67.3292L176.712 69.1319C188.435 79.8209 185.47 91.9779 185.338 92.4889C184.849 95.1899 178.102 108.621 168.164 113.342C161.3 116.602 149.132 117.089 142.489 117.089ZM137.911 115.307C138.244 115.309 158.143 116.22 167.436 111.806C176.678 107.415 183.225 94.6251 183.68 92.1241C183.813 91.5931 186.509 80.363 175.586 70.402L173.216 68.3609C173.028 68.1999 172.921 67.9649 172.921 67.7169V60.8883H164.697C164.317 60.8883 163.983 60.6361 163.879 60.2701C163.775 59.9041 163.927 59.514 164.252 59.315C164.56 59.12 164.858 58.7721 164.838 58.6271C164.818 58.4811 164.41 57.9979 162.781 57.5099C159.39 56.4909 148.656 55.3051 142.045 54.7311V54.7843C142.045 55.2543 141.664 55.6339 141.195 55.6339H135.09C134.621 55.6339 134.24 55.2543 134.24 54.7843V54.6993C128.32 55.2063 116.731 56.4283 113.123 57.5113C111.494 57.9993 111.086 58.484 111.066 58.628C111.046 58.773 111.344 59.12 111.656 59.317C111.976 59.519 112.126 59.9101 112.021 60.2731C111.916 60.6371 111.585 60.8883 111.207 60.8883H102.983V67.7169C102.983 67.9639 102.875 68.1989 102.688 68.3619L100.3 70.4191C89.3612 80.3951 92.1813 91.949 92.2113 92.065C92.6793 94.626 99.2262 107.417 108.468 111.806C115.033 114.924 126.916 115.389 133.415 115.389C136.115 115.389 137.894 115.307 137.911 115.307Z" fill="currentColor"/>
<path d="M107.473 15.631C107.255 15.631 107.036 15.548 106.87 15.38L103.408 11.8951C103.077 11.5621 103.079 11.024 103.412 10.693C103.745 10.363 104.283 10.3634 104.614 10.6984L108.076 14.1832C108.407 14.5162 108.405 15.0539 108.072 15.3849C107.906 15.5489 107.69 15.631 107.473 15.631Z" fill="currentColor"/>
<path d="M166.025 18.0709C165.818 18.0709 165.611 17.9973 165.447 17.8453C165.103 17.5263 165.082 16.9881 165.401 16.6441L169.273 12.461C169.592 12.115 170.13 12.0962 170.474 12.4142C170.818 12.7332 170.839 13.2713 170.52 13.6153L166.648 17.798C166.482 17.98 166.254 18.0709 166.025 18.0709Z" fill="currentColor"/>
<path d="M93.2759 97.5718C93.2389 97.5728 93.2019 97.5699 93.1649 97.5649C79.8859 95.8319 70.1319 74.248 69.8729 72.853C69.7629 72.261 68.4819 70.0098 67.3069 68.1748C67.1399 67.9128 67.1279 67.5811 67.2769 67.3091C67.4259 67.0371 67.7119 66.8682 68.0229 66.8682H80.2089C80.5619 66.8682 80.8789 67.086 81.0039 67.417C84.4769 76.583 93.5349 76.8281 93.6269 76.8301C94.0959 76.8371 94.4709 77.2239 94.4639 77.6919C94.4569 78.1619 94.0649 78.5428 93.6009 78.5288C93.4999 78.5278 83.6609 78.2619 79.6329 68.5669H69.5529C70.3409 69.8699 71.3899 71.716 71.5439 72.543C71.9629 74.169 81.3789 94.3129 93.3849 95.8799C93.8509 95.9409 94.1789 96.367 94.1179 96.833C94.0619 97.261 93.6959 97.5718 93.2759 97.5718Z" fill="currentColor"/>
<path d="M74.2974 71.3683C74.2744 71.3683 74.2524 71.3683 74.2304 71.3683C70.3334 71.3353 67.5254 68.4273 67.4074 68.3043C67.0844 67.9643 67.0984 67.4281 67.4374 67.1041C67.7774 66.7801 68.3154 66.794 68.6384 67.131C68.6624 67.156 71.0894 69.6491 74.2584 69.6681C74.2714 69.6691 74.2833 69.6691 74.2963 69.6691C76.1563 69.6691 77.9424 68.8122 79.6044 67.1222C79.9324 66.7852 80.4704 66.783 80.8064 67.111C81.1404 67.44 81.1454 67.9781 80.8164 68.3131C78.8224 70.3411 76.6294 71.3683 74.2974 71.3683Z" fill="currentColor"/>
<path d="M97.8807 85.0491C97.8157 85.0491 97.7496 85.0411 97.6836 85.0261C97.2276 84.9171 96.9446 84.4592 97.0536 84.0022C99.1306 75.2772 106.736 70.9454 107.058 70.7654C107.468 70.5364 107.985 70.683 108.214 71.092C108.443 71.501 108.297 72.0193 107.888 72.2493C107.816 72.2893 100.608 76.4152 98.7066 84.3962C98.6136 84.7852 98.2657 85.0491 97.8807 85.0491Z" fill="currentColor"/>
<path d="M50.7197 77.782C50.5767 77.782 50.4317 77.7448 50.2987 77.6688C46.5077 75.4978 48.3467 72.0066 49.5627 69.6956C50.7367 67.4656 51.0037 66.6427 50.2627 66.1697C49.8667 65.9167 49.7517 65.3919 50.0047 64.9959C50.2577 64.5999 50.7837 64.4836 51.1787 64.7376C53.3597 66.1336 52.0887 68.5476 51.0667 70.4876C49.5097 73.4446 49.0097 74.9707 51.1427 76.1937C51.5507 76.4267 51.6907 76.9468 51.4577 77.3538C51.3017 77.6278 51.0147 77.782 50.7197 77.782Z" fill="currentColor"/>
<path d="M43.7978 77.782C43.6548 77.782 43.5098 77.7448 43.3768 77.6688C39.5858 75.4978 41.4248 72.0066 42.6408 69.6956C43.8148 67.4656 44.0818 66.6427 43.3408 66.1697C42.9448 65.9167 42.8298 65.3919 43.0828 64.9959C43.3358 64.5999 43.8618 64.4836 44.2568 64.7376C46.4378 66.1336 45.1668 68.5476 44.1448 70.4876C42.5878 73.4446 42.0878 74.9707 44.2208 76.1937C44.6288 76.4267 44.7688 76.9468 44.5358 77.3538C44.3798 77.6278 44.0928 77.782 43.7978 77.782Z" fill="currentColor"/>
<path d="M23.5692 94.2598H1.21622C0.747217 94.2598 0.366211 93.8802 0.366211 93.4102C0.366211 92.9402 0.747217 92.5601 1.21622 92.5601H23.5692C24.0382 92.5601 24.4192 92.9402 24.4192 93.4102C24.4192 93.8802 24.0382 94.2598 23.5692 94.2598Z" fill="currentColor"/>
</svg>
