<svg viewBox="0 0 900 229" version="1.1" xmlns="http://www.w3.org/2000/svg">
  <defs></defs>
  <path d="M0 141L21.5 141C43 141 86 141 128.8 144.7C171.7 148.3 214.3 155.7 257.2 151.8C300 148 343 133 385.8 124.8C428.7 116.7 471.3 115.3 514.2 115.3C557 115.3 600 116.7 642.8 123.3C685.7 130 728.3 142 771.2 144.3C814 146.7 857 139.3 878.5 135.7L900 132L900 0L878.5 0C857 0 814 0 771.2 0C728.3 0 685.7 0 642.8 0C600 0 557 0 514.2 0C471.3 0 428.7 0 385.8 0C343 0 300 0 257.2 0C214.3 0 171.7 0 128.8 0C86 0 43 0 21.5 0L0 0Z" fill="#dda95c"></path>
  <path d="M 0 86.127 L 21.5 89.127 C 43 92.127 86 98.127 128.8 101.827 C 171.7 105.427 214.3 106.827 257.2 99.327 C 300 91.827 343 75.427 385.8 67.327 C 428.7 59.127 471.3 59.127 514.2 65.827 C 557 72.427 600 85.827 642.8 98.427 C 685.7 111.127 728.3 123.127 771.2 121.627 C 814 120.127 857 105.127 878.5 97.627 L 900 90.127 L 900 21.127 L 878.5 24.827 C 857 28.427 814 35.827 771.2 33.427 C 728.3 31.127 685.7 19.127 642.8 12.427 C 600 5.827 557 4.427 514.2 4.427 C 471.3 4.427 428.7 5.827 385.8 13.927 C 343 22.127 300 37.127 257.2 40.927 C 214.3 44.827 171.7 37.427 128.8 33.827 C 86 30.127 43 30.127 21.5 30.127 L 0 30.127 L 0 86.127 Z" fill="#7b7a3e"></path>
  <path d="M 0 139.507 L 21.5 149.207 C 43 158.807 86 178.207 128.8 190.207 C 171.7 202.207 214.3 206.807 257.2 191.807 C 300 176.807 343 142.207 385.8 132.307 C 428.7 122.507 471.3 137.507 514.2 151.007 C 557 164.507 600 176.507 642.8 181.007 C 685.7 185.507 728.3 182.507 771.2 175.807 C 814 169.207 857 158.807 878.5 153.707 L 900 148.507 L 900 69.507 L 878.5 77.007 C 857 84.507 814 99.507 771.2 101.007 C 728.3 102.507 685.7 90.507 642.8 77.807 C 600 65.207 557 51.807 514.2 45.207 C 471.3 38.507 428.7 38.507 385.8 46.707 C 343 54.807 300 71.207 257.2 78.707 C 214.3 86.207 171.7 84.807 128.8 81.207 C 86 77.507 43 71.507 21.5 68.507 L 0 65.507 L 0 139.507 Z" fill="#34472a"></path>
  <path d="M 0 229.906 L 900 229.568 L 900 115.532 L 878.5 120.732 C 857 125.832 814 136.232 771.2 142.832 C 728.3 149.532 685.7 152.532 642.8 148.032 C 600 143.532 557 131.532 514.2 118.032 C 471.3 104.532 428.7 89.532 385.8 99.332 C 343 109.232 300 143.832 257.2 158.832 C 214.3 173.832 171.7 169.232 128.8 157.232 C 86 145.232 43 125.832 21.5 116.232 L 0 106.532 L 0 229.906 Z" fill="#04150d"></path>
</svg>