<svg viewBox="0 0 900 229" version="1.1" xmlns="http://www.w3.org/2000/svg"> <defs></defs> <path d="M0 132L21.5 134.2C43 136.3 86 140.7 128.8 136.2C171.7 131.7 214.3 118.3 257.2 119.2C300 120 343 135 385.8 148.5C428.7 162 471.3 174 514.2 178.5C557 183 600 180 642.8 175.5C685.7 171 728.3 165 771.2 168.7C814 172.3 857 185.7 878.5 192.3L900 199L900 0L878.5 0C857 0 814 0 771.2 0C728.3 0 685.7 0 642.8 0C600 0 557 0 514.2 0C471.3 0 428.7 0 385.8 0C343 0 300 0 257.2 0C214.3 0 171.7 0 128.8 0C86 0 43 0 21.5 0L0 0Z" fill="#04150d"></path> <path d="M 0 183.796 L 21.5 183.796 C 43 183.796 86 183.796 128.8 185.296 C 171.7 186.796 214.3 189.796 257.2 191.296 C 300 192.796 343 192.796 385.8 191.296 C 428.7 189.796 471.3 186.796 514.2 183.096 C 557 179.496 600 175.096 642.8 178.096 C 685.7 181.096 728.3 191.496 771.2 197.496 C 814 203.496 857 205.096 878.5 205.996 L 900 206.796 L 900 82.796 L 878.5 76.096 C 857 69.496 814 56.096 771.2 52.496 C 728.3 48.796 685.7 54.796 642.8 59.296 C 600 63.796 557 66.796 514.2 62.296 C 471.3 57.796 428.7 45.796 385.8 32.296 C 343 18.796 300 3.796 257.2 2.996 C 214.3 2.096 171.7 15.496 128.8 19.996 C 86 24.496 43 20.096 21.5 17.996 L 0 15.796 L 0 183.796 Z" fill="#34472a"></path> <path d="M 0 187.174 L 21.5 185.674 C 43 184.174 86 181.174 128.8 180.474 C 171.7 179.874 214.3 181.474 257.2 181.474 C 300 181.474 343 179.874 385.8 175.974 C 428.7 172.174 471.3 166.174 514.2 164.674 C 557 163.174 600 166.174 642.8 169.974 C 685.7 173.874 728.3 178.474 771.2 179.974 C 814 181.474 857 179.874 878.5 178.974 L 900 178.174 L 900 118.174 L 878.5 117.374 C 857 116.474 814 114.874 771.2 108.874 C 728.3 102.874 685.7 92.474 642.8 89.474 C 600 86.474 557 90.874 514.2 94.474 C 471.3 98.174 428.7 101.174 385.8 102.674 C 343 104.174 300 104.174 257.2 102.674 C 214.3 101.174 171.7 98.174 128.8 96.674 C 86 95.174 43 95.174 21.5 95.174 L 0 95.174 L 0 187.174 Z" fill="#7b7a3e"></path> <path d="M 0 229.141 L 21.5 229.141 C 43 229.141 86 229.141 128.8 229.141 C 171.7 229.141 214.3 229.141 257.2 229.141 C 300 229.141 343 229.141 385.8 229.141 C 428.7 229.141 471.3 229.141 514.2 229.141 C 557 229.141 600 229.141 642.8 229.141 C 685.7 229.141 728.3 229.141 771.2 229.141 C 814 229.141 857 229.141 878.5 229.141 L 900 229.141 L 900 155.141 L 878.5 155.941 C 857 156.841 814 158.441 771.2 156.941 C 728.3 155.441 685.7 150.841 642.8 146.941 C 600 143.141 557 140.141 514.2 141.641 C 471.3 143.141 428.7 149.141 385.8 152.941 C 343 156.841 300 158.441 257.2 158.441 C 214.3 158.441 171.7 156.841 128.8 157.441 C 86 158.141 43 161.141 21.5 162.641 L 0 164.141 L 0 229.141 Z" fill="#dda95c"></path> </svg>